<?xml version="1.0" standalone="no"?>
<!DOCTYPE svg PUBLIC "-//W3C//DTD SVG 1.1//EN" "http://www.w3.org/Graphics/SVG/1.1/DTD/svg11.dtd" >
<svg>
<metadata>
Created by FontForge 20090914 at Mon Feb 23 09:27:07 2015
 By www-data
&#194;&#169; 2009 Unity Progress. Portions &#194;&#169; 2009 The Monotype Corporation. Portions &#194;&#169; 2009 Microsoft Corporation. All Rights Reserved.
</metadata>
<defs>
<font id="DilleniaUPC" horiz-adv-x="0" >
  <font-face 
    font-family="DilleniaUPC"
    font-weight="400"
    font-stretch="normal"
    units-per-em="4096"
    panose-1="2 2 6 3 5 4 5 2 3 4"
    ascent="3276"
    descent="-820"
    x-height="1307"
    cap-height="1901"
    bbox="-1585 -1720 3211 3625"
    underline-thickness="20"
    underline-position="-123"
    unicode-range="U+0020-U+25CC"
  />
<missing-glyph horiz-adv-x="2048" 
d="M204 0v2184h1640v-2184h-1640zM408 204h1232v1776h-1232v-1776z" />
    <glyph glyph-name=".notdef" horiz-adv-x="2048" 
d="M204 0v2184h1640v-2184h-1640zM408 204h1232v1776h-1232v-1776z" />
    <glyph glyph-name="space" unicode=" " horiz-adv-x="909" 
 />
    <glyph glyph-name="space" unicode="&#xa0;" horiz-adv-x="909" 
 />
    <glyph glyph-name="exclam" unicode="!" horiz-adv-x="868" 
d="M528 1901l-36 -1475h-111l-37 1475h184zM352 0v180h164v-180h-164z" />
    <glyph glyph-name="quotedbl" unicode="&#x22;" horiz-adv-x="1016" 
d="M426 1901v-562h-131v562h131zM721 1901v-562h-131v562h131z" />
    <glyph glyph-name="numbersign" unicode="#" horiz-adv-x="1307" 
d="M229 0l82 623h-295v127h312l57 426h-299v127h315l82 598h135l-81 -598h364l78 598h135l-82 -598h262v-127h-278l-53 -426h262v-127h-283l-82 -623h-135l82 623h-361l-86 -623h-131zM885 1176h-365l-57 -426h364z" />
    <glyph glyph-name="dollar" unicode="$" horiz-adv-x="1307" 
d="M602 1069v733c-100 0 -185 -35.333 -255 -106s-105 -165 -105 -283c0 -66 17.667 -121.167 53 -165.5s77.5 -79 126.5 -104s109.167 -49.833 180.5 -74.5zM717 848v-749.999c98.667 9.33301 180.667 46.5 246 111.5s98 153.5 98 265.5
c0 115.333 -22.833 192.666 -68.5 231.999s-125.167 82.333 -238.5 129zM94 0.000976562v609.997h119c2 -140 37.167 -256.667 105.5 -350s162.833 -147.333 283.5 -162v791l-180 69c-218.667 83.333 -328 227 -328 431c0 168.667 48.167 300.834 144.5 396.501
s217.5 143.5 363.5 143.5v238h115v-238c140.667 -16 251.334 -100.667 332.001 -254h12v226h115v-611h-123c-4 290 -116 460.667 -336 512v-774l110 -45c131.333 -48.667 227.666 -107.167 288.999 -175.5s92 -175.166 92 -320.499c0 -154 -47.833 -276.667 -143.5 -368
s-211.5 -140.666 -347.5 -147.999v-266h-115v266c-174 24.667 -303.667 115 -389 271h-4v-242h-115z" />
    <glyph glyph-name="percent" unicode="%" horiz-adv-x="2036" 
d="M1204 467c0 140.667 23.668 257.667 71.001 351s127.666 140 240.999 140c110.667 0 190.167 -46.667 238.5 -140s72.5 -210.333 72.5 -351c0 -142.667 -24.333 -261 -73 -355s-128 -141 -238 -141c-208 0 -312 165.333 -312 496zM1335 467
c0 -264.667 60.333 -397 181 -397c120 0 180 132.333 180 397c0 262 -60 393 -180 393c-120.667 0 -181 -131 -181 -393zM209.001 1438c0 140.667 23.5 257.667 70.5 351s127.167 140 240.5 140c112 0 191.833 -46.833 239.5 -140.5s71.5 -210.5 71.5 -350.5
c0 -142.667 -24 -261 -72 -355s-127.667 -141 -239 -141c-207.333 0 -311 165.333 -311 496zM340.001 1438c0 -265.333 60 -398 180 -398s180 132.667 180 398c0 262 -60 393 -180 393s-180 -131 -180 -393zM487.001 -53l943 2007h110l-938 -2007h-115z" />
    <glyph glyph-name="ampersand" unicode="&#x26;" horiz-adv-x="2036" 
d="M1176 344l-537.001 609.999c-226.667 -113.333 -340 -264.666 -340 -453.999c0 -122 40.333 -219.5 121 -292.5s177 -109.5 289 -109.5c89.333 0 178.333 22 267 66s155.334 104 200.001 180zM437.999 1524c0 -39.333 7.33496 -76.667 22.002 -112
s34.5 -69.833 59.5 -103.5s57.167 -71.5 96.5 -113.5s60.666 -65 63.999 -69c77.333 47.333 136 85.5 176 114.5s76 67.333 108 115s48 105.167 48 172.5c0 86.667 -26.333 154 -79 202s-119.334 72 -200.001 72c-51.333 0 -99.833 -11.333 -145.5 -34s-82 -55 -109 -97
s-40.5 -91 -40.5 -147zM1786 1114l-0.00195312 -127.001h-225c-9.33301 -232 -71 -439.333 -185 -622l209 -238h266v-127h-364l-217 250c-134.667 -186 -321.667 -279 -561 -279c-104 0 -198.167 19.833 -282.5 59.5s-151.166 100.167 -200.499 181.5s-74 180 -74 296
c0 124.667 37.333 235.167 112 331.5s168.334 168.833 281.001 217.5c-84.667 94.667 -147.5 175.334 -188.5 242.001s-61.5 143 -61.5 229c0 128.667 43.833 227.667 131.5 297s191.167 104 310.5 104c118 0 217.833 -33.833 299.5 -101.5s122.5 -163.5 122.5 -287.5
c0 -123.333 -34.833 -225.333 -104.5 -306s-164.5 -152 -284.5 -214l500 -549c95.333 142.667 143 314.667 143 516h-205v127h578z" />
    <glyph glyph-name="quotesingle" unicode="'" horiz-adv-x="725" 
d="M426 1901v-562h-127v562h127z" />
    <glyph glyph-name="parenleft" unicode="(" horiz-adv-x="725" 
d="M532 2101l118.999 0.00292969c-240 -377.333 -360 -785.333 -360 -1224c0 -148.667 14 -293.334 42 -434.001s68.833 -277 122.5 -409s118.834 -259.333 195.501 -382h-119c-259.333 405.333 -389 813.666 -389 1225c0 209.333 34.833 421.666 104.5 636.999
s164.5 411 284.5 587z" />
    <glyph glyph-name="parenright" unicode=")" horiz-adv-x="725" 
d="M197 -348h-118.999c115.333 184 204.166 380 266.499 588s93.5 420.333 93.5 637c0 419.333 -120 827.333 -360 1224h119c256.667 -408 385 -816 385 -1224c0 -212 -34.833 -426.333 -104.5 -643s-163.167 -410.667 -280.5 -582z" />
    <glyph glyph-name="asterisk" unicode="*" horiz-adv-x="1159" 
d="M537 1520l-29 381h156l-41 -385l323 151l41 -164l-344 -73l229 -304l-127 -94l-163 344l-189 -340l-119 107l242 287l-344 90l49 159z" />
    <glyph glyph-name="plus" unicode="+" horiz-adv-x="1569" 
d="M717 807v663h135v-663h594v-143h-594v-664h-135v664h-590v143h590z" />
    <glyph glyph-name="comma" unicode="," horiz-adv-x="651" 
d="M246 0v197h184v-197l-115 -365h-102l123 365h-90z" />
    <glyph glyph-name="hyphen" unicode="-" horiz-adv-x="868" 
d="M127 709v147h618v-147h-618z" />
    <glyph glyph-name="period" unicode="." horiz-adv-x="651" 
d="M238 0v197h184v-197h-184z" />
    <glyph glyph-name="slash" unicode="/" horiz-adv-x="868" 
d="M33 -29l667 1958h140l-672 -1958h-135z" />
    <glyph glyph-name="zero" unicode="0" horiz-adv-x="1270" 
d="M1028 950c0 530 -132.333 795 -397 795c-262 0 -393 -265 -393 -795c0 -216.667 26.5 -413.5 79.5 -590.5s157.5 -265.5 313.5 -265.5c156.667 0 262 88.333 316 265s81 373.667 81 591zM1171 950c0 -652.667 -179.999 -978.999 -539.999 -978.999
c-355.333 0 -533 326.333 -533 979c0 265.333 36.5 484.666 109.5 657.999s214.167 260 423.5 260c213.333 0 356.666 -86 429.999 -258s110 -392 110 -660z" />
    <glyph glyph-name="one" unicode="1" horiz-adv-x="1270" 
d="M319 0l0.000976562 123h263v1544c-96 -114.667 -232.667 -239 -410 -373v172c175.333 145.333 307.666 271 396.999 377h156v-1720h250v-123h-656z" />
    <glyph glyph-name="two" unicode="2" horiz-adv-x="1270" 
d="M90 0l-0.00195312 205.003l385 413l299.5 337c57.667 68 106.834 137.833 147.501 209.5s61 138.167 61 199.5c0 254 -117.333 381 -352 381c-108 0 -193.667 -42.333 -257 -127s-96.666 -191.334 -99.999 -320.001h-143c0 114.667 22.333 215 67 301
s106 152.333 184 199s166.333 70 265 70c142 0 257.333 -41.833 346 -125.5s133 -201.5 133 -353.5c0 -104.667 -31.833 -209.834 -95.5 -315.501s-175.167 -247.834 -334.5 -426.501l-483 -524h815v295h131v-418h-1069z" />
    <glyph glyph-name="three" unicode="3" horiz-adv-x="1270" 
d="M545 868l0.00292969 127c286.667 0 430 127 430 381c0 121.333 -31.667 213.166 -95 275.499s-149 93.5 -257 93.5c-104.667 0 -189.334 -36.5 -254.001 -109.5s-99 -170.5 -103 -292.5h-139c4 164.667 53.167 293.334 147.5 386.001s215.833 139 364.5 139
c152 0 270.5 -44.333 355.5 -133s127.5 -217.667 127.5 -387c0 -108 -34 -199.167 -102 -273.5s-152.667 -122.5 -254 -144.5v-4c246 -46.667 369 -199.667 369 -459c0 -160.667 -49.833 -283.5 -149.5 -368.5s-224.834 -127.5 -375.501 -127.5
c-148.667 0 -269 48.167 -361 144.5s-138 228.5 -138 396.5h139c0 -278.667 131 -418 393 -418c95.333 0 177.166 36.833 245.499 110.5s102.5 165.167 102.5 274.5c0 259.333 -148.667 389 -446 389z" />
    <glyph glyph-name="four" unicode="4" horiz-adv-x="1270" 
d="M586 0v123h250v405h-787v185l750 1130h180v-1188h233v-127h-233v-405h229v-123h-622zM164 655h672v1012h-5z" />
    <glyph glyph-name="five" unicode="5" horiz-adv-x="1270" 
d="M1114 1843v-126.999h-778l-29 -782l4 -4c32 74 82.5 132.667 151.5 176s142.833 65 221.5 65c106.667 0 197.834 -25.5 273.501 -76.5s133 -121 172 -210s58.5 -189.833 58.5 -302.5c0 -118.667 -23 -224.667 -69 -318s-110 -165.5 -192 -216.5
s-175.333 -76.5 -280 -76.5c-142.667 0 -261.667 45.5 -357 136.5s-143 214.833 -143 371.5h144c0 -113.333 34.167 -205.833 102.5 -277.5s154.166 -107.5 257.499 -107.5c123.333 0 220.5 47 291.5 141s106.5 208.333 106.5 343c0 138.667 -33 251 -99 337
s-157.333 129 -274 129c-88.667 0 -165 -23.833 -229 -71.5s-109.333 -117.834 -136 -210.501h-143l25 1081h921z" />
    <glyph glyph-name="six" unicode="6" horiz-adv-x="1270" 
d="M1130 1393l-139 0.000976562c0 92 -26.833 173.667 -80.5 245s-129.167 107 -226.5 107c-267.333 0 -416 -291 -446 -873h4c73.333 199.333 203 299 389 299c171.333 0 301.5 -53.5 390.5 -160.5s133.5 -247.167 133.5 -420.5c0 -120.667 -21.667 -228.334 -65 -323.001
s-104.833 -167.667 -184.5 -219s-171.167 -77 -274.5 -77c-206 0 -346.333 73.667 -421 221s-112 337.333 -112 570c0 737.333 196.667 1106 590 1106c136 0 243.667 -42.5 323 -127.5s119 -200.833 119 -347.5zM238 578.001c0 -142 35.999 -258.167 107.999 -348.5
s167 -135.5 285 -135.5c122.667 0 216.834 46 282.501 138s98.5 211.333 98.5 358c0 137.333 -32 247.333 -96 330s-159 124 -285 124c-82 0 -152.5 -21.167 -211.5 -63.5s-104 -99 -135 -170s-46.5 -148.5 -46.5 -232.5z" />
    <glyph glyph-name="seven" unicode="7" horiz-adv-x="1270" 
d="M1176 1843l-0.000976562 -191.997c-65.333 -118 -134.666 -263.667 -207.999 -437s-140.833 -341 -202.5 -503l-265.5 -711h-156c60 181.333 133.667 382.666 221 603.999s174.5 431.166 261.5 629.499s161.167 359.166 222.5 482.499h-844v-340h-123v467h1094z" />
    <glyph glyph-name="eight" unicode="8" horiz-adv-x="1270" 
d="M250 508c0 -130 35.6689 -231.499 107.002 -304.499s162.666 -109.5 273.999 -109.5c117.333 0 210.166 39.667 278.499 119s102.5 177.666 102.5 294.999c0 120 -34.833 213.5 -104.5 280.5s-161.834 100.5 -276.501 100.5c-109.333 0 -200.166 -33.5 -272.499 -100.5
s-108.5 -160.5 -108.5 -280.5zM274.002 1380c0 -119.333 33.501 -210.5 100.501 -273.5s152.5 -94.5 256.5 -94.5c114 0 202.5 32.5 265.5 97.5s94.5 158.167 94.5 279.5c0 115.333 -32.833 203.5 -98.5 264.5s-152.834 91.5 -261.501 91.5c-106 0 -192 -32.667 -258 -98
s-99 -154.333 -99 -267zM131.003 1405c0 148 49.834 262.166 149.501 342.499s216.5 120.5 350.5 120.5c98 0 184.833 -16.5 260.5 -49.5s135.167 -84 178.5 -153s65 -155.833 65 -260.5c0 -114.667 -29.333 -213.667 -88 -297s-138.667 -133.333 -240 -150v-8
c234.667 -64.667 352 -219 352 -463c0 -171.333 -50.833 -300.166 -152.5 -386.499s-226.834 -129.5 -375.501 -129.5c-156.667 0 -282.5 45.5 -377.5 136.5s-142.5 217.5 -142.5 379.5c0 126 32.167 230.167 96.5 312.5s150.833 132.5 259.5 150.5v4
c-224 50.667 -336 201 -336 451z" />
    <glyph glyph-name="nine" unicode="9" horiz-adv-x="1270" 
d="M135 446l138.998 -0.00390625c0 -89.333 27.5 -170.333 82.5 -243s130.167 -109 225.5 -109c166 0 278.667 86.833 338 260.5s95.333 379.167 108 616.5h-4c-70.667 -199.333 -201.667 -299 -393 -299c-171.333 0 -300.166 52.833 -386.499 158.5
s-129.5 247.834 -129.5 426.501c0 120.667 21.333 227.334 64 320.001s103.167 164.334 181.5 215.001s168.5 76 270.5 76c208.667 0 350.834 -73 426.501 -219s113.5 -335.333 113.5 -568c0 -740 -197.667 -1110 -593 -1110c-88 0 -165.5 19.333 -232.5 58
s-118.833 93.834 -155.5 165.501s-55 155.5 -55 251.5zM630.998 1745c-118.667 0 -211.167 -45.667 -277.5 -137s-99.5 -208.333 -99.5 -351c0 -137.333 32.167 -248 96.5 -332s157.833 -126 280.5 -126c124.667 0 222 45.167 292 135.5s105 200.833 105 331.5
c0 140.667 -36.333 255.667 -109 345s-168.667 134 -288 134z" />
    <glyph glyph-name="colon" unicode=":" horiz-adv-x="651" 
d="M422 1307v-197h-184v197h184zM238 0v197h184v-197h-184z" />
    <glyph glyph-name="semicolon" unicode=";" horiz-adv-x="651" 
d="M246 0v197h184v-197l-115 -365h-102l123 365h-90zM430 1307v-197h-184v197h184z" />
    <glyph glyph-name="less" unicode="&#x3c;" horiz-adv-x="1569" 
d="M1450 135v-160l-1327 680v160l1327 680v-160l-1167 -598z" />
    <glyph glyph-name="equal" unicode="=" horiz-adv-x="1569" 
d="M1446 1090v-144h-1319v144h1319zM1446 528v-147h-1319v147h1319z" />
    <glyph glyph-name="greater" unicode="&#x3e;" horiz-adv-x="1569" 
d="M123 135l1163 602l-1163 598v160l1327 -680v-160l-1327 -680v160z" />
    <glyph glyph-name="question" unicode="?" horiz-adv-x="1159" 
d="M229 1409h-143c12.667 346.667 179.334 520 500.001 520c143.333 0 261.666 -42 354.999 -126s140 -210 140 -378c0 -102.667 -20.167 -185.167 -60.5 -247.5s-101.833 -134.166 -184.5 -215.499s-145.667 -161.333 -189 -240s-65 -182.667 -65 -312h-148
c0 153.333 21 273.5 63 360.5s105.5 171.167 190.5 252.5s143.833 143.833 176.5 187.5s49 111.167 49 202.5c0 118 -29.167 212.333 -87.5 283s-143.833 106 -256.5 106c-103.333 0 -184.5 -35.333 -243.5 -106s-91.167 -166.334 -96.5 -287.001zM426 0v180h164v-180h-164z
" />
    <glyph glyph-name="at" unicode="@" horiz-adv-x="2093" 
d="M688 766c0 -78 20.499 -142.5 61.499 -193.5s91.5 -76.5 151.5 -76.5c70 0 136.333 35.833 199 107.5s112.834 158.5 150.501 260.5s56.5 193.667 56.5 275c0 42.667 -9.66699 84.167 -29 124.5s-44 73.333 -74 99s-60 38.5 -90 38.5c-78 0 -149.833 -34 -215.5 -102
s-117.167 -151.667 -154.5 -251s-56 -193.333 -56 -282zM1569 1483l-230 -777.997c-16 -46.667 -24 -97.334 -24 -152.001c3.33301 -34 26.333 -53 69 -57c58 0 115.833 33 173.5 99s104.667 148.333 141 247s54.5 193.334 54.5 284.001c0 101.333 -18 194.5 -54 279.5
s-84.833 156.833 -146.5 215.5s-132.667 103.5 -213 134.5s-165.166 46.5 -254.499 46.5c-140 0 -267 -39 -381 -117s-203.167 -183.333 -267.5 -316s-96.5 -276.334 -96.5 -431.001c0 -151.333 33.667 -291.5 101 -420.5s159 -231.167 275 -306.5s242 -113 378 -113
c86.667 0 169.167 13.833 247.5 41.5s149.666 68.5 213.999 122.5s119.166 118.333 164.499 193h127c-158.667 -322.667 -409.667 -484 -753 -484c-170.667 0 -323.834 44.167 -459.501 132.5s-241.167 208.166 -316.5 359.499s-113 316.333 -113 495
c0 175.333 39.833 337.5 119.5 486.5s187.5 267 323.5 354s281.667 130.5 437 130.5c146.667 0 281.334 -34.833 404.001 -104.5s219.834 -166.834 291.501 -291.501s107.5 -263 107.5 -415c0 -132 -27.167 -256 -81.5 -372s-123.833 -208.5 -208.5 -277.5
s-169.667 -103.5 -255 -103.5c-99.333 0 -151 57.333 -155 172h-12c-103.333 -114.667 -207.333 -172 -312 -172c-96 0 -173.167 37 -231.5 111s-87.5 166.667 -87.5 278c0 124 24.5 246.167 73.5 366.5s117.667 218.333 206 294s187.5 113.5 297.5 113.5
c122.667 0 208.667 -73.667 258 -221l62 176h127z" />
    <glyph glyph-name="A" unicode="A" horiz-adv-x="1892" 
d="M1286 799l-348 950l-352 -950h700zM33 0v127h155l664 1774h192l648 -1774h155v-127h-581v127h262l-197 541h-794l-197 -541h262v-127h-569z" />
    <glyph glyph-name="B" unicode="B" horiz-adv-x="1602" 
d="M451 897l-0.000976562 -769.999h229c117.333 0 217 6.66699 299 20s153.667 49.166 215 107.499s92 148.166 92 269.499c0 114.667 -22.833 199.334 -68.5 254.001s-99.167 88.167 -160.5 100.5s-136.666 18.5 -225.999 18.5h-380zM450.999 1774l0.000976562 -750h229
c117.333 0 213.166 6.66699 287.499 20s137.833 49.333 190.5 108s79 149.667 79 273c0 108 -24.667 187.5 -74 238.5s-109.5 82.167 -180.5 93.5s-165.167 17 -282.5 17h-249zM66 0.000976562l-0.000976562 126.999h237v1647h-237v127h577
c142.667 0 265.334 -8 368.001 -24s193.334 -58.833 272.001 -128.5s118 -177.5 118 -323.5c0 -116.667 -30.167 -212.5 -90.5 -287.5s-143.5 -127.833 -249.5 -158.5v-8c124 -10 219.833 -53.5 287.5 -130.5s101.5 -182.5 101.5 -316.5
c0 -159.333 -41.833 -277.666 -125.5 -354.999s-180.334 -124.833 -290.001 -142.5s-240.167 -26.5 -391.5 -26.5h-577z" />
    <glyph glyph-name="C" unicode="C" horiz-adv-x="1749" 
d="M1466 1642l0.000976562 259.001h131v-684h-135c-12 201.333 -61 349.166 -147 443.499s-221.333 141.5 -406 141.5c-217.333 0 -376.666 -85.833 -477.999 -257.5s-152 -379.167 -152 -622.5c0 -230 55.167 -424.833 165.5 -584.5s262.5 -239.5 456.5 -239.5
c153.333 0 277.166 46.167 371.499 138.5s149.5 222.5 165.5 390.5h164c-17.333 -216.667 -90.333 -380.167 -219 -490.5s-293.334 -165.5 -494.001 -165.5c-244 0 -433.333 92.5 -568 277.5s-202 414.833 -202 689.5c0 194.667 30.5 367 91.5 517s152.5 266.5 274.5 349.5
s271.667 124.5 449 124.5c236 0 410.667 -95.667 524 -287h8z" />
    <glyph glyph-name="D" unicode="D" horiz-adv-x="1749" 
d="M61 0v127.001h238v1647h-238v127h615c297.333 0 528.666 -72.667 693.999 -218s248 -381.333 248 -708c0 -348.667 -79.167 -598.334 -237.5 -749.001s-393.166 -226 -704.499 -226h-615zM446 1774l-0.000976562 -1647h201c178.667 0 327.334 27.5 446.001 82.5
s208.5 145.167 269.5 270.5s91.5 290.333 91.5 495c0 288 -68.5 493.167 -205.5 615.5s-337.5 183.5 -601.5 183.5h-201z" />
    <glyph glyph-name="E" unicode="E" horiz-adv-x="1602" 
d="M53 0v127h234v1647h-234v127h1352v-594h-131v467h-840v-750h443v283h131v-713h-131v303h-443v-770h856v467h131v-594h-1368z" />
    <glyph glyph-name="F" unicode="F" horiz-adv-x="1454" 
d="M57 0v127h238v1647h-238v127h1311v-562h-131v435h-799v-750h434v287h136v-713h-136v299h-434v-770h303v-127h-684z" />
    <glyph glyph-name="G" unicode="G" horiz-adv-x="1892" 
d="M1483 1618l0.00292969 283h127v-680h-127c-2 185.333 -52 328.5 -150 429.5s-229.667 151.5 -395 151.5c-151.333 0 -276.5 -39.667 -375.5 -119s-171 -184.666 -216 -315.999s-67.5 -277 -67.5 -437c0 -156.667 25.667 -298.167 77 -424.5
s126.666 -225.833 225.999 -298.5s218 -109 356 -109c366 0 549 237.667 549 713h-283v127h651v-127h-221v-811h-147v295h-4c-71.333 -126 -157 -211.5 -257 -256.5s-224.667 -67.5 -374 -67.5c-148.667 0 -278.667 46.667 -390 140s-196.333 213.666 -255 360.999
s-88 300 -88 458c0 184 32 352.5 96 505.5s157.167 273.5 279.5 361.5s266.166 132 431.499 132c113.333 0 220.666 -27 321.999 -81s177 -130.667 227 -230h8z" />
    <glyph glyph-name="H" unicode="H" horiz-adv-x="1892" 
d="M74 0v127h237v1647h-237v127h643v-127h-258v-750h975v750h-263v127h648v-127h-238v-1647h225v-127h-635v127h263v770h-975v-770h258v-127h-643z" />
    <glyph glyph-name="I" unicode="I" horiz-adv-x="725" 
d="M53 0v127h238v1647h-238v127h619v-127h-234v-1647h234v-127h-619z" />
    <glyph glyph-name="J" unicode="J" horiz-adv-x="1159" 
d="M1069 1901l-0.000976562 -127h-180v-996c0 -135.333 -3.33301 -246.833 -10 -334.5s-23.667 -167.834 -51 -240.501s-71 -129.5 -131 -170.5s-140.667 -61.5 -242 -61.5c-149.333 0 -261.166 47.833 -335.499 143.5s-111.5 224.167 -111.5 385.5
c0 40.667 1.33301 72 4 94h148c0 -161.333 21.333 -284.333 64 -369s121 -127 235 -127c116 0 192 45.333 228 136s54 213.334 54 368.001v176v996h-278v127h606z" />
    <glyph glyph-name="K" unicode="K" horiz-adv-x="1602" 
d="M61 0v127h238v1647h-238v127h619v-127h-234v-766l779 766h-238v127h561v-127h-135l-790 -770l807 -877h118v-127h-544v127h233l-791 860v-860h234v-127h-619z" />
    <glyph glyph-name="L" unicode="L" horiz-adv-x="1454" 
d="M66 0v127h237v1647h-237v127h696v-127h-311v-1647h790v438h131v-565h-1306z" />
    <glyph glyph-name="M" unicode="M" horiz-adv-x="2322" 
d="M2249 1901v-127h-262v-1647h262v-127h-647v127h237v1647h-4l-606 -1774h-135l-602 1774h-9v-1647h234v-127h-639v127h262v1647h-262v127h516l565 -1668l570 1668h520z" />
    <glyph glyph-name="N" unicode="N" horiz-adv-x="1892" 
d="M61 0v127h222v1647h-222v127h451l942 -1774h4v1647h-262v127h631v-127h-221v-1774h-226l-946 1774h-8v-1647h262v-127h-627z" />
    <glyph glyph-name="O" unicode="O" horiz-adv-x="1892" 
d="M119 967c0 296.667 70.834 531.168 212.501 703.501s345.167 258.5 610.5 258.5s470.333 -86.5 615 -259.5s217 -407.167 217 -702.5c0 -196.667 -32.333 -370.334 -97 -521.001s-159.667 -267.5 -285 -350.5s-275.333 -124.5 -450 -124.5
c-176 0 -325.833 41.5 -449.5 124.5s-216.834 199.5 -279.501 349.5s-94 324 -94 522zM279.001 967.001c0 -173.333 23.167 -324.833 69.5 -454.5s119.166 -231.167 218.499 -304.5s224.333 -110 375 -110c222.667 0 389.667 79.167 501 237.5s167 368.833 167 631.5
c0 153.333 -24.333 293.5 -73 420.5s-123.167 227.833 -223.5 302.5s-224.166 112 -371.499 112c-150 0 -274.833 -37.5 -374.5 -112.5s-172.667 -175.167 -219 -300.5s-69.5 -266 -69.5 -422z" />
    <glyph glyph-name="P" unicode="P" horiz-adv-x="1454" 
d="M49 0v127h234v1647h-234v127h381h275c130 0 243.667 -12.333 341 -37s177.333 -77.167 240 -157.5s94 -198.5 94 -354.5c0 -194 -55.167 -334.667 -165.5 -422s-248.833 -131 -415.5 -131h-369v-672h315v-127h-696zM430 1774l-0.000976562 -848h275
c144.667 0 266.834 25 366.501 75s149.5 167 149.5 351c0 170 -43.167 282.833 -129.5 338.5s-201.833 83.5 -346.5 83.5h-315z" />
    <glyph glyph-name="Q" unicode="Q" horiz-adv-x="1892" 
d="M1855 127v-126.999h-520c-112 0 -189.667 -5.33301 -233 -16c-51.333 -8.66699 -104.666 -13 -159.999 -13c-176 0 -325.833 41.5 -449.5 124.5s-216.834 199.5 -279.501 349.5s-94 324 -94 522c0 296.667 70.833 531.167 212.5 703.5s345.167 258.5 610.5 258.5
s470.333 -86.5 615 -259.5s217 -407.167 217 -702.5c0 -184.667 -37.333 -351.334 -112 -500.001s-181 -262 -319 -340v-8c21.333 0 51 1.33301 89 4s67.333 4 88 4h335zM942 98.001c222.667 0 389.667 79.167 501 237.5s167 368.833 167 631.5
c0 153.333 -24.333 293.5 -73 420.5s-123.167 227.833 -223.5 302.5s-224.166 112 -371.499 112c-150 0 -274.833 -37.5 -374.5 -112.5s-172.667 -175.167 -219 -300.5s-69.5 -266 -69.5 -422c0 -173.333 23.167 -324.833 69.5 -454.5s119.166 -231.167 218.499 -304.5
s224.333 -110 375 -110z" />
    <glyph glyph-name="R" unicode="R" horiz-adv-x="1602" 
d="M57 0v127h238v1647h-238v127h635c139.333 0 257.666 -10.167 354.999 -30.5s179.333 -67.666 246 -141.999s100 -184.833 100 -331.5c0 -158.667 -32.5 -272.5 -97.5 -341.5s-159.5 -114.833 -283.5 -137.5v-9c66 -20.667 111.333 -39.334 136 -56.001
s46.334 -45.667 65.001 -87s47 -123.333 85 -246l119 -393h139v-127h-266l-164 561c-28 98 -51.5 164.667 -70.5 200s-51.5 60 -97.5 74s-121 21 -225 21h-295v-729h238v-127h-619zM438 1774v-790.999h287c102 0 188.667 8.83301 260 26.5s130.5 57 177.5 118
s70.5 150.833 70.5 269.5c0 112 -21.333 195.667 -64 251s-98.5 90.166 -167.5 104.499s-161.167 21.5 -276.5 21.5h-287z" />
    <glyph glyph-name="S" unicode="S" horiz-adv-x="1454" 
d="M1139 1708l-0.00390625 193h131v-627h-131c0 177.333 -35.167 309.666 -105.5 396.999s-184.166 131 -341.499 131c-100.667 0 -188.667 -33.833 -264 -101.5s-113 -157.834 -113 -270.501c0 -110 36.333 -187.333 109 -232s194.834 -96.334 366.501 -155.001
s300.667 -126.167 387 -202.5s129.5 -194.166 129.5 -353.499c0 -104.667 -25 -196.167 -75 -274.5s-116.167 -138.166 -198.5 -179.499s-170.166 -62 -263.499 -62c-230 0 -389.667 93 -479 279h-8v-250h-127v627h127c0 -158.667 40.167 -286.5 120.5 -383.5
s187.5 -145.5 321.5 -145.5c112 0 210.333 33.333 295 100s127 163 127 289c0 117.333 -40.333 203.333 -121 258s-203.167 111.5 -367.5 170.5s-289.166 123.833 -374.499 194.5s-128 177.334 -128 320.001c0 98.667 25 186.167 75 262.5s116.333 134.833 199 175.5
s170 61 262 61c214.667 0 360.667 -73.667 438 -221h9z" />
    <glyph glyph-name="T" unicode="T" horiz-adv-x="1602" 
d="M438 0v127h287v1647h-524v-435h-127v562h1450v-562h-131v435h-525v-1647h291v-127h-721z" />
    <glyph glyph-name="U" unicode="U" horiz-adv-x="1745" 
d="M25 1774v127h630v-127h-270v-959c0 -146.667 13.333 -272.167 40 -376.5s75.5 -187.166 146.5 -248.499s169.833 -92 296.5 -92c188 0 317 62.667 387 188s105 301.666 105 528.999v959h-275v127h631v-127h-209v-959c0 -273.333 -46.667 -482.333 -140 -627
s-259.666 -217 -498.999 -217c-234.667 0 -398.334 72.333 -491.001 217s-139 353.667 -139 627v959h-213z" />
    <glyph glyph-name="V" unicode="V" horiz-adv-x="1749" 
d="M1708 1901v-127h-135l-606 -1774h-176l-623 1774h-127v127h516v-127h-238l558 -1594l548 1594h-237v127h520z" />
    <glyph glyph-name="W" unicode="W" horiz-adv-x="2327" 
d="M2294 1901v-127h-135l-381 -1774h-201l-410 1729h-4l-426 -1729h-200l-373 1774h-131v127h536v-127h-258l328 -1594h4l414 1721h213l405 -1721h8l336 1594h-262v127h537z" />
    <glyph glyph-name="X" unicode="X" horiz-adv-x="1749" 
d="M29 0v127h155l598 844l-553 803h-180v127h590v-127h-238l467 -684l480 684h-234v127h586v-127h-180l-566 -807l590 -840h156v-127h-578v127h250l-504 721l-512 -721h238v-127h-565z" />
    <glyph glyph-name="Y" unicode="Y" horiz-adv-x="1602" 
d="M430 0v127h287v651l-561 996h-119v127h512v-127h-238l480 -848l495 848h-237v127h516v-127h-119l-582 -996v-651h291v-127h-725z" />
    <glyph glyph-name="Z" unicode="Z" horiz-adv-x="1602" 
d="M135 0v176l1139 1598h-991v-394h-127v521h1274v-164l-1147 -1610h1048v397h131v-524h-1327z" />
    <glyph glyph-name="bracketleft" unicode="[" horiz-adv-x="725" 
d="M578 2101v-110h-193v-2229h193v-110h-328v2449h328z" />
    <glyph glyph-name="backslash" unicode="\" horiz-adv-x="868" 
d="M168 1929l672 -1958h-140l-667 1958h135z" />
    <glyph glyph-name="bracketright" unicode="]" horiz-adv-x="725" 
d="M147 -348v110h201v2229h-201v110h328v-2449h-328z" />
    <glyph glyph-name="asciicircum" unicode="^" horiz-adv-x="1569" 
d="M266 586h-151l602 1315h135l602 -1315h-147l-525 1143z" />
    <glyph glyph-name="underscore" unicode="_" horiz-adv-x="1307" 
d="M74 -365v148h1159v-148h-1159z" />
    <glyph glyph-name="grave" unicode="`" horiz-adv-x="725" 
d="M78 1884h205l237 -389h-135z" />
    <glyph glyph-name="a" unicode="a" horiz-adv-x="1307" 
d="M950 0l-0.00195312 262h-8c-33.333 -96 -90.333 -168.5 -171 -217.5s-169.667 -73.5 -267 -73.5c-124 0 -224.667 35.5 -302 106.5s-116 174.833 -116 311.5c0 112.667 31.833 198.5 95.5 257.5s139.334 97 227.001 114s184.834 25.5 291.501 25.5h250v95
c0 232 -110.667 348 -332 348c-202 0 -316.667 -94.333 -344 -283h-147c34 262 193.667 393 479 393c158 0 276.667 -35.167 356 -105.5s119 -187.833 119 -352.5v-770h181v-111h-312zM232.998 381c0 -91.333 29.167 -164 87.5 -218s128.833 -81 211.5 -81
c146 0 252.167 55.5 318.5 166.5s99.5 253.5 99.5 427.5h-270c-298 0 -447 -98.333 -447 -295z" />
    <glyph glyph-name="b" unicode="b" horiz-adv-x="1454" 
d="M45 0v111h201v1679h-201v111h336v-852h4c36.667 88.667 93.334 159.167 170.001 211.5s160.667 78.5 252 78.5c124 0 227.333 -27.667 310 -83s143.167 -133 181.5 -233s57.5 -218.333 57.5 -355c0 -207.333 -46.333 -375.333 -139 -504s-229.334 -193 -410.001 -193
c-98 0 -180.833 22.833 -248.5 68.5s-125.5 117.167 -173.5 214.5h-4v-254h-336zM381 643c0 -161.333 35.001 -295.167 105.001 -401.5s174.333 -159.5 313 -159.5c141.333 0 244.833 59.167 310.5 177.5s98.5 262.5 98.5 432.5c0 158 -35.333 287 -106 387
s-174.334 150 -311.001 150c-136 0 -238.333 -58.333 -307 -175s-103 -253.667 -103 -411z" />
    <glyph glyph-name="c" unicode="c" horiz-adv-x="1307" 
d="M1184 1307l0.000976562 -479.998h-103c-8 121.333 -46.667 218.666 -116 291.999s-160.333 110 -273 110c-83.333 0 -157 -24.5 -221 -73.5s-112.833 -114.5 -146.5 -196.5s-50.5 -172.333 -50.5 -271c0 -166 35.667 -308.5 107 -427.5s175 -178.5 311 -178.5
c100 0 185.333 33.333 256 100s111 153.334 121 260.001h127c0 -104 -26.167 -191.667 -78.5 -263s-118.833 -123.833 -199.5 -157.5s-161.334 -50.5 -242.001 -50.5c-118 0 -218.333 33.667 -301 101s-144.667 154.666 -186 261.999s-62 220 -62 338
c0 192 49 351.167 147 477.5s232 189.5 402 189.5c83.333 0 161 -18.333 233 -55s122.667 -89.334 152 -158.001h8v181h115z" />
    <glyph glyph-name="d" unicode="d" horiz-adv-x="1454" 
d="M229 668c0 -174 34 -315.168 102 -423.501s176 -162.5 324 -162.5c268 0 402 199.333 402 598c0 162.667 -33 294.834 -99 396.501s-169.667 152.5 -311 152.5c-139.333 0 -243.833 -53.5 -313.5 -160.5s-104.5 -240.5 -104.5 -400.5zM1057 -0.000976562v253.999h-8
c-35.333 -86.667 -90 -155.5 -164 -206.5s-154.667 -76.5 -242 -76.5c-187.333 0 -327.666 63.333 -420.999 190s-140 295.667 -140 507c0 128.667 21.333 243.667 64 345s106.167 181 190.5 239s185.166 87 302.499 87c88.667 0 170.667 -23.167 246 -69.5
s130 -113.166 164 -200.499h8v721h-209v111h340v-1790h196v-111h-327z" />
    <glyph glyph-name="e" unicode="e" horiz-adv-x="1307" 
d="M1217 627h-971.004c0 -164 36.667 -295.833 110 -395.5s181.333 -149.5 324 -149.5c96.667 0 181.334 27.5 254.001 82.5s117.667 133.833 135 236.5h127c-7.33301 -134 -62.166 -239.167 -164.499 -315.5s-216.833 -114.5 -343.5 -114.5
c-192 0 -338.333 60.667 -439 182s-151 298.333 -151 531c0 191.333 49.333 348.333 148 471s239.334 184 422.001 184s319.834 -63.333 411.501 -190s137.5 -300.667 137.5 -522zM245.996 737l823.001 0.000976562c-2 146 -38.833 264.5 -110.5 355.5
s-172.834 136.5 -303.501 136.5c-119.333 0 -215.833 -46.833 -289.5 -140.5s-113.5 -210.834 -119.5 -351.501z" />
    <glyph glyph-name="f" unicode="f" horiz-adv-x="725" 
d="M57 0v111h213v1089h-213v107h213v143c0 319.333 128.333 479 385 479c42 0 85.667 -6.66699 131 -20v-127c-53.333 13.333 -97 20 -131 20c-101.333 0 -169 -29.5 -203 -88.5s-51 -146.833 -51 -263.5v-143h287v-107h-287v-1089h246v-111h-590z" />
    <glyph glyph-name="g" unicode="g" horiz-adv-x="1454" 
d="M1409 1307l-0.000976562 -106.999h-205v-1094c0 -135.333 -17.167 -248.166 -51.5 -338.499s-91.333 -158.833 -171 -205.5s-185.5 -70 -317.5 -70c-129.333 0 -243 30.667 -341 92s-147 159 -147 293h135c24.667 -182.667 146.334 -274 365.001 -274
c105.333 0 187.5 22.667 246.5 68s99.5 108.666 121.5 189.999s33 181 33 299v123h-8c-86.667 -178 -230 -267 -430 -267c-160 0 -290.167 62.667 -390.5 188s-150.5 280 -150.5 464c0 124 19.833 236.667 59.5 338s100 182.166 181 242.499s179.833 90.5 296.5 90.5
c210 0 354.667 -87.333 434 -262h8v230h332zM245.999 696.001c0 -164 36.5 -299.833 109.5 -407.5s177.167 -161.5 312.5 -161.5c144 0 248.167 54 312.5 162s96.5 243.667 96.5 407c0 154.667 -35.667 282.167 -107 382.5s-172 150.5 -302 150.5
c-88.667 0 -165 -25.167 -229 -75.5s-112.167 -116.5 -144.5 -198.5s-48.5 -168.333 -48.5 -259z" />
    <glyph glyph-name="h" unicode="h" horiz-adv-x="1454" 
d="M57 0v111.001h209v1679h-209v111h340v-795h4c36 74.667 86.833 132.167 152.5 172.5s137.834 60.5 216.501 60.5c181.333 0 297.666 -50 348.999 -150s77 -239.667 77 -419v-102v-557h193v-111h-537v111h209v557c0 137.333 -5.5 241.666 -16.5 312.999
s-38.167 127 -81.5 167s-110.333 60 -201 60c-243.333 0 -365 -180 -365 -540v-557h209v-111h-549z" />
    <glyph glyph-name="i" unicode="i" horiz-adv-x="725" 
d="M66 0v111h262v1089h-262v107h393v-1196h213v-111h-606zM459 1831v-201h-160v201h160z" />
    <glyph glyph-name="j" unicode="j" horiz-adv-x="582" 
d="M381 1307v-1201v-176c0 -140.667 -17.667 -248.834 -53 -324.501s-110.666 -113.5 -225.999 -113.5c-32.667 0 -84.334 5.33301 -155.001 16v115c46.667 -13.333 93 -20 139 -20c68.667 0 112.5 24.833 131.5 74.5s28.5 136.834 28.5 261.501v1261h-226v107h361z
M381 1831v-201h-164v201h164z" />
    <glyph glyph-name="k" unicode="k" horiz-adv-x="1307" 
d="M41 0v111h205v1679h-205v111h340v-1266l598 565h-197v107h467v-107h-106l-398 -381l402 -708h123v-111h-443v111h160l-348 614l-258 -238v-376h188v-111h-528z" />
    <glyph glyph-name="l" unicode="l" horiz-adv-x="582" 
d="M37 0v111h196v1679h-196v111h328v-1790h180v-111h-508z" />
    <glyph glyph-name="m" unicode="m" horiz-adv-x="2179" 
d="M57 0l0.000976562 111.003h209v1089h-209v107h340v-222h4c32 78 80.5 139.833 145.5 185.5s139.5 68.5 223.5 68.5c94 0 171.167 -17.833 231.5 -53.5s108.833 -100.834 145.5 -195.501c86 166 204.667 249 356 249c167.333 0 280.166 -47.833 338.499 -143.5
s87.5 -234.834 87.5 -417.501v-667h189v-111h-533v111h209v647c0 149.333 -19.5 261.666 -58.5 336.999s-121.833 113 -248.5 113c-114 0 -197.167 -43.667 -249.5 -131s-78.5 -193.666 -78.5 -318.999v-647h213v-111h-549v111h209v647
c0 97.333 -5.83301 177.166 -17.5 239.499s-38.667 113 -81 152s-106.5 58.5 -192.5 58.5c-213.333 0 -328 -150 -344 -450v-647h209v-111h-549z" />
    <glyph glyph-name="n" unicode="n" horiz-adv-x="1454" 
d="M57 0v111.001h209v1089h-209v107h340v-201h4c36 74.667 86.833 132.167 152.5 172.5s137.834 60.5 216.501 60.5c181.333 0 297.666 -50 348.999 -150s77 -239.667 77 -419v-102v-557h193v-111h-537v111h209v557c0 137.333 -5.5 241.666 -16.5 312.999
s-38.167 127 -81.5 167s-110.333 60 -201 60c-243.333 0 -365 -180 -365 -540v-557h209v-111h-549z" />
    <glyph glyph-name="o" unicode="o" horiz-adv-x="1307" 
d="M94 655c0 100.667 12.999 193.332 38.999 277.999s63.667 157.334 113 218.001s108.166 107.167 176.499 139.5s144.5 48.5 228.5 48.5c114.667 0 214.334 -28.333 299.001 -85s149.5 -136.5 194.5 -239.5s67.5 -222.833 67.5 -359.5s-22.667 -256.5 -68 -359.5
s-110.166 -182.833 -194.499 -239.5s-183.833 -85 -298.5 -85c-112 0 -210 28.333 -294 85s-148.833 137 -194.5 241s-68.5 223.333 -68.5 358zM237.999 654.998c0 -212.667 44.833 -361.332 134.5 -445.999s182.5 -127 278.5 -127c98.667 0 193 42.167 283 126.5
s135 233.166 135 446.499c0 212 -44.833 360.667 -134.5 446s-184.167 128 -283.5 128c-96 0 -188.833 -42.833 -278.5 -128.5s-134.5 -234.167 -134.5 -445.5z" />
    <glyph glyph-name="p" unicode="p" horiz-adv-x="1454" 
d="M45 -479l0.000976562 109.998h221v1569h-221v107h352v-275h4c106 204.667 248 307 426 307c171.333 0 300.166 -62.667 386.499 -188s129.5 -290.666 129.5 -495.999c0 -114.667 -19.333 -224.167 -58 -328.5s-97 -189.666 -175 -255.999s-172.333 -99.5 -283 -99.5
c-186 0 -328 97 -426 291h-4v-631h221v-110h-573zM397.001 642.998c0 -147.333 33.499 -277.668 100.499 -391.001s164.833 -170 293.5 -170c91.333 0 167.333 26.833 228 80.5s105.334 124.667 134.001 213s43 181.5 43 279.5c0 98.667 -15 191.834 -45 279.501
s-75.5 158.667 -136.5 213s-135.5 81.5 -223.5 81.5c-130 0 -228.167 -59.333 -294.5 -178s-99.5 -254.667 -99.5 -408z" />
    <glyph glyph-name="q" unicode="q" horiz-adv-x="1454" 
d="M1384 1307l0.000976562 -107.001h-225v-1569h225v-110h-577v110h225v631h-8c-92.667 -194 -233.334 -291 -422.001 -291c-164.667 0 -291.834 68.833 -381.501 206.5s-134.5 296.834 -134.5 477.501c0 131.333 18.667 249 56 353s95.333 185.167 174 243.5
s175.334 87.5 290.001 87.5c178.667 0 318 -102.333 418 -307h8v275h352zM1032 654.999c0 148 -33.3311 280.667 -99.998 398s-164.334 176 -293.001 176c-88.667 0 -163.5 -27 -224.5 -81s-106.833 -125 -137.5 -213s-46.667 -181.333 -48 -280
c0 -156.667 34.5 -291.334 103.5 -404.001s171.167 -169 306.5 -169c127.333 0 224.666 57.333 291.999 172s101 248.334 101 401.001z" />
    <glyph glyph-name="r" unicode="r" horiz-adv-x="868" 
d="M53 0v111h193v1089h-193v107h328v-258h4c19.333 87.333 57.333 157.5 114 210.5s123.667 79.5 201 79.5c41.333 0 73 -2.66699 95 -8v-131c-44 5.33301 -75.667 8 -95 8c-212.667 0 -319 -180 -319 -540v-557h258v-111h-586z" />
    <glyph glyph-name="s" unicode="s" horiz-adv-x="1159" 
d="M86 0l-0.00292969 450.998h115c10 -113.333 49.167 -203.166 117.5 -269.499s153.166 -99.5 254.499 -99.5c92.667 0 171.167 23.5 235.5 70.5s96.5 119.167 96.5 216.5c0 86.667 -30.167 143 -90.5 169s-158.166 50.333 -293.499 73s-237.5 57.5 -306.5 104.5
s-103.5 130.833 -103.5 251.5c0 84 23.167 153.833 69.5 209.5s105 96.667 176 123s141.833 39.5 212.5 39.5c73.333 0 141.333 -15.667 204 -47s109.334 -78.333 140.001 -141h9v156h114v-422h-114c-15.333 229.333 -137 344 -365 344c-80.667 0 -150.667 -22.5 -210 -67.5
s-89 -109.833 -89 -194.5c0 -79.333 29.333 -131.666 88 -156.999s156.334 -51 293.001 -77s239.834 -63.833 309.501 -113.5s104.5 -134.5 104.5 -254.5c0 -130 -45.333 -228.167 -136 -294.5s-198.334 -99.5 -323.001 -99.5c-173.333 0 -301.666 75.333 -384.999 226h-8
v-197h-115z" />
    <glyph glyph-name="t" unicode="t" horiz-adv-x="868" 
d="M774 1307v-106.999h-389v-774c0 -110.667 9.33301 -193 28 -247s60 -81 124 -81c67.333 0 112.833 24.5 136.5 73.5s35.5 124.167 35.5 225.5h127c0 -140.667 -23 -246.834 -69 -318.501s-125.667 -107.5 -239 -107.5c-182.667 0 -274 135.333 -274 406v823h-221v107h221
v311l131 57v-368h389z" />
    <glyph glyph-name="u" unicode="u" horiz-adv-x="1454" 
d="M1163 1307v-1196h213v-111h-344v217h-4c-74.667 -164 -199 -246 -373 -246c-150 0 -257 36.333 -321 109s-96 197.667 -96 375v745h-197v107h328v-844c2 -130 27.5 -223.333 76.5 -280s131.167 -85 246.5 -85c105.333 0 187.333 40.167 246 120.5s90 179.5 94 297.5v684
h-233v107h364z" />
    <glyph glyph-name="v" unicode="v" horiz-adv-x="1307" 
d="M1270 1307v-107h-119l-418 -1200h-176l-418 1200h-119v107h455v-107h-184l352 -1057l369 1057h-185v107h443z" />
    <glyph glyph-name="w" unicode="w" horiz-adv-x="2036" 
d="M2011 1307v-107h-119l-364 -1200h-172l-328 1180h-4l-344 -1180h-172l-348 1200h-135v107h483v-107h-209l299 -1073h4l340 1180h172l340 -1180h4l303 1073h-209v107h459z" />
    <glyph glyph-name="x" unicode="x" horiz-adv-x="1307" 
d="M16 0v111h115l434 561l-405 528h-119v107h475v-107h-184l315 -418l324 418h-185v107h467v-107h-123l-397 -528l426 -561h123v-111h-471v111h184l-348 454l-344 -454h184v-111h-471z" />
    <glyph glyph-name="y" unicode="y" horiz-adv-x="1307" 
d="M1270 1307v-107.001h-103l-458 -1253c-43.333 -120 -75.666 -204.667 -96.999 -254s-54 -95.166 -98 -137.499s-99.333 -63.5 -166 -63.5c-82 0 -143.333 2.66699 -184 8v115c49.333 -5.33301 95.666 -8 138.999 -8c69.333 0 123 32.167 161 96.5
s77.333 161.833 118 292.5l-447 1204h-102v107h450v-107h-200l368 -1028l377 1028h-197v107h439z" />
    <glyph glyph-name="z" unicode="z" horiz-adv-x="1159" 
d="M127 0v127l737 1073h-590v-287h-131v394h873v-127l-742 -1069h631v286h131v-397h-909z" />
    <glyph glyph-name="braceleft" unicode="{" horiz-adv-x="868" 
d="M766 2101v-110h-123c-70.667 0 -106 -93 -106 -279v-381c0 -134 -21.5 -237.667 -64.5 -311s-83.167 -121 -120.5 -143v-5c39.333 -28 80 -77.833 122 -149.5s63 -174.5 63 -308.5v-377c0 -183.333 35.333 -275 106 -275h123v-110h-160c-133.333 0 -200 110.667 -200 332
v381c0 302.667 -63 454 -189 454v111c126 0 189 150 189 450v385c0 224 77.667 336 233 336h127z" />
    <glyph glyph-name="bar" unicode="|" horiz-adv-x="582" 
d="M225 -29v1958h131v-1958h-131z" />
    <glyph glyph-name="braceright" unicode="}" horiz-adv-x="868" 
d="M102 -348v110.001h127c34 0 60.333 25.333 79 76s28 117 28 199v381c0 136 21.833 241.667 65.5 317s83.167 121 118.5 137v5c-39.333 26 -79.833 75.667 -121.5 149s-62.5 177.666 -62.5 312.999v373c0 186 -35.667 279 -107 279h-127v110h160c134 0 201 -112 201 -336
v-376c0 -306 62.667 -459 188 -459v-111c-125.333 0 -188 -150 -188 -450v-385c0 -221.333 -75 -332 -225 -332h-136z" />
    <glyph glyph-name="asciitilde" unicode="~" horiz-adv-x="1569" 
d="M1294 918l95 -103c-52 -81.333 -101.333 -143.333 -148 -186s-106.667 -64 -180 -64c-75.333 0 -164 31.333 -266 94c-104 68.667 -203.667 103 -299 103c-92 0 -166 -69.667 -222 -209l-94 102c80 169.333 189.333 254 328 254c67.333 0 164.333 -31.333 291 -94
l105 -53c30.667 -15.333 59.667 -28 87 -38s52 -15 74 -15c44 0 82.667 17.667 116 53s71 87.333 113 156z" />
    <glyph glyph-name="delete" horiz-adv-x="2048" 
 />
    <glyph glyph-name="exclamdown" unicode="&#xa1;" horiz-adv-x="868" 
d="M363 -599l36 1475h111l37 -1475h-184zM539 1302v-180h-164v180h164z" />
    <glyph glyph-name="cent" unicode="&#xa2;" horiz-adv-x="1270" 
d="M238 -537l163.998 564c-21.333 12.667 -42 27 -62 43c-80 65.333 -140 150 -180 254s-60 213.333 -60 328c0 186 47.5 340.333 142.5 463s224.833 184 389.5 184c46.667 0 91.334 -6.33301 134.001 -19l169 579l95 -28l-172 -586c70 -35.333 119.333 -86.333 148 -153h8
v176h111v-466h-100c-7.33301 118 -44.666 212.333 -111.999 283c-24.667 26 -52.334 47.333 -83.001 64l-307 -1049c38 -13.333 79.667 -20 125 -20c96.667 0 179.334 32.333 248.001 97s108 148.667 118 252h123c0 -101.333 -25.333 -186.5 -76 -255.5
s-115.167 -119.833 -193.5 -152.5s-156.833 -49 -235.5 -49c-50 0 -97 6.33301 -141 19l-163 -557zM647.998 1192c-80.667 0 -152.167 -23.668 -214.5 -71.001s-109.833 -110.833 -142.5 -190.5s-49 -167.5 -49 -263.5c0 -160.667 34.667 -299 104 -415
c26 -43.333 56 -78.666 90 -105.999l302 1036c-28.667 6.66699 -58.667 10 -90 10z" />
    <glyph glyph-name="sterling" unicode="&#xa3;" horiz-adv-x="1500" 
d="M374 131l809.999 0.00390625l156 207l121 -18l-237 -320h-1143l3 130c77.333 2 135 22.667 173 62c54.667 56 97.167 134.167 127.5 234.5s45.5 193.166 45.5 278.499c0 69.333 -6.33301 129.666 -19 180.999h-337v131h304c-59.333 184 -89 315.667 -89 395
c0 126.667 45.333 236 136 328s198.667 138 324 138c203.333 -6 347.833 -43.833 433.5 -113.5s118.834 -103.5 99.501 -101.5l-96 -88c-82.667 107.333 -227 164 -433 170c-90.667 0 -168.5 -32.833 -233.5 -98.5s-97.5 -143.834 -97.5 -234.501
c0 -36.667 4.66699 -77.334 14 -122.001l77 -273h368v-131h-339c10.667 -64 16 -127.333 16 -190c0 -99.333 -15.333 -198.833 -46 -298.5s-76.667 -188.5 -138 -266.5z" />
    <glyph glyph-name="currency" unicode="&#xa4;" horiz-adv-x="1500" 
d="M1346 433l-106 -108.999l-179 180c-104 -70.667 -210 -106 -318 -106c-106 0 -210.667 35.333 -314 106l-181 -180l-104 109l180 176c-70 104 -105 208.667 -105 314c0 104.667 35 209.667 105 315l-180 174l104 109l181 -179c98 70 202.667 105 314 105
c110.667 0 216.667 -35 318 -105l179 179l106 -109l-180 -174c68.667 -103.333 103 -208.333 103 -315s-34.333 -211.334 -103 -314.001zM1117 923.001c0 102.667 -36.5 190.5 -109.5 263.5s-161.167 109.5 -264.5 109.5c-106.667 0 -195.667 -36.667 -267 -110
s-107 -161 -107 -263c0 -105.333 36.667 -194.333 110 -267s161.333 -109 264 -109c89.333 0 174 33.333 254 100s120 158.667 120 276z" />
    <glyph glyph-name="yen" unicode="&#xa5;" horiz-adv-x="1500" 
d="M117 546h578v209l-9 16h-570v118h503l-468 832h-115v123h497v-123h-231l465 -823l480 823h-229v123h500v-123h-115l-486 -832h466v-118h-535l-10 -16v-209h546v-118h-546v-305h282v-123h-703v123h278v305h-578v118z" />
    <glyph glyph-name="brokenbar" unicode="&#xa6;" horiz-adv-x="700" 
d="M421 923h-140v974h140v-974zM421 -568h-140v975h140v-975z" />
    <glyph glyph-name="section" unicode="&#xa7;" horiz-adv-x="1500" 
d="M1044 191c139.333 -103.333 209.002 -223.331 209.002 -359.998c0 -128.667 -49.833 -227.334 -149.5 -296.001s-212.834 -103 -339.501 -103c-308 0 -487 138.333 -537 415l175 25c48.667 -203.333 168.667 -305 360 -305c80 0 153.167 22.333 219.5 67
s99.5 109.667 99.5 195c0 42.667 -16.833 87 -50.5 133s-74.834 87.333 -123.501 124s-161 109 -337 217c-162.667 99.333 -275 186 -337 260s-93 158 -93 252c0 196.667 98.667 326 296 388c-113.333 103.333 -170 207.333 -170 312c0 114 43.333 206.167 130 276.5
s192.667 105.5 318 105.5c296 0 466.667 -131.667 512 -395l-182 -18c-38 188.667 -141 283 -309 283c-71.333 0 -139.5 -21.167 -204.5 -63.5s-97.5 -101.166 -97.5 -176.499c0 -42.667 15.5 -86.834 46.5 -132.501s66.833 -83.667 107.5 -114
s144.334 -96.166 311.001 -197.499c128 -78.667 218.167 -138.334 270.5 -179.001s94.333 -89.167 126 -145.5s47.5 -116.5 47.5 -180.5c0 -120.667 -41.667 -211.334 -125 -272.001c-24.667 -24.667 -82.334 -63 -173.001 -115zM524.002 1137
c-156.667 -82.667 -235 -181 -235 -295c0 -75.333 27.167 -140.666 81.5 -195.999s142.833 -119.333 265.5 -192c112 -66 212.333 -129.333 301 -190c165.333 79.333 248 169.666 248 270.999c0 113.333 -126.667 249.333 -380 408c-138 86 -231.667 150.667 -281 194z" />
    <glyph glyph-name="dieresis" unicode="&#xa8;" horiz-adv-x="898" 
d="M786 1495h-181v204h181v-204zM295 1495h-182v204h182v-204z" />
    <glyph glyph-name="copyright" unicode="&#xa9;" horiz-adv-x="1976" 
d="M1009 1476c124 0 217.999 -48.002 281.999 -144.002v128h87v-388h-89c-4 54.667 -12.333 102.167 -25 142.5s-30.834 73.5 -54.501 99.5s-53.167 45.333 -88.5 58s-77.666 19 -126.999 19c-113.333 0 -197 -45.667 -251 -137c-54.667 -93.333 -82 -204.666 -82 -333.999
c0 -123.333 29.667 -227.666 89 -312.999c58 -84.667 138.333 -127 241 -127c82.667 0 148.834 25 198.501 75s78.5 121 86.5 213h106c-10.667 -126 -51.667 -220 -123 -282c-72 -60.667 -163.333 -91 -274 -91c-135.333 0 -240.333 51 -315 153
c-74 103.333 -111 230 -111 380v3c0 79.333 9.5 152.333 28.5 219s47 124.167 84 172.5s83.167 86 138.5 113s119 40.5 191 40.5h8zM1849 939.998c0 234.667 -83.668 434.667 -251.001 600s-367 248 -599 248c-235.333 0 -435.666 -82.667 -600.999 -248
c-164.667 -164.667 -247 -364.667 -247 -600c0 -226.667 80.667 -424.667 242 -594c162 -170 364 -255 606 -255c238 0 439 82 603 246c164.667 164.667 247 365.667 247 603zM1962 939.998c0 -166.667 -43.001 -328.331 -129.001 -484.998
c-87.333 -156 -207 -274.667 -359 -356c-152.667 -81.333 -311 -122 -475 -122s-322.333 41.333 -475 124c-152 83.333 -271.667 202.333 -359 357c-85.333 155.333 -128 316 -128 482c0 169.333 44 331.666 132 486.999c44.667 78 97.334 146.5 158.001 205.5
s129.667 108.5 207 148.5c78 41.333 155.333 71.833 232 91.5s154.334 29.5 233.001 29.5c83.333 0 165.166 -10.667 245.499 -32s159.5 -54 237.5 -98c156 -86.667 275 -206.334 357 -359.001c82 -152 123 -309.667 123 -473z" />
    <glyph glyph-name="ordfeminine" unicode="&#xaa;" horiz-adv-x="991" 
d="M236 1258c0 -56.667 18.667 -103 56 -139h-1c37.333 -34.667 83 -52 137 -52c94 0 162.333 35.333 205 106c43.333 72 65.333 163.667 66 275h-172c-194 0 -291 -63.333 -291 -190zM699 997v153.999c-23.333 -53.333 -59.333 -94.666 -108 -123.999
c-28 -17.333 -57 -29.833 -87 -37.5s-61.333 -11.5 -94 -11.5c-86 0 -155.333 24 -208 72c-54 50 -81 121.333 -81 214c0 76.667 22.333 136 67 178s96.667 68.333 156 79c30 5.33301 61.167 9.33301 93.5 12s66.5 4 102.5 4h159v55c0 150 -71.333 225 -214 225
c-130.667 0 -205 -63 -223 -189h-114c24.667 185.333 134 278 328 278c54 0 101.5 -5.66699 142.5 -17s75.167 -29.5 102.5 -54.5s47.833 -57.5 61.5 -97.5s20.5 -88.333 20.5 -145v-505h120v-90h-224z" />
    <glyph glyph-name="guillemotleft" unicode="&#xab;" horiz-adv-x="1500" 
d="M1247 95h-126l-388 567l388 568h126l-327 -568zM735 1230l-324 -567l320 -568h-118l-398 567l398 568h122z" />
    <glyph glyph-name="logicalnot" unicode="&#xac;" horiz-adv-x="1575" 
d="M1391 559h-157v576h-1052v155h1209v-731z" />
    <glyph glyph-name="minus" unicode="&#xad;" horiz-adv-x="898" 
d="M780 580h-662v173h662v-173z" />
    <glyph glyph-name="registered" unicode="&#xae;" horiz-adv-x="1976" 
d="M815 1351l0.000976562 -400h145c36.667 0 70.667 2.33301 102 7s58.5 14.167 81.5 28.5s41.167 35.333 54.5 63s20.333 65.167 21 112.5c0 56 -10.833 98 -32.5 126s-49.5 45.667 -83.5 53h1c-18.667 3.33301 -39.834 5.83301 -63.501 7.5s-50.5 2.5 -80.5 2.5h-145z
M600.001 417v81.999h126v852h-126v83h343c36.667 0 70.834 -1.33301 102.501 -4s60.167 -6.66699 85.5 -12c26 -5.33301 50.167 -14.666 72.5 -27.999s42.5 -29.666 60.5 -48.999c36.667 -40.667 55 -100.334 55 -179.001c0 -87.333 -18 -149.333 -54 -186
c-32 -34 -76 -58 -132 -72c12.667 -4 23.334 -8 32.001 -12s15.667 -7.66699 21 -11c6.66699 -4.66699 13.167 -11 19.5 -19s12.166 -18.333 17.499 -31c6 -12.667 12.833 -29.834 20.5 -51.501s16.167 -48.167 25.5 -79.5l61 -201h75v-82h-154l-88 302
c-7.33301 25.333 -14 46.5 -20 63.5s-11.667 29.833 -17 38.5c-8.66699 16.667 -24.334 28.334 -47.001 35.001c-24 8 -62.333 12 -115 12h-149v-369h127v-82h-342zM1849 939.999c0 234.667 -83.668 434.667 -251.001 600s-367 248 -599 248
c-235.333 0 -435.666 -82.667 -600.999 -248c-164.667 -164.667 -247 -364.667 -247 -600c0 -226.667 80.667 -424.667 242 -594c162 -170 364 -255 606 -255c238 0 439 82 603 246c164.667 164.667 247 365.667 247 603zM1962 939.999
c0 -166.667 -43.001 -328.331 -129.001 -484.998c-87.333 -156 -207 -274.667 -359 -356c-152.667 -81.333 -311 -122 -475 -122s-322.333 41.333 -475 124c-152 83.333 -271.667 202.333 -359 357c-85.333 155.333 -128 316 -128 482c0 169.333 44 331.666 132 486.999
c44.667 78 97.334 146.5 158.001 205.5s129.667 108.5 207 148.5c78 41.333 155.333 71.833 232 91.5s154.334 29.5 233.001 29.5c83.333 0 165.166 -10.667 245.499 -32s159.5 -54 237.5 -98c156 -86.667 275 -206.334 357 -359.001c82 -152 123 -309.667 123 -473z" />
    <glyph glyph-name="macron" unicode="&#xaf;" horiz-adv-x="1490" 
d="M1498 2062h-1506v103h1506v-103z" />
    <glyph glyph-name="degree" unicode="&#xb0;" horiz-adv-x="1073" 
d="M786 1565c0 66 -24.3301 123.001 -72.9971 171.001c-48 50.667 -105.667 76 -173 76s-125.333 -24.333 -174 -73c-48.667 -48 -73 -105.333 -73 -172c0 -34.667 5.66699 -66.334 17 -95.001s29.666 -55.667 54.999 -81c25.333 -23.333 52.166 -41.333 80.499 -54
s59.166 -19 92.499 -19c66.667 0 125 24.333 175 73c24.667 24.667 43 51.667 55 81s18 60.333 18 93zM878.003 1565c0 -92 -33.668 -171.667 -101.001 -239s-147 -101 -239 -101c-90.667 0 -170 33.333 -238 100c-66 67.333 -99 147.333 -99 240
c0 91.333 32.667 170.333 98 237c33.333 34 69.833 59.167 109.5 75.5s82.834 24.5 129.501 24.5c92 0 171.667 -33 239 -99s101 -145.333 101 -238z" />
    <glyph glyph-name="plusminus" unicode="&#xb1;" horiz-adv-x="1480" 
d="M1344 873h-525v-532h-157v532h-526v153h526v526h157v-526h525v-153zM1344 0h-1208v155h1208v-155z" />
    <glyph glyph-name="twosuperior" unicode="&#xb2;" horiz-adv-x="797" 
d="M76 953l-0.00195312 116.005l233 207l108 100c30 27.333 53.667 49.666 71 66.999c32.667 32.667 61.667 66.667 87 102c23.333 33.333 35 64.666 35 93.999c0 118.667 -67 178 -201 178c-61.333 0 -110.333 -20 -147 -60c-35.333 -38 -54 -91.667 -56 -161h-106
c0 46 8 87.5 24 124.5s38.333 68.667 67 95s62.334 46.666 101.001 60.999s81 21.5 127 21.5c86.667 0 157.334 -21.667 212.001 -65c55.333 -42 83 -103 83 -183c0 -52.667 -19.667 -106.334 -59 -161.001c-18.667 -26.667 -44.667 -57.834 -78 -93.501
s-74 -75.5 -122 -119.5l-270 -242h452v146h97v-227h-658z" />
    <glyph glyph-name="threesuperior" unicode="&#xb3;" horiz-adv-x="797" 
d="M366 1464c172.667 0 258.999 59.332 258.999 177.999c0 56 -18.167 98.333 -54.5 127s-85.833 43 -148.5 43c-58.667 0 -106.667 -16.667 -144 -50c-37.333 -35.333 -57 -84.333 -59 -147h-103c0.666992 45.333 8.66699 85.333 24 120s38 63.667 68 87
c59.333 47.333 134 71 224 71c95.333 0 169.333 -22.5 222 -67.5s79 -111.167 79 -198.5c0 -56 -21.667 -103 -65 -141c-32 -30 -70.333 -51.667 -115 -65c126 -31.333 189 -106.333 189 -225c0 -84 -31.667 -147.333 -95 -190c-61.333 -43.333 -138.333 -65 -231 -65
s-167 24.333 -223 73c-58 48.667 -87 119.334 -87 212.001h104c0 -136 75.333 -204 226 -204c54.667 0 101.334 17.333 140.001 52v-1c39.333 34 59 76.667 59 128c0 120.667 -89.667 181 -269 181v82z" />
    <glyph glyph-name="acute" unicode="&#xb4;" horiz-adv-x="898" 
d="M403 1495h-135l237 389h205z" />
    <glyph glyph-name="mu" unicode="&#xb5;" horiz-adv-x="1554" 
d="M1308 0h-146.002v244c-85.333 -138.667 -158.166 -219.5 -218.499 -242.5s-115.5 -34.5 -165.5 -34.5s-100.667 8.66699 -152 26s-123 87.666 -215 210.999v-739h-167v1868h167v-561c0 -237.333 15 -388.166 45 -452.499s72.333 -114.333 127 -150
s116.334 -53.5 185.001 -53.5c75.333 0 142.5 20 201.5 60s102.333 92.833 130 158.5s41.5 210.167 41.5 433.5v565h167v-1333z" />
    <glyph glyph-name="paragraph" unicode="&#xb6;" horiz-adv-x="1449" 
d="M1424 1703h-188.001v-2238h-159v2238h-359v-2238h-152v1373c-159.333 0 -287.666 46 -384.999 138s-146 214 -146 366c0 140 44 262 132 366s240.667 156 458 156h799v-161z" />
    <glyph glyph-name="periodcentered" unicode="&#xb7;" horiz-adv-x="749" 
d="M481 815h-204v203h204v-203z" />
    <glyph glyph-name="periodcentered" unicode="&#x2219;" horiz-adv-x="749" 
d="M481 815h-204v203h204v-203z" />
    <glyph glyph-name="cedilla" unicode="&#xb8;" horiz-adv-x="898" 
d="M177 -543l9 91l91 -4c164.667 0 247 44 247 132c0 20 -7.33301 41.333 -22 64c-34.667 36 -92.667 54 -174 54l50 171h107l-41 -140c74 0 131.667 -16.167 173 -48.5s62 -70.5 62 -114.5c0 -46.667 -26 -94.5 -78 -143.5s-142.333 -73.5 -271 -73.5c-56 0 -107 4 -153 12
z" />
    <glyph glyph-name="onesuperior" unicode="&#xb9;" horiz-adv-x="797" 
d="M250 961v82h182v728c-32.667 -26.667 -67 -52.167 -103 -76.5s-74 -47.833 -114 -70.5v108c38 25.333 74.667 51 110 77s70 53 104 81h122v-847h174v-82h-475z" />
    <glyph glyph-name="ordmasculine" unicode="&#xba;" horiz-adv-x="991" 
d="M218 1434c0 -141.333 28.999 -239.333 86.999 -294h-1c60 -56 121 -84 183 -84c64 0 125.667 28 185 84c58.667 54 88 152 88 294c0 141.333 -29.667 239.333 -89 294c-57.333 56.667 -118.666 85 -183.999 85c-62 0 -122.667 -28.333 -182 -85
c-58 -56 -87 -154 -87 -294zM103.999 1437c0 68 9 130.668 27 188.001s43.5 106.5 76.5 147.5s72.667 73 119 96s97.5 34.5 153.5 34.5h7c59.333 0 112.666 -11.167 159.999 -33.5s87.666 -54 120.999 -95s59 -90.333 77 -148s27 -121.834 27 -192.501s-9 -134.667 -27 -192
s-43.667 -106.5 -77 -147.5s-73.666 -72.667 -120.999 -95s-100.666 -33.5 -159.999 -33.5h-9c-56 0 -107 11.333 -153 34s-85.333 54.5 -118 95.5s-58 89.5 -76 145.5s-27 117.667 -27 185v11z" />
    <glyph glyph-name="guillemotright" unicode="&#xbb;" horiz-adv-x="1500" 
d="M1273 662l-396 -567h-120l324 568l-326 567h122zM757 662l-390 -567h-125l330 567l-330 568h125z" />
    <glyph glyph-name="onequarter" unicode="&#xbc;" horiz-adv-x="1968" 
d="M1543 347v469l-399 -469h399zM178 961v82h182v728c-32.667 -26.667 -67 -52.167 -103 -76.5s-74 -47.833 -114 -70.5v108c38 25.333 74.667 51 110 77s70 53 104 81h122v-847h174v-82h-475zM1729 1870l-1406 -1979h-139l1406 1979h139zM1383 0v80h160v183h-505v106
l488 568h130v-590h150v-84h-150v-183h147v-80h-420z" />
    <glyph glyph-name="onehalf" unicode="&#xbd;" horiz-adv-x="1968" 
d="M178 961v82h182v728c-32.667 -26.667 -67 -52.167 -103 -76.5s-74 -47.833 -114 -70.5v108c38 25.333 74.667 51 110 77s70 53 104 81h122v-847h174v-82h-475zM1729 1870l-1406 -1979h-139l1406 1979h139zM1160 0l-0.00195312 116.005l233 207l108 100
c30 27.333 53.667 49.666 71 66.999c32.667 32.667 61.667 66.667 87 102c23.333 33.333 35 64.666 35 93.999c0 118.667 -67 178 -201 178c-61.333 0 -110.333 -20 -147 -60c-35.333 -38 -54 -91.667 -56 -161h-106c0 46 8 87.5 24 124.5s38.333 68.667 67 95
s62.334 46.666 101.001 60.999s81 21.5 127 21.5c86.667 0 157.334 -21.667 212.001 -65c55.333 -42 83 -103 83 -183c0 -52.667 -19.667 -106.334 -59 -161.001c-18.667 -26.667 -44.667 -57.834 -78 -93.501s-74 -75.5 -122 -119.5l-270 -242h452v146h97v-227h-658z" />
    <glyph glyph-name="threequarters" unicode="&#xbe;" horiz-adv-x="1968" 
d="M1543 347v469l-399 -469h399zM1729 1870l-1406 -1979h-139l1406 1979h139zM1383 0v80h160v183h-505v106l488 568h130v-590h150v-84h-150v-183h147v-80h-420zM366 1464c172.667 0 258.999 59.332 258.999 177.999c0 56 -18.167 98.333 -54.5 127s-85.833 43 -148.5 43
c-58.667 0 -106.667 -16.667 -144 -50c-37.333 -35.333 -57 -84.333 -59 -147h-103c0.666992 45.333 8.66699 85.333 24 120s38 63.667 68 87c59.333 47.333 134 71 224 71c95.333 0 169.333 -22.5 222 -67.5s79 -111.167 79 -198.5c0 -56 -21.667 -103 -65 -141
c-32 -30 -70.333 -51.667 -115 -65c126 -31.333 189 -106.333 189 -225c0 -84 -31.667 -147.333 -95 -190c-61.333 -43.333 -138.333 -65 -231 -65s-167 24.333 -223 73c-58 48.667 -87 119.334 -87 212.001h104c0 -136 75.333 -204 226 -204
c54.667 0 101.334 17.333 140.001 52v-1c39.333 34 59 76.667 59 128c0 120.667 -89.667 181 -269 181v82z" />
    <glyph glyph-name="questiondown" unicode="&#xbf;" horiz-adv-x="1159" 
d="M949 -104h143c-12.667 -346.667 -179.334 -520 -500.001 -520c-143.333 0 -261.666 42 -354.999 126s-140 210 -140 378c0 102.667 20.167 185.167 60.5 247.5s101.833 134.166 184.5 215.499s145.667 161.333 189 240s65 182.667 65 312h148
c0 -153.333 -21 -273.5 -63 -360.5s-105.5 -171.167 -190.5 -252.5s-143.833 -143.833 -176.5 -187.5s-49 -111.167 -49 -202.5c0 -118 29.167 -212.333 87.5 -283s143.833 -106 256.5 -106c103.333 0 184.5 35.333 243.5 106s91.167 166.334 96.5 287.001zM752 1305v-180
h-164v180h164z" />
    <glyph glyph-name="Agrave" unicode="&#xc0;" horiz-adv-x="1892" 
d="M1286 799l-348 950l-352 -950h700zM33 0v127h155l664 1774h192l648 -1774h155v-127h-581v127h262l-197 541h-794l-197 -541h262v-127h-569zM590 2478h205l237 -389h-135z" />
    <glyph glyph-name="Aacute" unicode="&#xc1;" horiz-adv-x="1892" 
d="M1286 799l-348 950l-352 -950h700zM33 0v127h155l664 1774h192l648 -1774h155v-127h-581v127h262l-197 541h-794l-197 -541h262v-127h-569zM1006 2089h-135l237 389h205z" />
    <glyph glyph-name="Acircumflex" unicode="&#xc2;" horiz-adv-x="1892" 
d="M1286 799l-348 950l-352 -950h700zM33 0v127h155l664 1774h192l648 -1774h155v-127h-581v127h262l-197 541h-794l-197 -541h262v-127h-569zM1294 2089h-180l-166 218l-166 -218h-184l233 303h221z" />
    <glyph glyph-name="Atilde" unicode="&#xc3;" horiz-adv-x="1892" 
d="M1286 799l-348 950l-352 -950h700zM33 0v127h155l664 1774h192l648 -1774h155v-127h-581v127h262l-197 541h-794l-197 -541h262v-127h-569zM1352 2326c0 -68 -21.666 -124.167 -64.999 -168.5s-96.333 -66.5 -159 -66.5c-46 0 -113.667 23.333 -203 70
c-60.667 34.667 -108.667 52 -144 52c-75.333 0 -119.333 -42 -132 -126h-110c5.33301 74 30.166 131.667 74.499 173s97.5 62 159.5 62c48 0 117.333 -22.667 208 -68c54.667 -28 100.667 -42 138 -42c68 0 109.333 38 124 114h109z" />
    <glyph glyph-name="Adieresis" unicode="&#xc4;" horiz-adv-x="1892" 
d="M1286 799l-348 950l-352 -950h700zM33 0v127h155l664 1774h192l648 -1774h155v-127h-581v127h262l-197 541h-794l-197 -541h262v-127h-569zM1282 2089h-181v204h181v-204zM791 2089h-182v204h182v-204z" />
    <glyph glyph-name="Aring" unicode="&#xc5;" horiz-adv-x="1892" 
d="M1286 799l-348 950l-352 -950h700zM33 0v127h155l664 1774h192l648 -1774h155v-127h-581v127h262l-197 541h-794l-197 -541h262v-127h-569zM816 2274c0 -33.333 11.666 -64.333 34.999 -93v1c12.667 -14.667 26.834 -25.667 42.501 -33s34.167 -11 55.5 -11
c36 0 67 13.667 93 41c26 26.667 39 58.334 39 95c0 33.333 -12 65 -36 95c-22 30 -54 45 -96 45c-41.333 0 -74 -15 -98 -45v1c-23.333 -30.667 -35 -62.667 -35 -96zM739.999 2277c0 64.667 21.999 115.667 65.999 153c44.667 36.667 92.334 55 143.001 55
c52.667 0 100.334 -17.333 143.001 -52h-1c44 -34 66 -86 66 -156c0 -65.333 -22.333 -116.333 -67 -153c-43.333 -36.667 -90.333 -55 -141 -55s-98.334 18.333 -143.001 55c-44 36.667 -66 87.667 -66 153z" />
    <glyph glyph-name="AE" unicode="&#xc6;" horiz-adv-x="2697" 
d="M1119 0v127h234v541h-792l-257 -541h262l-14 -127h-568l14 127h154l861 1774h1458v-594h-131v467h-840v-750h443v283h131v-713h-131v303h-443v-770h856v467h131v-594h-1368zM625 799h728v950h-271z" />
    <glyph glyph-name="Ccedilla" unicode="&#xc7;" horiz-adv-x="1749" 
d="M1466 1642l0.000976562 259.001h131v-684h-135c-12 201.333 -61 349.166 -147 443.499s-221.333 141.5 -406 141.5c-217.333 0 -376.666 -85.833 -477.999 -257.5s-152 -379.167 -152 -622.5c0 -230 55.167 -424.833 165.5 -584.5s262.5 -239.5 456.5 -239.5
c153.333 0 277.166 46.167 371.499 138.5s149.5 222.5 165.5 390.5h164c-17.333 -216.667 -90.333 -380.167 -219 -490.5s-293.334 -165.5 -494.001 -165.5c-244 0 -433.333 92.5 -568 277.5s-202 414.833 -202 689.5c0 194.667 30.5 367 91.5 517s152.5 266.5 274.5 349.5
s271.667 124.5 449 124.5c236 0 410.667 -95.667 524 -287h8zM623.001 -542.999l9 91l91 -4c164.667 0 247 44 247 132c0 20 -7.33301 41.333 -22 64c-34.667 36 -92.667 54 -174 54l50 171h107l-41 -140c74 0 131.667 -16.167 173 -48.5s62 -70.5 62 -114.5
c0 -46.667 -26 -94.5 -78 -143.5s-142.333 -73.5 -271 -73.5c-56 0 -107 4 -153 12z" />
    <glyph glyph-name="Egrave" unicode="&#xc8;" horiz-adv-x="1602" 
d="M53 0v127h234v1647h-234v127h1352v-594h-131v467h-840v-750h443v283h131v-713h-131v303h-443v-770h856v467h131v-594h-1368zM504 2478h205l237 -389h-135z" />
    <glyph glyph-name="Eacute" unicode="&#xc9;" horiz-adv-x="1602" 
d="M53 0v127h234v1647h-234v127h1352v-594h-131v467h-840v-750h443v283h131v-713h-131v303h-443v-770h856v467h131v-594h-1368zM810 2089h-135l237 389h205z" />
    <glyph glyph-name="Ecircumflex" unicode="&#xca;" horiz-adv-x="1602" 
d="M53 0v127h234v1647h-234v127h1352v-594h-131v467h-840v-750h443v283h131v-713h-131v303h-443v-770h856v467h131v-594h-1368zM1149 2089h-180l-166 218l-166 -218h-184l233 303h221z" />
    <glyph glyph-name="Edieresis" unicode="&#xcb;" horiz-adv-x="1602" 
d="M53 0v127h234v1647h-234v127h1352v-594h-131v467h-840v-750h443v283h131v-713h-131v303h-443v-770h856v467h131v-594h-1368zM1137 2089h-181v204h181v-204zM646 2089h-182v204h182v-204z" />
    <glyph glyph-name="Igrave" unicode="&#xcc;" horiz-adv-x="725" 
d="M53 0v127h238v1647h-238v127h619v-127h-234v-1647h234v-127h-619zM55 2478h205l237 -389h-135z" />
    <glyph glyph-name="Iacute" unicode="&#xcd;" horiz-adv-x="725" 
d="M53 0v127h238v1647h-238v127h619v-127h-234v-1647h234v-127h-619zM343 2089h-135l237 389h205z" />
    <glyph glyph-name="Icircumflex" unicode="&#xce;" horiz-adv-x="725" 
d="M53 0v127h238v1647h-238v127h619v-127h-234v-1647h234v-127h-619zM712 2089h-180l-166 218l-166 -218h-184l233 303h221z" />
    <glyph glyph-name="Idieresis" unicode="&#xcf;" horiz-adv-x="725" 
d="M53 0v127h238v1647h-238v127h619v-127h-234v-1647h234v-127h-619zM700 2089h-181v204h181v-204zM209 2089h-182v204h182v-204z" />
    <glyph glyph-name="Eth" unicode="&#xd0;" horiz-adv-x="1749" 
d="M61 0v127.001h238v779h-269v110h269v758h-238v127h615c297.333 0 528.666 -72.667 693.999 -218s248 -381.333 248 -708c0 -348.667 -79.167 -598.334 -237.5 -749.001s-393.166 -226 -704.499 -226h-615zM446 1774l-0.000976562 -758h546v-110h-546v-779h201
c178.667 0 327.334 27.5 446.001 82.5s208.5 145.167 269.5 270.5s91.5 290.333 91.5 495c0 288 -68.5 493.167 -205.5 615.5s-337.5 183.5 -601.5 183.5h-201z" />
    <glyph glyph-name="Ntilde" unicode="&#xd1;" horiz-adv-x="1892" 
d="M61 0v127h222v1647h-222v127h451l942 -1774h4v1647h-262v127h631v-127h-221v-1774h-226l-946 1774h-8v-1647h262v-127h-627zM1352 2326c0 -68 -21.666 -124.167 -64.999 -168.5s-96.333 -66.5 -159 -66.5c-46 0 -113.667 23.333 -203 70
c-60.667 34.667 -108.667 52 -144 52c-75.333 0 -119.333 -42 -132 -126h-110c5.33301 74 30.166 131.667 74.499 173s97.5 62 159.5 62c48 0 117.333 -22.667 208 -68c54.667 -28 100.667 -42 138 -42c68 0 109.333 38 124 114h109z" />
    <glyph glyph-name="Ograve" unicode="&#xd2;" horiz-adv-x="1892" 
d="M119 967c0 296.667 70.834 531.168 212.501 703.501s345.167 258.5 610.5 258.5s470.333 -86.5 615 -259.5s217 -407.167 217 -702.5c0 -196.667 -32.333 -370.334 -97 -521.001s-159.667 -267.5 -285 -350.5s-275.333 -124.5 -450 -124.5
c-176 0 -325.833 41.5 -449.5 124.5s-216.834 199.5 -279.501 349.5s-94 324 -94 522zM279.001 967.001c0 -173.333 23.167 -324.833 69.5 -454.5s119.166 -231.167 218.499 -304.5s224.333 -110 375 -110c222.667 0 389.667 79.167 501 237.5s167 368.833 167 631.5
c0 153.333 -24.333 293.5 -73 420.5s-123.167 227.833 -223.5 302.5s-224.166 112 -371.499 112c-150 0 -274.833 -37.5 -374.5 -112.5s-172.667 -175.167 -219 -300.5s-69.5 -266 -69.5 -422zM596.001 2478h205l237 -389h-135z" />
    <glyph glyph-name="Oacute" unicode="&#xd3;" horiz-adv-x="1892" 
d="M119 967c0 296.667 70.834 531.168 212.501 703.501s345.167 258.5 610.5 258.5s470.333 -86.5 615 -259.5s217 -407.167 217 -702.5c0 -196.667 -32.333 -370.334 -97 -521.001s-159.667 -267.5 -285 -350.5s-275.333 -124.5 -450 -124.5
c-176 0 -325.833 41.5 -449.5 124.5s-216.834 199.5 -279.501 349.5s-94 324 -94 522zM279.001 967.001c0 -173.333 23.167 -324.833 69.5 -454.5s119.166 -231.167 218.499 -304.5s224.333 -110 375 -110c222.667 0 389.667 79.167 501 237.5s167 368.833 167 631.5
c0 153.333 -24.333 293.5 -73 420.5s-123.167 227.833 -223.5 302.5s-224.166 112 -371.499 112c-150 0 -274.833 -37.5 -374.5 -112.5s-172.667 -175.167 -219 -300.5s-69.5 -266 -69.5 -422zM1067 2089h-135l237 389h205z" />
    <glyph glyph-name="Ocircumflex" unicode="&#xd4;" horiz-adv-x="1892" 
d="M119 967c0 296.667 70.834 531.168 212.501 703.501s345.167 258.5 610.5 258.5s470.333 -86.5 615 -259.5s217 -407.167 217 -702.5c0 -196.667 -32.333 -370.334 -97 -521.001s-159.667 -267.5 -285 -350.5s-275.333 -124.5 -450 -124.5
c-176 0 -325.833 41.5 -449.5 124.5s-216.834 199.5 -279.501 349.5s-94 324 -94 522zM279.001 967.001c0 -173.333 23.167 -324.833 69.5 -454.5s119.166 -231.167 218.499 -304.5s224.333 -110 375 -110c222.667 0 389.667 79.167 501 237.5s167 368.833 167 631.5
c0 153.333 -24.333 293.5 -73 420.5s-123.167 227.833 -223.5 302.5s-224.166 112 -371.499 112c-150 0 -274.833 -37.5 -374.5 -112.5s-172.667 -175.167 -219 -300.5s-69.5 -266 -69.5 -422zM1294 2089h-180l-166 218l-166 -218h-184l233 303h221z" />
    <glyph glyph-name="Otilde" unicode="&#xd5;" horiz-adv-x="1892" 
d="M119 967c0 296.667 70.834 531.168 212.501 703.501s345.167 258.5 610.5 258.5s470.333 -86.5 615 -259.5s217 -407.167 217 -702.5c0 -196.667 -32.333 -370.334 -97 -521.001s-159.667 -267.5 -285 -350.5s-275.333 -124.5 -450 -124.5
c-176 0 -325.833 41.5 -449.5 124.5s-216.834 199.5 -279.501 349.5s-94 324 -94 522zM279.001 967.001c0 -173.333 23.167 -324.833 69.5 -454.5s119.166 -231.167 218.499 -304.5s224.333 -110 375 -110c222.667 0 389.667 79.167 501 237.5s167 368.833 167 631.5
c0 153.333 -24.333 293.5 -73 420.5s-123.167 227.833 -223.5 302.5s-224.166 112 -371.499 112c-150 0 -274.833 -37.5 -374.5 -112.5s-172.667 -175.167 -219 -300.5s-69.5 -266 -69.5 -422zM1352 2326c0 -68 -21.666 -124.167 -64.999 -168.5s-96.333 -66.5 -159 -66.5
c-46 0 -113.667 23.333 -203 70c-60.667 34.667 -108.667 52 -144 52c-75.333 0 -119.333 -42 -132 -126h-110c5.33301 74 30.166 131.667 74.499 173s97.5 62 159.5 62c48 0 117.333 -22.667 208 -68c54.667 -28 100.667 -42 138 -42c68 0 109.333 38 124 114h109z" />
    <glyph glyph-name="Odieresis" unicode="&#xd6;" horiz-adv-x="1892" 
d="M119 967c0 296.667 70.834 531.168 212.501 703.501s345.167 258.5 610.5 258.5s470.333 -86.5 615 -259.5s217 -407.167 217 -702.5c0 -196.667 -32.333 -370.334 -97 -521.001s-159.667 -267.5 -285 -350.5s-275.333 -124.5 -450 -124.5
c-176 0 -325.833 41.5 -449.5 124.5s-216.834 199.5 -279.501 349.5s-94 324 -94 522zM279.001 967.001c0 -173.333 23.167 -324.833 69.5 -454.5s119.166 -231.167 218.499 -304.5s224.333 -110 375 -110c222.667 0 389.667 79.167 501 237.5s167 368.833 167 631.5
c0 153.333 -24.333 293.5 -73 420.5s-123.167 227.833 -223.5 302.5s-224.166 112 -371.499 112c-150 0 -274.833 -37.5 -374.5 -112.5s-172.667 -175.167 -219 -300.5s-69.5 -266 -69.5 -422zM1282 2089h-181v204h181v-204zM791.001 2089h-182v204h182v-204z" />
    <glyph glyph-name="multiply" unicode="&#xd7;" horiz-adv-x="1575" 
d="M1313 508l-114 -112l-411 413l-417 -415l-111 112l415 414l-415 413l114 114l416 -413l409 411l110 -112l-409 -412z" />
    <glyph glyph-name="Oslash" unicode="&#xd8;" horiz-adv-x="1892" 
d="M255 -74l-97 79.001l187 221c-53.333 62.667 -97.333 135.667 -132 219c-62.667 150 -94 324 -94 522c0 296.667 70.833 531.167 212.5 703.5s345.167 258.5 610.5 258.5s470.333 -86.667 615 -260c1.33301 -2 3 -4 5 -6l184 217l79 -78l-196 -234
c96.667 -160 145 -360.333 145 -601c0 -196.667 -32.333 -370.334 -97 -521.001s-159.667 -267.5 -285 -350.5s-275.333 -124.5 -450 -124.5c-176 0 -326 41.333 -450 124c-20 14 -39.667 28.667 -59 44zM279 967.001c0 -173.333 23 -325 69 -455
c24 -66 54.333 -124.667 91 -176l1018 1203c-39.333 58.667 -87.333 109 -144 151c-100 74.667 -223.667 112 -371 112c-150 0 -274.833 -37.5 -374.5 -112.5s-172.667 -175.167 -219 -300.5s-69.5 -266 -69.5 -422zM567 208.001c99.333 -73.333 224.333 -110 375 -110
c222.667 0 389.667 79.167 501 237.5s167 368.833 167 631.5c0 153.333 -24.333 293.333 -73 420c-6 16 -12.667 31.667 -20 47l-995 -1190c14 -12.667 29 -24.667 45 -36z" />
    <glyph glyph-name="Ugrave" unicode="&#xd9;" horiz-adv-x="1745" 
d="M25 1774v127h630v-127h-270v-959c0 -146.667 13.333 -272.167 40 -376.5s75.5 -187.166 146.5 -248.499s169.833 -92 296.5 -92c188 0 317 62.667 387 188s105 301.666 105 528.999v959h-275v127h631v-127h-209v-959c0 -273.333 -46.667 -482.333 -140 -627
s-259.666 -217 -498.999 -217c-234.667 0 -398.334 72.333 -491.001 217s-139 353.667 -139 627v959h-213zM522 2478h205l237 -389h-135z" />
    <glyph glyph-name="Uacute" unicode="&#xda;" horiz-adv-x="1745" 
d="M25 1774v127h630v-127h-270v-959c0 -146.667 13.333 -272.167 40 -376.5s75.5 -187.166 146.5 -248.499s169.833 -92 296.5 -92c188 0 317 62.667 387 188s105 301.666 105 528.999v959h-275v127h631v-127h-209v-959c0 -273.333 -46.667 -482.333 -140 -627
s-259.666 -217 -498.999 -217c-234.667 0 -398.334 72.333 -491.001 217s-139 353.667 -139 627v959h-213zM853 2089h-135l237 389h205z" />
    <glyph glyph-name="Ucircumflex" unicode="&#xdb;" horiz-adv-x="1745" 
d="M25 1774v127h630v-127h-270v-959c0 -146.667 13.333 -272.167 40 -376.5s75.5 -187.166 146.5 -248.499s169.833 -92 296.5 -92c188 0 317 62.667 387 188s105 301.666 105 528.999v959h-275v127h631v-127h-209v-959c0 -273.333 -46.667 -482.333 -140 -627
s-259.666 -217 -498.999 -217c-234.667 0 -398.334 72.333 -491.001 217s-139 353.667 -139 627v959h-213zM1220 2089h-180l-166 218l-166 -218h-184l233 303h221z" />
    <glyph glyph-name="Udieresis" unicode="&#xdc;" horiz-adv-x="1745" 
d="M25 1774v127h630v-127h-270v-959c0 -146.667 13.333 -272.167 40 -376.5s75.5 -187.166 146.5 -248.499s169.833 -92 296.5 -92c188 0 317 62.667 387 188s105 301.666 105 528.999v959h-275v127h631v-127h-209v-959c0 -273.333 -46.667 -482.333 -140 -627
s-259.666 -217 -498.999 -217c-234.667 0 -398.334 72.333 -491.001 217s-139 353.667 -139 627v959h-213zM1209 2089h-181v204h181v-204zM718 2089h-182v204h182v-204z" />
    <glyph glyph-name="Yacute" unicode="&#xdd;" horiz-adv-x="1602" 
d="M430 0v127h287v651l-561 996h-119v127h512v-127h-238l480 -848l495 848h-237v127h516v-127h-119l-582 -996v-651h291v-127h-725zM902 2089h-135l237 389h205z" />
    <glyph glyph-name="Thorn" unicode="&#xde;" horiz-adv-x="1454" 
d="M20 0v127h234v1763h155v-418h267c130 0 243.667 -12.333 341 -37s177.333 -77.167 240 -157.5s94 -198.5 94 -354.5c0 -194 -55.167 -334.667 -165.5 -422s-248.833 -131 -415.5 -131h-369v-243h315v-127h-696zM401 1345l-0.000976562 -848h275
c144.667 0 266.834 25 366.501 75s149.5 167 149.5 351c0 170 -43.167 282.833 -129.5 338.5s-201.833 83.5 -346.5 83.5h-315z" />
    <glyph glyph-name="germandbls" unicode="&#xdf;" horiz-adv-x="1634" 
d="M53 0l-0.000976562 126.999h169v1155c0 410 176.333 615 529 615c114 0 218.167 -29 312.5 -87s141.5 -144 141.5 -258c0 -78 -34.333 -178 -103 -300c-64.667 -112.667 -97 -191 -97 -235c0 -68.667 68 -148.334 204 -239.001c114.667 -76 194.834 -141 240.501 -195
s68.5 -122.333 68.5 -205c0 -119.333 -43.333 -217.666 -130 -294.999s-192.667 -116 -318 -116c-194 0 -338.333 89.333 -433 268l145 68c75.333 -137.333 170 -206 284 -206c66 0 128.333 23.167 187 69.5s88 110.5 88 192.5c0 51.333 -12.667 94.166 -38 128.499
s-81.333 81.5 -168 141.5c-142 98 -228.5 171 -259.5 219s-46.5 92.667 -46.5 134c0 56.667 33 141.334 99 254.001c76 130.667 114 228.334 114 293.001c0 70 -29.167 127.167 -87.5 171.5s-127.833 66.5 -208.5 66.5c-236 0 -354 -164.667 -354 -494v-1146h171v-127h-510z
" />
    <glyph glyph-name="agrave" unicode="&#xe0;" horiz-adv-x="1307" 
d="M950 0l-0.00195312 262h-8c-33.333 -96 -90.333 -168.5 -171 -217.5s-169.667 -73.5 -267 -73.5c-124 0 -224.667 35.5 -302 106.5s-116 174.833 -116 311.5c0 112.667 31.833 198.5 95.5 257.5s139.334 97 227.001 114s184.834 25.5 291.501 25.5h250v95
c0 232 -110.667 348 -332 348c-202 0 -316.667 -94.333 -344 -283h-147c34 262 193.667 393 479 393c158 0 276.667 -35.167 356 -105.5s119 -187.833 119 -352.5v-770h181v-111h-312zM232.998 381c0 -91.333 29.167 -164 87.5 -218s128.833 -81 211.5 -81
c146 0 252.167 55.5 318.5 166.5s99.5 253.5 99.5 427.5h-270c-298 0 -447 -98.333 -447 -295zM297.998 1884h205l237 -389h-135z" />
    <glyph glyph-name="aacute" unicode="&#xe1;" horiz-adv-x="1307" 
d="M950 0l-0.00195312 262h-8c-33.333 -96 -90.333 -168.5 -171 -217.5s-169.667 -73.5 -267 -73.5c-124 0 -224.667 35.5 -302 106.5s-116 174.833 -116 311.5c0 112.667 31.833 198.5 95.5 257.5s139.334 97 227.001 114s184.834 25.5 291.501 25.5h250v95
c0 232 -110.667 348 -332 348c-202 0 -316.667 -94.333 -344 -283h-147c34 262 193.667 393 479 393c158 0 276.667 -35.167 356 -105.5s119 -187.833 119 -352.5v-770h181v-111h-312zM232.998 381c0 -91.333 29.167 -164 87.5 -218s128.833 -81 211.5 -81
c146 0 252.167 55.5 318.5 166.5s99.5 253.5 99.5 427.5h-270c-298 0 -447 -98.333 -447 -295zM698.998 1495h-135l237 389h205z" />
    <glyph glyph-name="acircumflex" unicode="&#xe2;" horiz-adv-x="1307" 
d="M950 0l-0.00195312 262h-8c-33.333 -96 -90.333 -168.5 -171 -217.5s-169.667 -73.5 -267 -73.5c-124 0 -224.667 35.5 -302 106.5s-116 174.833 -116 311.5c0 112.667 31.833 198.5 95.5 257.5s139.334 97 227.001 114s184.834 25.5 291.501 25.5h250v95
c0 232 -110.667 348 -332 348c-202 0 -316.667 -94.333 -344 -283h-147c34 262 193.667 393 479 393c158 0 276.667 -35.167 356 -105.5s119 -187.833 119 -352.5v-770h181v-111h-312zM232.998 381c0 -91.333 29.167 -164 87.5 -218s128.833 -81 211.5 -81
c146 0 252.167 55.5 318.5 166.5s99.5 253.5 99.5 427.5h-270c-298 0 -447 -98.333 -447 -295zM1001 1495h-180l-166 218l-166 -218h-184l233 303h221z" />
    <glyph glyph-name="atilde" unicode="&#xe3;" horiz-adv-x="1307" 
d="M950 0l-0.00195312 262h-8c-33.333 -96 -90.333 -168.5 -171 -217.5s-169.667 -73.5 -267 -73.5c-124 0 -224.667 35.5 -302 106.5s-116 174.833 -116 311.5c0 112.667 31.833 198.5 95.5 257.5s139.334 97 227.001 114s184.834 25.5 291.501 25.5h250v95
c0 232 -110.667 348 -332 348c-202 0 -316.667 -94.333 -344 -283h-147c34 262 193.667 393 479 393c158 0 276.667 -35.167 356 -105.5s119 -187.833 119 -352.5v-770h181v-111h-312zM232.998 381c0 -91.333 29.167 -164 87.5 -218s128.833 -81 211.5 -81
c146 0 252.167 55.5 318.5 166.5s99.5 253.5 99.5 427.5h-270c-298 0 -447 -98.333 -447 -295zM1060 1732c0 -68 -21.666 -124.167 -64.999 -168.5s-96.333 -66.5 -159 -66.5c-46 0 -113.667 23.333 -203 70c-60.667 34.667 -108.667 52 -144 52
c-75.333 0 -119.333 -42 -132 -126h-110c5.33301 74 30.166 131.667 74.499 173s97.5 62 159.5 62c48 0 117.333 -22.667 208 -68c54.667 -28 100.667 -42 138 -42c68 0 109.333 38 124 114h109z" />
    <glyph glyph-name="adieresis" unicode="&#xe4;" horiz-adv-x="1307" 
d="M950 0l-0.00195312 262h-8c-33.333 -96 -90.333 -168.5 -171 -217.5s-169.667 -73.5 -267 -73.5c-124 0 -224.667 35.5 -302 106.5s-116 174.833 -116 311.5c0 112.667 31.833 198.5 95.5 257.5s139.334 97 227.001 114s184.834 25.5 291.501 25.5h250v95
c0 232 -110.667 348 -332 348c-202 0 -316.667 -94.333 -344 -283h-147c34 262 193.667 393 479 393c158 0 276.667 -35.167 356 -105.5s119 -187.833 119 -352.5v-770h181v-111h-312zM232.998 381c0 -91.333 29.167 -164 87.5 -218s128.833 -81 211.5 -81
c146 0 252.167 55.5 318.5 166.5s99.5 253.5 99.5 427.5h-270c-298 0 -447 -98.333 -447 -295zM989.998 1495h-181v204h181v-204zM498.998 1495h-182v204h182v-204z" />
    <glyph glyph-name="aring" unicode="&#xe5;" horiz-adv-x="1307" 
d="M950 0l-0.00195312 262h-8c-33.333 -96 -90.333 -168.5 -171 -217.5s-169.667 -73.5 -267 -73.5c-124 0 -224.667 35.5 -302 106.5s-116 174.833 -116 311.5c0 112.667 31.833 198.5 95.5 257.5s139.334 97 227.001 114s184.834 25.5 291.501 25.5h250v95
c0 232 -110.667 348 -332 348c-202 0 -316.667 -94.333 -344 -283h-147c34 262 193.667 393 479 393c158 0 276.667 -35.167 356 -105.5s119 -187.833 119 -352.5v-770h181v-111h-312zM232.998 381c0 -91.333 29.167 -164 87.5 -218s128.833 -81 211.5 -81
c146 0 252.167 55.5 318.5 166.5s99.5 253.5 99.5 427.5h-270c-298 0 -447 -98.333 -447 -295zM522.998 1680c0 -33.333 11.666 -64.334 34.999 -93.001v1c12.667 -14.667 26.834 -25.667 42.501 -33s34.167 -11 55.5 -11c36 0 67 13.667 93 41
c26 26.667 39 58.334 39 95.001c0 33.333 -12 65 -36 95c-22 30 -54 45 -96 45c-41.333 0 -74 -15 -98 -45v1c-23.333 -30.667 -35 -62.667 -35 -96zM446.997 1683c0 64.667 21.999 115.667 65.999 153c44.667 36.667 92.334 55 143.001 55
c52.667 0 100.334 -17.333 143.001 -52h-1c44 -34 66 -86 66 -156c0 -65.333 -22.333 -116.333 -67 -153c-43.333 -36.667 -90.333 -55 -141 -55s-98.334 18.333 -143.001 55c-44 36.667 -66 87.667 -66 153z" />
    <glyph glyph-name="ae" unicode="&#xe6;" horiz-adv-x="2156" 
d="M2071 627l-971.006 0.000976562c0 -164 36.667 -295.833 110 -395.5s181.333 -149.5 324 -149.5c96.667 0 181.334 27.5 254.001 82.5s117.667 133.833 135 236.5h127c-7.33301 -134 -62.166 -239.167 -164.499 -315.5s-216.833 -114.5 -343.5 -114.5
c-192 0 -338.333 60.667 -439 182c-40 48 -72.333 105 -97 171c-66.667 -133.333 -141 -224.333 -223 -273c-88.667 -53.333 -181.667 -80 -279 -80c-124 0 -224.667 35.5 -302 106.5s-116 174.833 -116 311.5c0 112.667 31.833 198.5 95.5 257.5s139.334 97 227.001 114
s184.834 25.5 291.501 25.5h250v95c0 232 -110.667 348 -332 348c-202 0 -316.667 -94.333 -344 -283h-147c34 262 193.667 393 479 393c158 0 269.833 -29.333 335.5 -88s102.5 -113.334 110.5 -164.001c14.667 24 30.667 46.667 48 68
c98.667 122.667 239.334 184 422.001 184s319.834 -63.333 411.501 -190s137.5 -300.667 137.5 -522zM232.994 381.001c0 -91.333 29.167 -164 87.5 -218s128.833 -81 211.5 -81c146 0 252.167 55.5 318.5 166.5s99.5 253.5 99.5 427.5h-270c-298 0 -447 -98.333 -447 -295z
M1099.99 737.001l823.001 0.000976562c-2 146 -38.833 264.5 -110.5 355.5s-172.834 136.5 -303.501 136.5c-119.333 0 -215.833 -46.833 -289.5 -140.5s-113.5 -210.834 -119.5 -351.501z" />
    <glyph glyph-name="ccedilla" unicode="&#xe7;" horiz-adv-x="1307" 
d="M1184 1307l0.000976562 -479.998h-103c-8 121.333 -46.667 218.666 -116 291.999s-160.333 110 -273 110c-83.333 0 -157 -24.5 -221 -73.5s-112.833 -114.5 -146.5 -196.5s-50.5 -172.333 -50.5 -271c0 -166 35.667 -308.5 107 -427.5s175 -178.5 311 -178.5
c100 0 185.333 33.333 256 100s111 153.334 121 260.001h127c0 -104 -26.167 -191.667 -78.5 -263s-118.833 -123.833 -199.5 -157.5s-161.334 -50.5 -242.001 -50.5c-118 0 -218.333 33.667 -301 101s-144.667 154.666 -186 261.999s-62 220 -62 338
c0 192 49 351.167 147 477.5s232 189.5 402 189.5c83.333 0 161 -18.333 233 -55s122.667 -89.334 152 -158.001h8v181h115zM402.001 -542.998l9 91l91 -4c164.667 0 247 44 247 132c0 20 -7.33301 41.333 -22 64c-34.667 36 -92.667 54 -174 54l50 171h107l-41 -140
c74 0 131.667 -16.167 173 -48.5s62 -70.5 62 -114.5c0 -46.667 -26 -94.5 -78 -143.5s-142.333 -73.5 -271 -73.5c-56 0 -107 4 -153 12z" />
    <glyph glyph-name="egrave" unicode="&#xe8;" horiz-adv-x="1307" 
d="M1217 627h-971.004c0 -164 36.667 -295.833 110 -395.5s181.333 -149.5 324 -149.5c96.667 0 181.334 27.5 254.001 82.5s117.667 133.833 135 236.5h127c-7.33301 -134 -62.166 -239.167 -164.499 -315.5s-216.833 -114.5 -343.5 -114.5
c-192 0 -338.333 60.667 -439 182s-151 298.333 -151 531c0 191.333 49.333 348.333 148 471s239.334 184 422.001 184s319.834 -63.333 411.501 -190s137.5 -300.667 137.5 -522zM245.996 737l823.001 0.000976562c-2 146 -38.833 264.5 -110.5 355.5
s-172.834 136.5 -303.501 136.5c-119.333 0 -215.833 -46.833 -289.5 -140.5s-113.5 -210.834 -119.5 -351.501zM346.997 1884h205l237 -389h-135z" />
    <glyph glyph-name="eacute" unicode="&#xe9;" horiz-adv-x="1307" 
d="M1217 627h-971.004c0 -164 36.667 -295.833 110 -395.5s181.333 -149.5 324 -149.5c96.667 0 181.334 27.5 254.001 82.5s117.667 133.833 135 236.5h127c-7.33301 -134 -62.166 -239.167 -164.499 -315.5s-216.833 -114.5 -343.5 -114.5
c-192 0 -338.333 60.667 -439 182s-151 298.333 -151 531c0 191.333 49.333 348.333 148 471s239.334 184 422.001 184s319.834 -63.333 411.501 -190s137.5 -300.667 137.5 -522zM245.996 737l823.001 0.000976562c-2 146 -38.833 264.5 -110.5 355.5
s-172.834 136.5 -303.501 136.5c-119.333 0 -215.833 -46.833 -289.5 -140.5s-113.5 -210.834 -119.5 -351.501zM712.997 1495h-135l237 389h205z" />
    <glyph glyph-name="ecircumflex" unicode="&#xea;" horiz-adv-x="1307" 
d="M1217 627h-971.004c0 -164 36.667 -295.833 110 -395.5s181.333 -149.5 324 -149.5c96.667 0 181.334 27.5 254.001 82.5s117.667 133.833 135 236.5h127c-7.33301 -134 -62.166 -239.167 -164.499 -315.5s-216.833 -114.5 -343.5 -114.5
c-192 0 -338.333 60.667 -439 182s-151 298.333 -151 531c0 191.333 49.333 348.333 148 471s239.334 184 422.001 184s319.834 -63.333 411.501 -190s137.5 -300.667 137.5 -522zM245.996 737l823.001 0.000976562c-2 146 -38.833 264.5 -110.5 355.5
s-172.834 136.5 -303.501 136.5c-119.333 0 -215.833 -46.833 -289.5 -140.5s-113.5 -210.834 -119.5 -351.501zM1035 1495h-180l-166 218l-166 -218h-184l233 303h221z" />
    <glyph glyph-name="edieresis" unicode="&#xeb;" horiz-adv-x="1307" 
d="M1217 627h-971.004c0 -164 36.667 -295.833 110 -395.5s181.333 -149.5 324 -149.5c96.667 0 181.334 27.5 254.001 82.5s117.667 133.833 135 236.5h127c-7.33301 -134 -62.166 -239.167 -164.499 -315.5s-216.833 -114.5 -343.5 -114.5
c-192 0 -338.333 60.667 -439 182s-151 298.333 -151 531c0 191.333 49.333 348.333 148 471s239.334 184 422.001 184s319.834 -63.333 411.501 -190s137.5 -300.667 137.5 -522zM245.996 737l823.001 0.000976562c-2 146 -38.833 264.5 -110.5 355.5
s-172.834 136.5 -303.501 136.5c-119.333 0 -215.833 -46.833 -289.5 -140.5s-113.5 -210.834 -119.5 -351.501zM1014 1495h-181v204h181v-204zM522.997 1495h-182v204h182v-204z" />
    <glyph glyph-name="igrave" unicode="&#xec;" horiz-adv-x="725" 
d="M66 0v111h262v1089h-262v107h393v-1196h213v-111h-606zM141 1884h205l237 -389h-135z" />
    <glyph glyph-name="iacute" unicode="&#xed;" horiz-adv-x="725" 
d="M66 0v111h262v1089h-262v107h393v-1196h213v-111h-606zM278 1495h-135l237 389h205z" />
    <glyph glyph-name="icircumflex" unicode="&#xee;" horiz-adv-x="725" 
d="M66 0v111h262v1089h-262v107h393v-1196h213v-111h-606zM712 1495h-180l-166 218l-166 -218h-184l233 303h221z" />
    <glyph glyph-name="idieresis" unicode="&#xef;" horiz-adv-x="725" 
d="M66 0v111h262v1089h-262v107h393v-1196h213v-111h-606zM700 1495h-181v204h181v-204zM209 1495h-182v204h182v-204z" />
    <glyph glyph-name="eth" unicode="&#xf0;" horiz-adv-x="1500" 
d="M1044 1211c-76.667 165.333 -160.335 297.668 -251.002 397.001l-355 -163l-31 74l330 151c-84 78 -160.333 142.667 -229 194h173c52.667 -40.667 109 -87.667 169 -141l271 130l33 -74l-236 -113c293.333 -337.333 440 -674.666 440 -1012
c0 -204.667 -55.167 -370.334 -165.5 -497.001s-260.166 -190 -449.499 -190c-192.667 0 -343 61.167 -451 183.5s-162 288.166 -162 497.499c0 205.333 49.333 370.833 148 496.5s236.334 188.5 413.001 188.5c86 0 203.667 -40.667 353 -122zM1178 663.002
c0 146 -36 274.667 -108 386s-184.333 167 -337 167c-146 0 -253.833 -55 -323.5 -165s-104.5 -246.333 -104.5 -409c0 -165.333 38 -297.833 114 -397.5s183.333 -149.5 322 -149.5c136.667 0 243.667 53 321 159s116 242.333 116 409z" />
    <glyph glyph-name="ntilde" unicode="&#xf1;" horiz-adv-x="1454" 
d="M57 0v111.001h209v1089h-209v107h340v-201h4c36 74.667 86.833 132.167 152.5 172.5s137.834 60.5 216.501 60.5c181.333 0 297.666 -50 348.999 -150s77 -239.667 77 -419v-102v-557h193v-111h-537v111h209v557c0 137.333 -5.5 241.666 -16.5 312.999
s-38.167 127 -81.5 167s-110.333 60 -201 60c-243.333 0 -365 -180 -365 -540v-557h209v-111h-549zM1133 1732c0 -68 -21.666 -124.167 -64.999 -168.5s-96.333 -66.5 -159 -66.5c-46 0 -113.667 23.333 -203 70c-60.667 34.667 -108.667 52 -144 52
c-75.333 0 -119.333 -42 -132 -126h-110c5.33301 74 30.166 131.667 74.499 173s97.5 62 159.5 62c48 0 117.333 -22.667 208 -68c54.667 -28 100.667 -42 138 -42c68 0 109.333 38 124 114h109z" />
    <glyph glyph-name="ograve" unicode="&#xf2;" horiz-adv-x="1307" 
d="M94 655c0 100.667 12.999 193.332 38.999 277.999s63.667 157.334 113 218.001s108.166 107.167 176.499 139.5s144.5 48.5 228.5 48.5c114.667 0 214.334 -28.333 299.001 -85s149.5 -136.5 194.5 -239.5s67.5 -222.833 67.5 -359.5s-22.667 -256.5 -68 -359.5
s-110.166 -182.833 -194.499 -239.5s-183.833 -85 -298.5 -85c-112 0 -210 28.333 -294 85s-148.833 137 -194.5 241s-68.5 223.333 -68.5 358zM237.999 654.998c0 -212.667 44.833 -361.332 134.5 -445.999s182.5 -127 278.5 -127c98.667 0 193 42.167 283 126.5
s135 233.166 135 446.499c0 212 -44.833 360.667 -134.5 446s-184.167 128 -283.5 128c-96 0 -188.833 -42.833 -278.5 -128.5s-134.5 -234.167 -134.5 -445.5zM327.999 1884h205l237 -389h-135z" />
    <glyph glyph-name="oacute" unicode="&#xf3;" horiz-adv-x="1307" 
d="M94 655c0 100.667 12.999 193.332 38.999 277.999s63.667 157.334 113 218.001s108.166 107.167 176.499 139.5s144.5 48.5 228.5 48.5c114.667 0 214.334 -28.333 299.001 -85s149.5 -136.5 194.5 -239.5s67.5 -222.833 67.5 -359.5s-22.667 -256.5 -68 -359.5
s-110.166 -182.833 -194.499 -239.5s-183.833 -85 -298.5 -85c-112 0 -210 28.333 -294 85s-148.833 137 -194.5 241s-68.5 223.333 -68.5 358zM237.999 654.998c0 -212.667 44.833 -361.332 134.5 -445.999s182.5 -127 278.5 -127c98.667 0 193 42.167 283 126.5
s135 233.166 135 446.499c0 212 -44.833 360.667 -134.5 446s-184.167 128 -283.5 128c-96 0 -188.833 -42.833 -278.5 -128.5s-134.5 -234.167 -134.5 -445.5zM729.999 1495h-135l237 389h205z" />
    <glyph glyph-name="ocircumflex" unicode="&#xf4;" horiz-adv-x="1307" 
d="M94 655c0 100.667 12.999 193.332 38.999 277.999s63.667 157.334 113 218.001s108.166 107.167 176.499 139.5s144.5 48.5 228.5 48.5c114.667 0 214.334 -28.333 299.001 -85s149.5 -136.5 194.5 -239.5s67.5 -222.833 67.5 -359.5s-22.667 -256.5 -68 -359.5
s-110.166 -182.833 -194.499 -239.5s-183.833 -85 -298.5 -85c-112 0 -210 28.333 -294 85s-148.833 137 -194.5 241s-68.5 223.333 -68.5 358zM237.999 654.998c0 -212.667 44.833 -361.332 134.5 -445.999s182.5 -127 278.5 -127c98.667 0 193 42.167 283 126.5
s135 233.166 135 446.499c0 212 -44.833 360.667 -134.5 446s-184.167 128 -283.5 128c-96 0 -188.833 -42.833 -278.5 -128.5s-134.5 -234.167 -134.5 -445.5zM1040 1495h-180l-166 218l-166 -218h-184l233 303h221z" />
    <glyph glyph-name="otilde" unicode="&#xf5;" horiz-adv-x="1307" 
d="M94 655c0 100.667 12.999 193.332 38.999 277.999s63.667 157.334 113 218.001s108.166 107.167 176.499 139.5s144.5 48.5 228.5 48.5c114.667 0 214.334 -28.333 299.001 -85s149.5 -136.5 194.5 -239.5s67.5 -222.833 67.5 -359.5s-22.667 -256.5 -68 -359.5
s-110.166 -182.833 -194.499 -239.5s-183.833 -85 -298.5 -85c-112 0 -210 28.333 -294 85s-148.833 137 -194.5 241s-68.5 223.333 -68.5 358zM237.999 654.998c0 -212.667 44.833 -361.332 134.5 -445.999s182.5 -127 278.5 -127c98.667 0 193 42.167 283 126.5
s135 233.166 135 446.499c0 212 -44.833 360.667 -134.5 446s-184.167 128 -283.5 128c-96 0 -188.833 -42.833 -278.5 -128.5s-134.5 -234.167 -134.5 -445.5zM1060 1732c0 -68 -21.666 -124.167 -64.999 -168.5s-96.333 -66.5 -159 -66.5c-46 0 -113.667 23.333 -203 70
c-60.667 34.667 -108.667 52 -144 52c-75.333 0 -119.333 -42 -132 -126h-110c5.33301 74 30.166 131.667 74.499 173s97.5 62 159.5 62c48 0 117.333 -22.667 208 -68c54.667 -28 100.667 -42 138 -42c68 0 109.333 38 124 114h109z" />
    <glyph glyph-name="odieresis" unicode="&#xf6;" horiz-adv-x="1307" 
d="M94 655c0 100.667 12.999 193.332 38.999 277.999s63.667 157.334 113 218.001s108.166 107.167 176.499 139.5s144.5 48.5 228.5 48.5c114.667 0 214.334 -28.333 299.001 -85s149.5 -136.5 194.5 -239.5s67.5 -222.833 67.5 -359.5s-22.667 -256.5 -68 -359.5
s-110.166 -182.833 -194.499 -239.5s-183.833 -85 -298.5 -85c-112 0 -210 28.333 -294 85s-148.833 137 -194.5 241s-68.5 223.333 -68.5 358zM237.999 654.998c0 -212.667 44.833 -361.332 134.5 -445.999s182.5 -127 278.5 -127c98.667 0 193 42.167 283 126.5
s135 233.166 135 446.499c0 212 -44.833 360.667 -134.5 446s-184.167 128 -283.5 128c-96 0 -188.833 -42.833 -278.5 -128.5s-134.5 -234.167 -134.5 -445.5zM989.999 1495h-181v204h181v-204zM498.999 1495h-182v204h182v-204z" />
    <glyph glyph-name="divide" unicode="&#xf7;" horiz-adv-x="1480" 
d="M842 1214h-206v204h206v-204zM1344 842h-1208v155h1208v-155zM842 419h-206v206h206v-206z" />
    <glyph glyph-name="oslash" unicode="&#xf8;" horiz-adv-x="1307" 
d="M192 -100l-88.001 69l145 184c-34 42 -63 90 -87 144c-45.333 104 -68 223.333 -68 358c0 100.667 13 193.334 39 278.001s63.667 157.334 113 218.001s108.166 107.167 176.499 139.5s144.5 48.5 228.5 48.5c114.667 0 214.334 -28.333 299.001 -85
c36 -24.667 68.333 -53.334 97 -86.001l134 170l79 -78l-146 -186c11.333 -18.667 21.333 -38.667 30 -60c45.333 -102.667 68 -222.334 68 -359.001s-22.667 -256.5 -68 -359.5s-110.166 -182.833 -194.499 -239.5s-183.833 -85 -298.5 -85c-112 0 -210 28.333 -294 85
c-9.33301 6 -18.333 12.333 -27 19zM237.999 655c0 -176.667 30.666 -309.333 91.999 -398l636 808c-10 13.333 -20.667 25.333 -32 36c-89.333 85.333 -183.666 128 -282.999 128c-96 0 -188.833 -42.833 -278.5 -128.5s-134.5 -234.167 -134.5 -445.5zM650.998 82.001
c98.667 0 193 42.168 283 126.501s135 233.166 135 446.499c0 122.667 -15 224 -45 304l-615 -783c78 -62.667 158.667 -94 242 -94z" />
    <glyph glyph-name="ugrave" unicode="&#xf9;" horiz-adv-x="1454" 
d="M1163 1307v-1196h213v-111h-344v217h-4c-74.667 -164 -199 -246 -373 -246c-150 0 -257 36.333 -321 109s-96 197.667 -96 375v745h-197v107h328v-844c2 -130 27.5 -223.333 76.5 -280s131.167 -85 246.5 -85c105.333 0 187.333 40.167 246 120.5s90 179.5 94 297.5v684
h-233v107h364zM350 1884h205l237 -389h-135z" />
    <glyph glyph-name="uacute" unicode="&#xfa;" horiz-adv-x="1454" 
d="M1163 1307v-1196h213v-111h-344v217h-4c-74.667 -164 -199 -246 -373 -246c-150 0 -257 36.333 -321 109s-96 197.667 -96 375v745h-197v107h328v-844c2 -130 27.5 -223.333 76.5 -280s131.167 -85 246.5 -85c105.333 0 187.333 40.167 246 120.5s90 179.5 94 297.5v684
h-233v107h364zM719 1495h-135l237 389h205z" />
    <glyph glyph-name="ucircumflex" unicode="&#xfb;" horiz-adv-x="1454" 
d="M1163 1307v-1196h213v-111h-344v217h-4c-74.667 -164 -199 -246 -373 -246c-150 0 -257 36.333 -321 109s-96 197.667 -96 375v745h-197v107h328v-844c2 -130 27.5 -223.333 76.5 -280s131.167 -85 246.5 -85c105.333 0 187.333 40.167 246 120.5s90 179.5 94 297.5v684
h-233v107h364zM981 1495h-180l-166 218l-166 -218h-184l233 303h221z" />
    <glyph glyph-name="udieresis" unicode="&#xfc;" horiz-adv-x="1454" 
d="M1163 1307v-1196h213v-111h-344v217h-4c-74.667 -164 -199 -246 -373 -246c-150 0 -257 36.333 -321 109s-96 197.667 -96 375v745h-197v107h328v-844c2 -130 27.5 -223.333 76.5 -280s131.167 -85 246.5 -85c105.333 0 187.333 40.167 246 120.5s90 179.5 94 297.5v684
h-233v107h364zM974 1495h-181v204h181v-204zM483 1495h-182v204h182v-204z" />
    <glyph glyph-name="yacute" unicode="&#xfd;" horiz-adv-x="1307" 
d="M1270 1307v-107.001h-103l-458 -1253c-43.333 -120 -75.666 -204.667 -96.999 -254s-54 -95.166 -98 -137.499s-99.333 -63.5 -166 -63.5c-82 0 -143.333 2.66699 -184 8v115c49.333 -5.33301 95.666 -8 138.999 -8c69.333 0 123 32.167 161 96.5
s77.333 161.833 118 292.5l-447 1204h-102v107h450v-107h-200l368 -1028l377 1028h-197v107h439zM701 1495h-135l237 389h205z" />
    <glyph glyph-name="thorn" unicode="&#xfe;" horiz-adv-x="1454" 
d="M45 -479l0.000976562 109.998h221v2126h-221v107h352v-832h4c106 204.667 248 307 426 307c171.333 0 300.166 -62.667 386.499 -188s129.5 -290.666 129.5 -495.999c0 -114.667 -19.333 -224.167 -58 -328.5s-97 -189.666 -175 -255.999s-172.333 -99.5 -283 -99.5
c-186 0 -328 97 -426 291h-4v-631h221v-110h-573zM397.001 642.998c0 -147.333 33.499 -277.668 100.499 -391.001s164.833 -170 293.5 -170c91.333 0 167.333 26.833 228 80.5s105.334 124.667 134.001 213s43 181.5 43 279.5c0 98.667 -15 191.834 -45 279.501
s-75.5 158.667 -136.5 213s-135.5 81.5 -223.5 81.5c-130 0 -228.167 -59.333 -294.5 -178s-99.5 -254.667 -99.5 -408z" />
    <glyph glyph-name="ydieresis" unicode="&#xff;" horiz-adv-x="1307" 
d="M1270 1307v-107.001h-103l-458 -1253c-43.333 -120 -75.666 -204.667 -96.999 -254s-54 -95.166 -98 -137.499s-99.333 -63.5 -166 -63.5c-82 0 -143.333 2.66699 -184 8v115c49.333 -5.33301 95.666 -8 138.999 -8c69.333 0 123 32.167 161 96.5
s77.333 161.833 118 292.5l-447 1204h-102v107h450v-107h-200l368 -1028l377 1028h-197v107h439zM990 1495h-181v204h181v-204zM499 1495h-182v204h182v-204z" />
    <glyph glyph-name="dotlessi" unicode="&#x131;" horiz-adv-x="725" 
d="M66 0v111h262v1089h-262v107h393v-1196h213v-111h-606z" />
    <glyph glyph-name="OE" unicode="&#x152;" horiz-adv-x="2346" 
d="M119 967c0 296.667 70.834 531.167 212.501 703.5s345.167 258.5 610.5 258.5c84.667 0 146 -9.33301 184 -28h1067v-594h-131v467h-840v-750h443v283h131v-713h-131v303h-443v-770h856v467h131v-594h-1031c-73.333 -19.333 -152 -29 -236 -29
c-176 0 -325.833 41.5 -449.5 124.5s-216.834 199.5 -279.501 349.5s-94 324 -94 522zM279.001 967c0 -173.333 23.168 -324.833 69.501 -454.5s119.166 -231.167 218.499 -304.5s224.333 -110 375 -110c46.667 0 91 3.33301 133 10v1682c-42 8 -86.333 12 -133 12
c-150 0 -274.833 -37.5 -374.5 -112.5s-172.667 -175.167 -219 -300.5s-69.5 -266 -69.5 -422z" />
    <glyph glyph-name="oe" unicode="&#x153;" horiz-adv-x="2274" 
d="M2189 627l-971.003 -0.00195312c0 -164 36.667 -295.833 110 -395.5s181.333 -149.5 324 -149.5c96.667 0 181.334 27.5 254.001 82.5s117.667 133.833 135 236.5h127c-7.33301 -134 -62.166 -239.167 -164.499 -315.5s-216.833 -114.5 -343.5 -114.5
c-192 0 -338.333 60.667 -439 182c-33.333 40 -61.333 86 -84 138c-45.333 -100.667 -109.666 -179 -192.999 -235c-84 -56.667 -183.333 -85 -298 -85c-112 0 -210 28.333 -294 85s-148.833 137 -194.5 241s-68.5 223.333 -68.5 358c0 100.667 13 193.334 39 278.001
s63.667 157.334 113 218.001s108.166 107.167 176.499 139.5s144.5 48.5 228.5 48.5c114.667 0 214.334 -28.333 299.001 -85c81.333 -54.667 144.666 -131 189.999 -229c21.333 46.667 48.333 90 81 130c100 122.667 241.333 184 424 184s319.834 -63.333 411.501 -190
s137.5 -300.667 137.5 -522zM232.997 654.998c0 -212.667 44.833 -361.332 134.5 -445.999s182.5 -127 278.5 -127c98.667 0 193 42.167 283 126.5s135 233.166 135 446.499c0 212 -44.833 360.667 -134.5 446s-184.167 128 -283.5 128
c-96 0 -188.833 -42.833 -278.5 -128.5s-134.5 -234.167 -134.5 -445.5zM1218 737l823.001 0.000976562c-2 146 -38.833 264.5 -110.5 355.5s-172.834 136.5 -303.501 136.5c-119.333 0 -215.833 -46.833 -289.5 -140.5s-113.5 -210.834 -119.5 -351.501z" />
    <glyph glyph-name="Scaron" unicode="&#x160;" horiz-adv-x="1454" 
d="M1139 1708l-0.00390625 193h131v-627h-131c0 177.333 -35.167 309.666 -105.5 396.999s-184.166 131 -341.499 131c-100.667 0 -188.667 -33.833 -264 -101.5s-113 -157.834 -113 -270.501c0 -110 36.333 -187.333 109 -232s194.834 -96.334 366.501 -155.001
s300.667 -126.167 387 -202.5s129.5 -194.166 129.5 -353.499c0 -104.667 -25 -196.167 -75 -274.5s-116.167 -138.166 -198.5 -179.499s-170.166 -62 -263.499 -62c-230 0 -389.667 93 -479 279h-8v-250h-127v627h127c0 -158.667 40.167 -286.5 120.5 -383.5
s187.5 -145.5 321.5 -145.5c112 0 210.333 33.333 295 100s127 163 127 289c0 117.333 -40.333 203.333 -121 258s-203.167 111.5 -367.5 170.5s-289.166 123.833 -374.499 194.5s-128 177.334 -128 320.001c0 98.667 25 186.167 75 262.5s116.333 134.833 199 175.5
s170 61 262 61c214.667 0 360.667 -73.667 438 -221h9zM1067 2392l-243 -303h-221l-233 303h185l168 -221l163 221h181z" />
    <glyph glyph-name="scaron" unicode="&#x161;" horiz-adv-x="1159" 
d="M86 0l-0.00292969 450.998h115c10 -113.333 49.167 -203.166 117.5 -269.499s153.166 -99.5 254.499 -99.5c92.667 0 171.167 23.5 235.5 70.5s96.5 119.167 96.5 216.5c0 86.667 -30.167 143 -90.5 169s-158.166 50.333 -293.499 73s-237.5 57.5 -306.5 104.5
s-103.5 130.833 -103.5 251.5c0 84 23.167 153.833 69.5 209.5s105 96.667 176 123s141.833 39.5 212.5 39.5c73.333 0 141.333 -15.667 204 -47s109.334 -78.333 140.001 -141h9v156h114v-422h-114c-15.333 229.333 -137 344 -365 344c-80.667 0 -150.667 -22.5 -210 -67.5
s-89 -109.833 -89 -194.5c0 -79.333 29.333 -131.666 88 -156.999s156.334 -51 293.001 -77s239.834 -63.833 309.501 -113.5s104.5 -134.5 104.5 -254.5c0 -130 -45.333 -228.167 -136 -294.5s-198.334 -99.5 -323.001 -99.5c-173.333 0 -301.666 75.333 -384.999 226h-8
v-197h-115zM929.997 1799l-243 -303h-221l-233 303h185l168 -221l163 221h181z" />
    <glyph glyph-name="Ydieresis" unicode="&#x178;" horiz-adv-x="1602" 
d="M430 0v127h287v651l-561 996h-119v127h512v-127h-238l480 -848l495 848h-237v127h516v-127h-119l-582 -996v-651h291v-127h-725zM1118 2088h-181v204h181v-204zM627 2088h-182v204h182v-204z" />
    <glyph glyph-name="Zcaron" unicode="&#x17d;" horiz-adv-x="1602" 
d="M135 0v176l1139 1598h-991v-394h-127v521h1274v-164l-1147 -1610h1048v397h131v-524h-1327zM1149 2393l-243 -303h-221l-233 303h185l168 -221l163 221h181z" />
    <glyph glyph-name="zcaron" unicode="&#x17e;" horiz-adv-x="1159" 
d="M127 0v127l737 1073h-590v-287h-131v394h873v-127l-742 -1069h631v286h131v-397h-909zM928 1799l-243 -303h-221l-233 303h185l168 -221l163 221h181z" />
    <glyph glyph-name="florin" unicode="&#x192;" horiz-adv-x="1500" 
d="M1389 1859l-31.002 -140c-75.333 16.667 -134.666 25 -177.999 25c-58 0 -102.167 -14.5 -132.5 -43.5s-54.833 -93.5 -73.5 -193.5l-33 -174h270l-20 -119h-270l-256 -1466c-21.333 -122 -56.166 -205.167 -104.499 -249.5s-116.833 -66.5 -205.5 -66.5
c-72.667 0 -157.334 9 -254.001 27l31 141c84 -16.667 141.667 -25 173 -25c109.333 0 177 76.333 203 229l239 1410h-264l19 119h266l37 202c18 98.667 35.667 168 53 208s49.833 76 97.5 108s110.834 48 189.501 48c86.667 0 168 -13.333 244 -40z" />
    <glyph glyph-name="circumflex" unicode="&#x2c6;" horiz-adv-x="898" 
d="M797 1495h-180l-166 218l-166 -218h-184l233 303h221z" />
    <glyph glyph-name="caron" unicode="&#x2c7;" horiz-adv-x="898" 
d="M817 1799l-243 -303h-221l-233 303h185l168 -221l163 221h181z" />
    <glyph glyph-name="ring" unicode="&#x2da;" horiz-adv-x="896" 
d="M321 1680c0 -33.333 11.666 -64.334 34.999 -93.001v1c12.667 -14.667 26.834 -25.667 42.501 -33s34.167 -11 55.5 -11c36 0 67 13.667 93 41c26 26.667 39 58.334 39 95.001c0 33.333 -12 65 -36 95c-22 30 -54 45 -96 45c-41.333 0 -74 -15 -98 -45v1
c-23.333 -30.667 -35 -62.667 -35 -96zM244.999 1683c0 64.667 21.999 115.667 65.999 153c44.667 36.667 92.334 55 143.001 55c52.667 0 100.334 -17.333 143.001 -52h-1c44 -34 66 -86 66 -156c0 -65.333 -22.333 -116.333 -67 -153
c-43.333 -36.667 -90.333 -55 -141 -55s-98.334 18.333 -143.001 55c-44 36.667 -66 87.667 -66 153z" />
    <glyph glyph-name="ring" unicode="&#x25e6;" horiz-adv-x="896" 
d="M321 1680c0 -33.333 11.666 -64.334 34.999 -93.001v1c12.667 -14.667 26.834 -25.667 42.501 -33s34.167 -11 55.5 -11c36 0 67 13.667 93 41c26 26.667 39 58.334 39 95.001c0 33.333 -12 65 -36 95c-22 30 -54 45 -96 45c-41.333 0 -74 -15 -98 -45v1
c-23.333 -30.667 -35 -62.667 -35 -96zM244.999 1683c0 64.667 21.999 115.667 65.999 153c44.667 36.667 92.334 55 143.001 55c52.667 0 100.334 -17.333 143.001 -52h-1c44 -34 66 -86 66 -156c0 -65.333 -22.333 -116.333 -67 -153
c-43.333 -36.667 -90.333 -55 -141 -55s-98.334 18.333 -143.001 55c-44 36.667 -66 87.667 -66 153z" />
    <glyph glyph-name="tilde" unicode="&#x2dc;" horiz-adv-x="898" 
d="M856 1732c0 -68 -21.666 -124.167 -64.999 -168.5s-96.333 -66.5 -159 -66.5c-46 0 -113.667 23.333 -203 70c-60.667 34.667 -108.667 52 -144 52c-75.333 0 -119.333 -42 -132 -126h-110c5.33301 74 30.166 131.667 74.499 173s97.5 62 159.5 62
c48 0 117.333 -22.667 208 -68c54.667 -28 100.667 -42 138 -42c68 0 109.333 38 124 114h109z" />
    <glyph glyph-name="uni0E01" unicode="&#xe01;" horiz-adv-x="1516" 
d="M246 0v901.002c0 90 19.333 153.333 58 190s71 58 97 64c-34 26 -85.833 52.5 -155.5 79.5s-124.167 46.833 -163.5 59.5v136c37.333 34.667 108.666 78 213.999 130s240 78 404 78c147.333 0 288 -40 422 -120s201 -218.667 201 -416v-1102h-119v1102
c0 99.333 -27.833 179.333 -83.5 240s-122 103.334 -199 128.001s-150.833 37 -221.5 37c-126 0 -231.5 -16.833 -316.5 -50.5s-143.167 -61.834 -174.5 -84.501v0l139 -53c50 -18 94.167 -37.333 132.5 -58s63.833 -35.334 76.5 -44.001v-95
c-14.667 -4.66699 -36.667 -14.334 -66 -29.001s-57.666 -37.667 -84.999 -69c-30.667 -47.333 -46 -113 -46 -197v-827h-114z" />
    <glyph glyph-name="uni0E02" unicode="&#xe02;" horiz-adv-x="1360" 
d="M913 135c46.667 0 76.999 5.66602 90.999 16.999c21.333 21.333 32 58 32 110v1360h119v-1360c0 -109.333 -17.667 -181.666 -53 -216.999c-32.667 -30 -91.334 -45 -176.001 -45h-525v135h148v832c28.667 14 64.5 42.833 107.5 86.5s64.5 103.5 64.5 179.5
c0 82 -27.167 148.167 -81.5 198.5s-120.166 75.5 -197.499 75.5c-61.333 0 -110.166 -11.167 -146.499 -33.5s-61.166 -41.166 -74.499 -56.499h25c68.667 -2 124.667 -25.833 168 -71.5s65 -103.834 65 -174.501c0 -82 -22.333 -146.167 -67 -192.5
s-98.667 -69.5 -162 -69.5c-58.667 0 -112.334 25 -161.001 75s-73 115.333 -73 196c0 76.667 19.5 150.167 58.5 220.5s91.167 126.833 156.5 169.5s135.666 64 210.999 64c74.667 0 142.834 -17.5 204.501 -52.5s110 -83 145 -144s52.5 -129.167 52.5 -204.5
c0 -93.333 -21.5 -167.5 -64.5 -222.5s-78.833 -91.5 -107.5 -109.5v-766h241zM249.999 1315c-41.333 0 -72.835 -13.667 -94.502 -41s-32.5 -60 -32.5 -98c0 -40 11.167 -74 33.5 -102s53.5 -42 93.5 -42c38.667 0 68.834 14 90.501 42s32.5 62 32.5 102
c0 38 -10.667 70.667 -32 98s-51.666 41 -90.999 41z" />
    <glyph glyph-name="uni0E03" unicode="&#xe03;" horiz-adv-x="1425" 
d="M733 827v-692.003h246c46.667 0 75.334 5.66699 86.001 17c22 18.667 33 55.334 33 110.001v1360h114v-1360c0 -109.333 -16.333 -181.666 -49 -216.999c-32.667 -30 -92.667 -45 -180 -45h-516v135h139v783c32.667 10 74.167 35.833 124.5 77.5
s77.166 107.167 80.499 196.5c0 86 -25.667 152 -77 198s-94 75.667 -128 89l-139 -99l-139 99c-11.333 -6 -28.833 -18.167 -52.5 -36.5s-48.5 -45.833 -74.5 -82.5c-24.667 -32.667 -43.167 -63.167 -55.5 -91.5s-19.833 -48.5 -22.5 -60.5c8 10 23.5 22.333 46.5 37
s53.833 23 92.5 25c66 0 120.833 -24.333 164.5 -73s65.5 -106.334 65.5 -173.001c0 -80 -22.167 -143 -66.5 -189s-98.833 -69 -163.5 -69c-60.667 0 -119.5 28.333 -176.5 85s-85.5 140.334 -85.5 251.001c0 156 41 275.5 123 358.5s150.333 136.833 205 161.5l139 -106
l139 106c22 -7.33301 55.333 -23.833 100 -49.5s91 -67.667 139 -126s75 -129.5 81 -213.5c0 -126.667 -24.167 -221.667 -72.5 -285s-88.5 -103.666 -120.5 -120.999zM262 1159c-40 0 -71.167 -13.834 -93.5 -41.501s-33.5 -61.5 -33.5 -101.5
c0 -38 11.5 -71.5 34.5 -100.5s53.833 -43.5 92.5 -43.5c40 0 71.167 14.333 93.5 43s33.5 62.334 33.5 101.001c0 40.667 -10.833 74.667 -32.5 102s-53.167 41 -94.5 41z" />
    <glyph glyph-name="uni0E04" unicode="&#xe04;" horiz-adv-x="1602" 
d="M401 901c0 74 24.332 138.336 72.999 193.003s106.334 82 173.001 82c68 0 126.667 -26.333 176 -79s74 -116.667 74 -192c0 -80.667 -24.167 -147.167 -72.5 -199.5s-107.5 -78.5 -177.5 -78.5c-38.667 2 -70 11.333 -94 28s-40.333 30.334 -49 41.001l20 -69v-627h-123
v106c0 67.333 -11.667 130.833 -35 190.5s-58 134.5 -104 224.5s-81.333 172.333 -106 247s-37 156 -37 244c4.66699 134.667 37.834 249.5 99.501 344.5s141.167 166.333 238.5 214s201.666 71.5 312.999 71.5c122 0 231.333 -25.833 328 -77.5s172 -123.834 226 -216.501
s81 -198 81 -316v-1032h-123v1012c0 99.333 -21.5 187.166 -64.5 263.499s-103.333 135.5 -181 177.5s-166.5 63 -266.5 63c-163.333 0 -291.5 -51 -384.5 -153s-139.5 -226 -139.5 -372c0 -61.333 6.16699 -115.833 18.5 -163.5s29 -95.334 50 -143.001
s32.167 -73.834 33.5 -78.501l78 -184l-25 184v295zM646.999 1040c-39.333 0 -70.333 -13.667 -93 -41s-34 -60 -34 -98c0 -40 11.167 -73.833 33.5 -101.5s53.5 -41.5 93.5 -41.5c41.333 0 72.833 13.667 94.5 41s32.5 61.333 32.5 102c0 38.667 -11 71.5 -33 98.5
s-53.333 40.5 -94 40.5z" />
    <glyph glyph-name="uni0E05" unicode="&#xe05;" horiz-adv-x="1602" 
d="M352 627l74.001 -176.001l-25 155v295c0 74 24.333 138.333 73 193s106.334 82 173.001 82c68 0 126.667 -26.333 176 -79s74 -116.667 74 -192c0 -80.667 -24.167 -147.167 -72.5 -199.5s-107.5 -78.5 -177.5 -78.5c-38.667 2 -70 11.333 -94 28
s-40.333 30.334 -49 41.001l20 -69v-627h-123v106c0 67.333 -11.333 135.166 -34 203.499s-56.667 153.333 -102 255s-80.333 190.834 -105 267.501s-38.334 158.334 -41.001 245.001c0 98 18.5 188.833 55.5 272.5s88.667 150 155 199s139.5 73.5 219.5 73.5
c91.333 0 158 -25.667 200 -77s68 -94 78 -128c12.667 34 40.334 76.667 83.001 128s105.334 77 188.001 77c114.667 0 194.5 -40.5 239.5 -121.5s67.5 -170.167 67.5 -267.5v-1233h-123v1217c0 97.333 -18.833 167.333 -56.5 210s-80.167 64 -127.5 64
c-78 0 -133.5 -29.167 -166.5 -87.5s-52.833 -107.166 -59.5 -146.499h-86c-6.66699 39.333 -27.334 88.166 -62.001 146.499s-93 87.5 -175 87.5c-88.667 0 -161.334 -41.333 -218.001 -124s-85 -183.334 -85 -302.001c3.33301 -104 38.666 -250 105.999 -438z
M647.001 1040c-39.333 0 -70.333 -13.667 -93 -41s-34 -60 -34 -98c0 -40 11.167 -73.833 33.5 -101.5s53.5 -41.5 93.5 -41.5c41.333 0 72.833 13.667 94.5 41s32.5 61.333 32.5 102c0 38.667 -11 71.5 -33 98.5s-53.333 40.5 -94 40.5z" />
    <glyph glyph-name="uni0E06" unicode="&#xe06;" horiz-adv-x="1724" 
d="M647 918c32 10 72.6641 35.8359 121.997 77.5029s75.666 107.167 78.999 196.5c0 86 -25.167 152 -75.5 198s-92.166 75.667 -125.499 89l-143 -99l-144 99c-10 -6 -25.5 -18.333 -46.5 -37s-43.5 -46 -67.5 -82c-26 -32 -45 -62.333 -57 -91s-19 -49 -21 -61
c6.66699 10 20.834 22.333 42.501 37s52.5 23 92.5 25c66 0 120.667 -24 164 -72s65 -106 65 -174c0 -80.667 -22 -143.834 -66 -189.501s-98.333 -68.5 -163 -68.5c-62.667 0 -122.667 28.167 -180 84.5s-86 140.166 -86 251.499c0 155.333 40.333 274.666 121 357.999
s148 137.333 202 162l144 -106l143 106c22 -7.33301 55.5 -23.833 100.5 -49.5s91.667 -67.667 140 -126s76.166 -129.5 83.499 -213.5c0 -125.333 -25.167 -219.833 -75.5 -283.5s-92.166 -104.5 -125.499 -122.5v-143c26 -4 69.167 -17.167 129.5 -39.5
s126.5 -61.166 198.5 -116.499c78.667 -62.667 145.334 -128 200.001 -196s93 -118.667 115 -152l-8 111v1331h111v-1622h-111c-26.667 38 -69.5 94.167 -128.5 168.5s-118.5 136.833 -178.5 187.5c-80 70 -149 118.167 -207 144.5s-98.333 41.166 -121 44.499v-254
c0 -204.667 -88.667 -307 -266 -307c-76.667 0 -143 29.667 -199 89s-84 147 -84 263c16.667 126 71.834 217.5 165.501 274.5s175.167 85.5 244.5 85.5h16v222zM343.997 336.003c0 -67.333 14 -122.5 42 -165.5s67.333 -64.5 118 -64.5c95.333 0 143 64.333 143 193v258
c-41.333 0 -96.5 -13.667 -165.5 -41s-114.833 -87.333 -137.5 -180zM302.997 1159c-41.333 0 -72.833 -13.667 -94.5 -41s-32.5 -61.333 -32.5 -102c0 -38.667 11.167 -72.334 33.5 -101.001s53.5 -43 93.5 -43c40.667 0 72.667 14.333 96 43s35 62.334 35 101.001
c0 40 -11.5 73.833 -34.5 101.5s-55.167 41.5 -96.5 41.5z" />
    <glyph glyph-name="uni0E07" unicode="&#xe07;" horiz-adv-x="1130" 
d="M733 135l4 -0.000976562c16.667 0 33 4 49 12c19.333 13.333 29 38 29 74v914c-9.33301 -6 -25.166 -13.667 -47.499 -23s-47.5 -14 -75.5 -14c-71.333 0 -131.5 26 -180.5 78s-73.5 117.333 -73.5 196c0 74.667 25 137.667 75 189s109.667 77 179 77
c66.667 0 123.667 -25.5 171 -76.5s71 -114.167 71 -189.5v-1110c0 -109.333 -20.667 -181.666 -62 -216.999c-32.667 -30 -91.334 -45 -176.001 -45h-20l-680 786l90 86zM692 1516c-41.333 0 -72.833 -14 -94.5 -42s-32.5 -62 -32.5 -102c0 -38 11.167 -71.333 33.5 -100
s53.5 -43 93.5 -43s71.167 14.333 93.5 43s33.5 62 33.5 100c0 40 -10.833 74 -32.5 102s-53.167 42 -94.5 42z" />
    <glyph glyph-name="uni0E08" unicode="&#xe08;" horiz-adv-x="1380" 
d="M840 41c-16.667 15.333 -24.998 34.332 -24.998 56.999l-143 561c-11.333 -17.333 -33.333 -39.333 -66 -66s-73.667 -40 -123 -40c-69.333 0 -126.833 26 -172.5 78s-68.5 117.333 -68.5 196c0 79.333 23 145 69 197s103.333 78 172 78c72 0 129.667 -23.667 173 -71
s73 -105.666 89 -174.999l185 -721h53c22 0 38.333 4 49 12c16.667 12.667 25 37.334 25 74.001v856c0 141.333 -45 248.333 -135 321s-195.333 109 -316 109c-152 0 -265.5 -40.333 -340.5 -121s-122.5 -148 -142.5 -202l-107 49
c21.333 67.333 76.666 151.666 165.999 252.999s230.666 152 423.999 152c102 0 196.667 -21.667 284 -65s156.833 -105.5 208.5 -186.5s77.5 -175.833 77.5 -284.5v-840c0 -106 -19.333 -178.333 -58 -217c-38 -30 -96.667 -45 -176 -45h-33
c-30.667 0 -53.667 13.667 -69 41zM483.002 974.999c-39.333 0 -69.668 -13.999 -91.001 -41.999s-32 -62 -32 -102c0 -38 10.833 -71.333 32.5 -100s51.834 -43 90.501 -43c40.667 0 72.667 14.333 96 43s35 62 35 100c0 39.333 -11.5 73.166 -34.5 101.499
s-55.167 42.5 -96.5 42.5z" />
    <glyph glyph-name="uni0E09" unicode="&#xe09;" horiz-adv-x="1602" 
d="M1282 717c23.333 -2 59 -12.001 107 -30.001s95.5 -57 142.5 -117s70.5 -146.333 70.5 -259c0 -97.333 -27 -176.166 -81 -236.499s-114.667 -90.5 -182 -90.5c-58.667 0 -104 21.667 -136 65s-48 100.666 -48 171.999v365
c-20.667 -0.666992 -57.334 -12.5 -110.001 -35.5s-114.334 -69.833 -185.001 -140.5c-74 -74 -142 -160.667 -204 -260c-60.667 -98 -91 -148 -91 -150v0h-123v573c-8 -6 -22.167 -13.5 -42.5 -22.5s-44.166 -13.5 -71.499 -13.5c-73.333 0 -133.333 25.333 -180 76
s-70 116.667 -70 198c0 73.333 24.333 136 73 188s107.667 78 177 78c66.667 0 122.834 -26 168.501 -78s68.5 -114.667 68.5 -188v-500l-8 -110c12.667 26 40.167 70.5 82.5 133.5s100.833 131.833 175.5 206.5c68 68 134.333 113.833 199 137.5s111.667 36.5 141 38.5v360
c0 92 -21.167 170.5 -63.5 235.5s-97.333 113.667 -165 146s-138.834 48.5 -213.501 48.5c-157.333 0 -275.333 -35.167 -354 -105.5s-128.667 -129.166 -150 -176.499l-111 53c24.667 60 84.834 135 180.501 225s240.5 135 434.5 135c100.667 0 194.667 -21.667 282 -65
s157 -105.833 209 -187.5s78 -176.167 78 -283.5v-385zM328 949.999c-40.667 0 -72 -13.5 -94 -40.5s-33 -59.833 -33 -98.5c0 -40.667 10.833 -74.667 32.5 -102s53.167 -41 94.5 -41c39.333 0 68.833 13.667 88.5 41s29.5 61.333 29.5 102
c0 38.667 -9.83301 71.5 -29.5 98.5s-49.167 40.5 -88.5 40.5zM1282 585.999v-365c0 -74.667 24.667 -114.334 74 -119.001c28 0 58.167 19.667 90.5 59s48.5 89.333 48.5 150c-1.33301 110.667 -28.5 183.834 -81.5 219.501s-96.833 54.167 -131.5 55.5z" />
    <glyph glyph-name="uni0E0A" unicode="&#xe0a;" horiz-adv-x="1360" 
d="M807 1434c23.333 7.33301 59.5029 22.667 108.503 46s97.5 55.666 145.5 96.999c50.667 41.333 86.334 81 107.001 119s32.667 65.333 36 82h135c-2 -32.667 -18.667 -82.5 -50 -149.5s-95 -130.5 -191 -190.5c-52 -34.667 -100.833 -60.667 -146.5 -78
s-78.834 -28.333 -99.501 -33c22 -3.33301 54.167 -11.833 96.5 -25.5s81.166 -36.5 116.499 -68.5c60 -50 90 -130.667 90 -242v-729c0 -109.333 -17.667 -181.666 -53 -216.999c-32.667 -30 -91.334 -45 -176.001 -45h-525v135h148v832c28.667 14 64.5 42.833 107.5 86.5
s64.5 103.5 64.5 179.5c0 82 -27.167 148.167 -81.5 198.5s-120.166 75.5 -197.499 75.5c-61.333 0 -110.166 -11.167 -146.499 -33.5s-61.166 -41.166 -74.499 -56.499h25c68.667 -2 124.667 -25.833 168 -71.5s65 -103.834 65 -174.501c0 -82 -22.333 -146.167 -67 -192.5
s-98.667 -69.5 -162 -69.5c-58.667 0 -112.334 25 -161.001 75s-73 115.333 -73 196c0 76.667 19.5 150.167 58.5 220.5s91.167 126.833 156.5 169.5s135.666 64 210.999 64c113.333 0 198.666 -25 255.999 -75s93.666 -91.667 108.999 -125zM250.003 1315
c-41.333 0 -72.835 -13.667 -94.502 -41s-32.5 -60 -32.5 -98c0 -40 11.167 -74 33.5 -102s53.5 -42 93.5 -42c38.667 0 68.834 14 90.501 42s32.5 62 32.5 102c0 38 -10.667 70.667 -32 98s-51.666 41 -90.999 41zM844.001 1217v-25
c-1.33301 -74.667 -23.333 -137.167 -66 -187.5s-78 -84.833 -106 -103.5v-766h241c46.667 0 77 5.66699 91 17c21.333 21.333 32 58 32 110v639c0 116.667 -17.667 194.667 -53 234c-16 28.667 -39 49 -69 61s-53.333 19 -70 21z" />
    <glyph glyph-name="uni0E0B" unicode="&#xe0b;" horiz-adv-x="1425" 
d="M123 1208c8 10 23.501 22.3271 46.501 36.9941s53.833 23 92.5 25c66 0 120.833 -24.333 164.5 -73s65.5 -106.334 65.5 -173.001c0 -80 -22.167 -143 -66.5 -189s-98.833 -69 -163.5 -69c-60.667 0 -119.5 28.333 -176.5 85s-85.5 140.334 -85.5 251.001
c0 156 41 275.5 123 358.5s150.333 136.833 205 161.5l139 -106l139 106c14 -5.33301 35.333 -15.166 64 -29.499s56.667 -31.833 84 -52.5c24.667 -18 47.334 -37.833 68.001 -59.5s34.667 -37.167 42 -46.5c23.333 7.33301 59.5 22.333 108.5 45
s100.167 55.334 153.5 98.001c49.333 42 83 81.833 101 119.5s28 64.834 30 81.501h148c-3.33301 -32.667 -22 -82.667 -56 -150s-98.667 -130.666 -194 -189.999c-52 -34.667 -100.833 -60.667 -146.5 -78s-78.834 -28.333 -99.501 -33c23.333 -3.33301 57.5 -12 102.5 -26
s84.5 -36.667 118.5 -68c54.667 -46 82 -126.667 82 -242v-729c0 -109.333 -16.333 -181.666 -49 -216.999c-32.667 -30 -92.667 -45 -180 -45h-516v135h139v783c32.667 10 74.167 35.833 124.5 77.5s77.166 107.167 80.499 196.5c0 87.333 -25.667 153.833 -77 199.5
s-94 74.834 -128 87.501l-139 -99l-139 99c-11.333 -6 -28.833 -18.167 -52.5 -36.5s-48.5 -45.833 -74.5 -82.5c-24.667 -32.667 -43.167 -63.167 -55.5 -91.5s-19.833 -48.5 -22.5 -60.5zM262.001 1158.99c-40 0 -71.167 -13.834 -93.5 -41.501s-33.5 -61.5 -33.5 -101.5
c0 -38 11.5 -71.5 34.5 -100.5s53.833 -43.5 92.5 -43.5c40 0 71.167 14.333 93.5 43s33.5 62.334 33.5 101.001c0 40.667 -10.833 74.667 -32.5 102s-53.167 41 -94.5 41zM918.001 1207.99l-0.000976562 -36.999c-1.33301 -95.333 -25 -171.833 -71 -229.5
s-84 -95.834 -114 -114.501v-692h246c46.667 0 75.334 5.66699 86.001 17c22 18.667 33 55.334 33 110.001v639c0 100 -16.333 178 -49 234c-20 23.333 -43.5 40.666 -70.5 51.999s-47.167 18.333 -60.5 21z" />
    <glyph glyph-name="uni0E0C" unicode="&#xe0c;" horiz-adv-x="2138" 
d="M1360 684c19.333 -4 51.832 -17.9971 97.499 -41.9971s96.5 -66 152.5 -126c51.333 -50 96.5 -107 135.5 -171s66.167 -112 81.5 -144l-21 135v1286h127v-1622h-127c-16.667 40.667 -47.334 101.167 -92.001 181.5s-100 155.166 -166 224.499
c-50 52 -90.833 87.5 -122.5 106.5s-53.5 29.833 -65.5 32.5v-279c0 -188 -80.667 -282 -242 -282c-74 2 -136.833 34 -188.5 96s-77.5 147.333 -77.5 256c0.666992 68 19.667 129.833 57 185.5s83.666 98.667 138.999 129s110 45.5 164 45.5h29v406
c0 144.667 -52.833 248.334 -158.5 311.001s-226.167 94 -361.5 94c-125.333 0 -233.333 -16.833 -324 -50.5s-153.334 -61.834 -188.001 -84.501v0l139 -53c50 -18 94.167 -37.333 132.5 -58s63.833 -35.334 76.5 -44.001v-95
c-14.667 -4.66699 -36.667 -14.334 -66 -29.001s-57.666 -37.667 -84.999 -69c-30.667 -47.333 -46 -113 -46 -197v-340c10 4.66699 25.833 10.667 47.5 18s46.834 11 75.501 11c75.333 0 136.5 -24.5 183.5 -73.5s70.5 -114.5 70.5 -196.5
c0 -73.333 -25.333 -135.333 -76 -186s-110 -76 -178 -76c-67.333 0 -123.666 25.333 -168.999 76s-68 112.667 -68 186v655c0 90 19.333 153.333 58 190s71 58 97 64c-34 26 -85.833 52.5 -155.5 79.5s-124.167 46.833 -163.5 59.5v136c41.333 34.667 117.333 78 228 130
s247.667 78 411 78c168.667 0 317.334 -40.167 446.001 -120.5s193 -218.833 193 -415.5v-418zM974.999 336.003c0 -135.333 47.668 -212 143.001 -230c82 0 123 54.667 123 164v287c-168.667 0 -257.334 -73.667 -266.001 -221zM483 102.003
c40.667 0 72.665 14.333 95.998 43s35 62.334 35 101.001s-11.5 72.167 -34.5 100.5s-55.167 42.5 -96.5 42.5c-39.333 0 -69.666 -14 -90.999 -42s-32 -61.667 -32 -101c0 -38.667 10.833 -72.334 32.5 -101.001s51.834 -43 90.501 -43z" />
    <glyph glyph-name="uni0E0D" unicode="&#xe0d;" horiz-adv-x="2138" 
d="M1311 -532c88.667 0 167.667 20.3389 237 61.0059c77.333 46.667 131.5 105 162.5 175s49.167 123.667 54.5 161h127c-3.33301 -36.667 -17.5 -92.334 -42.5 -167.001s-77.333 -150.334 -157 -227.001s-190.5 -117.334 -332.5 -122.001
c-125.333 0 -220.833 29.667 -286.5 89s-98.5 130.666 -98.5 213.999c0 64 19.333 120.333 58 169s91.667 73 159 73c62 0 113 -23.333 153 -70s60 -104 60 -172c0 -54.667 -11.667 -96.834 -35 -126.501s-43 -48.834 -59 -57.501zM1212 135.006h475.996
c46 0 78.667 5.66699 98 17c13.333 18.667 20 55.334 20 110.001v1360h127v-1360c0 -107.333 -21.667 -179.666 -65 -216.999c-32.667 -30 -90 -45 -172 -45h-742v135h144v967c0 92.667 -21.167 169.5 -63.5 230.5s-96 105.333 -161 133s-132.167 41.5 -201.5 41.5
c-114 0 -211.833 -16.833 -293.5 -50.5s-138.167 -61.834 -169.5 -84.501v0l139 -53c50 -18 94.167 -37.333 132.5 -58s63.833 -35.334 76.5 -44.001v-95c-14.667 -4.66699 -36.667 -14.334 -66 -29.001s-57.666 -37.667 -84.999 -69c-30.667 -47.333 -46 -113 -46 -197
v-340c10 4.66699 25.833 10.667 47.5 18s46.834 11 75.501 11c75.333 0 136.5 -24.5 183.5 -73.5s70.5 -114.5 70.5 -196.5c0 -73.333 -25.333 -135.333 -76 -186s-110 -76 -178 -76c-67.333 0 -123.666 25.333 -168.999 76s-68 112.667 -68 186v655
c0 90 19.333 153.333 58 190s71 58 97 64c-34 26 -85.833 52.5 -155.5 79.5s-124.167 46.833 -163.5 59.5v136c41.333 34.667 114.333 78 219 130s228.334 78 371.001 78c88 0 173.167 -18.167 255.5 -54.5s150.333 -94.666 204 -174.999s80.5 -182.5 80.5 -306.5v-967z
M482.996 102.006c40.667 0 72.665 14.333 95.998 43s35 62.334 35 101.001s-11.5 72.167 -34.5 100.5s-55.167 42.5 -96.5 42.5c-39.333 0 -69.666 -14 -90.999 -42s-32 -61.667 -32 -101c0 -38.667 10.833 -72.334 32.5 -101.001s51.834 -43 90.501 -43zM1191.99 -462.994
c34 0 59.5 11.167 76.5 33.5s25.5 49.5 25.5 81.5c0 31.333 -8.5 58.333 -25.5 81s-42.5 34 -76.5 34c-31.333 0 -56.166 -11.667 -74.499 -35s-27.5 -50 -27.5 -80c0 -31.333 9.16699 -58.333 27.5 -81s43.166 -34 74.499 -34z" />
    <glyph glyph-name="uni0E0E" unicode="&#xe0e;" horiz-adv-x="1602" 
d="M1405 -651l-123.003 0.000976562c-17.333 16 -46 39.833 -86 71.5s-81 59.5 -123 83.5c-22 15.333 -45.833 30.666 -71.5 45.999s-44.167 26 -55.5 32c-23.333 -41.333 -68.666 -93.666 -135.999 -156.999s-154.333 -95.666 -261 -96.999c-106 0 -183 24 -231 72
s-72 103.333 -72 166c0 72.667 27.333 132.667 82 180s128.334 72 221.001 74c82 0 153.5 -9.16699 214.5 -27.5s104.167 -33.833 129.5 -46.5c5.33301 0 13.666 30 24.999 90c10 34 17 66.5 21 97.5s6.33301 53.167 7 66.5h127c2 0 3 -3.33301 3 -10
c0 -20.667 -9 -74.667 -27 -162c-8 -33.333 -17.167 -61.5 -27.5 -84.5s-17.833 -38.5 -22.5 -46.5c2.66699 0 42.334 -23.333 119.001 -70c34 -24 68.167 -49.833 102.5 -77.5s58.833 -48.167 73.5 -61.5l-12 61v1553c0 144.667 -50.333 248.334 -151 311.001
s-206 94 -316 94c-114.667 0 -213.167 -16.833 -295.5 -50.5s-139.5 -61.834 -171.5 -84.501c2.66699 0 49 -17.667 139 -53c49.333 -18 93.833 -37.333 133.5 -58s66.167 -35.334 79.5 -44.001v-95c-15.333 -4.66699 -37.666 -14.5 -66.999 -29.5s-56 -37.833 -80 -68.5
c-32.667 -45.333 -49 -111 -49 -197v-581c0 -74 -23.167 -136.167 -69.5 -186.5s-103.833 -75.5 -172.5 -75.5c-68 0 -126 25.167 -174 75.5s-72 112.5 -72 186.5c0 81.333 22.833 146.666 68.5 195.999s104.834 74 177.501 74c31.333 0 57.5 -3.66699 78.5 -11
s35.833 -13.333 44.5 -18v414c0 88.667 20.5 151.5 61.5 188.5s75.167 58.833 102.5 65.5c-36 26 -89.5 52.5 -160.5 79.5s-126.833 46.833 -167.5 59.5v136c36 34.667 104.667 78 206 130s230.666 78 387.999 78c83.333 0 169.833 -15.5 259.5 -46.5
s167.167 -86.5 232.5 -166.5s98 -187.667 98 -323v-1753zM564.997 -302.999c-52.667 -4 -95.834 -18.833 -129.501 -44.5s-50.5 -54.5 -50.5 -86.5c0 -34 16.833 -61 50.5 -81s76.834 -30 129.501 -30c83.333 3.33301 148.5 27 195.5 71s77.5 80.333 91.5 109
c-16 10.667 -47.667 23.667 -95 39s-111.333 23 -192 23zM261.997 102.001c40 0 71.167 14.332 93.5 42.999s33.5 62.334 33.5 101.001c0 39.333 -10.833 73 -32.5 101s-53.167 42 -94.5 42c-40 0 -71.167 -14 -93.5 -42s-33.5 -61.667 -33.5 -101
c0 -38 11.5 -71.5 34.5 -100.5s53.833 -43.5 92.5 -43.5z" />
    <glyph glyph-name="uni0E0F" unicode="&#xe0f;" horiz-adv-x="1602" 
d="M1282 -311l-0.00390625 1413c0 144.667 -50.333 248.334 -151 311.001s-206 94 -316 94c-114.667 0 -213.167 -16.833 -295.5 -50.5s-139.5 -61.834 -171.5 -84.501c2.66699 0 49 -17.667 139 -53c49.333 -18 93.833 -37.333 133.5 -58s66.167 -35.334 79.5 -44.001v-95
c-15.333 -4.66699 -37.666 -14.5 -66.999 -29.5s-56 -37.833 -80 -68.5c-32.667 -45.333 -49 -111 -49 -197v-581c0 -74 -23.167 -136.167 -69.5 -186.5s-103.833 -75.5 -172.5 -75.5c-68 0 -126 25.167 -174 75.5s-72 112.5 -72 186.5
c0 81.333 22.833 146.666 68.5 195.999s104.834 74 177.501 74c31.333 0 57.5 -3.66699 78.5 -11s35.833 -13.333 44.5 -18v414c0 88.667 20.5 151.5 61.5 188.5s75.167 58.833 102.5 65.5c-36 26 -89.5 52.5 -160.5 79.5s-126.833 46.833 -167.5 59.5v136
c36 34.667 104.667 78 206 130s230.666 78 387.999 78c83.333 0 169.833 -15.5 259.5 -46.5s167.167 -86.5 232.5 -166.5s98 -187.667 98 -323v-1753h-123l-184 262l-144 -262h-127l-114 147c-14 -28 -42.167 -63 -84.5 -105s-98.833 -63 -169.5 -63
c-62.667 0 -118 23 -166 69s-72 109 -72 189c0 72.667 22.833 131.834 68.5 177.501s102.167 68.5 169.5 68.5c56.667 0 104.667 -15.333 144 -46s66.333 -56.334 81 -77.001c6 0 17 37 33 111c6.66699 34.667 12 69.334 16 104.001s6.66699 60 8 76h123
c-3.33301 -24.667 -8.66602 -60 -15.999 -106s-15.666 -87 -24.999 -123c-6.66699 -44.667 -15.167 -80.167 -25.5 -106.5s-18.166 -44.166 -23.499 -53.499l115 -156l168 324h61l180 -283zM478.996 -291c-36.667 0 -67.002 -13.668 -91.002 -41.001
s-36 -54.666 -36 -81.999c0 -34.667 11.5 -65.167 34.5 -91.5s53.833 -39.5 92.5 -39.5c48 0 85.833 17.333 113.5 52s45.834 63.667 54.501 87c-10 19.333 -29.167 43.333 -57.5 72s-65.166 43 -110.499 43zM261.994 97.999c40.667 0 72 15.333 94 46s33 67.334 33 110.001
c0 40.667 -11 76.167 -33 106.5s-53.333 45.5 -94 45.5c-44.667 0 -79 -15.167 -103 -45.5s-36 -65.833 -36 -106.5c0 -42.667 12.167 -79.334 36.5 -110.001s58.5 -46 102.5 -46z" />
    <glyph glyph-name="uni0E10" unicode="&#xe10;" horiz-adv-x="1323" 
d="M1073 262c0 -106.667 -18.999 -179 -56.999 -217c-30 -30 -88.667 -45 -176 -45h-25c-36 0 -62 13.667 -78 41c-16 32 -24 51 -24 57l-119 471c-11.333 -17.333 -33.333 -39.333 -66 -66s-73.334 -40 -122.001 -40c-69.333 0 -127 26.5 -173 79.5s-69 119.167 -69 198.5
c0 77.333 23.5 141.833 70.5 193.5s104.167 77.5 171.5 77.5c71.333 0 129.5 -24.167 174.5 -72.5s75.5 -106.166 91.5 -173.499l151 -631h62c8.66699 0 23.667 4 45 12c16 12 24 36.667 24 74v561c0 114.667 -25.667 198 -77 250c-114 106.667 -309.333 160 -586 160
c-59.333 0 -111.833 -2 -157.5 -6s-77.834 -7.33301 -96.501 -10v102c22.667 57.333 74 129 154 215s196.667 129 350 129c92 0 186 -20.333 282 -61c104.667 -41.333 199 -62 283 -62c31.333 0 55.5 2.16699 72.5 6.5s28.167 7.83301 33.5 10.5l37 -127
c-6.66699 -4 -20.667 -9.16699 -42 -15.5s-51 -9.5 -89 -9.5c-97.333 0 -210.666 24.667 -339.999 74c-82.667 32.667 -163 49 -241 49c-102 0 -181.833 -22.5 -239.5 -67.5s-95.5 -82.5 -113.5 -112.5c8 0.666992 23 1.66699 45 3c22 0.666992 49.333 1 82 1
c302 0 522 -64.333 660 -193c68 -64.667 102 -168.334 102 -311.001v-545zM971.001 -627l0.00195312 86.0029c-7.33301 -5.33301 -20.5 -12 -39.5 -20s-41.5 -12 -67.5 -12c-61.333 0 -111.5 21.333 -150.5 64s-58.5 97.667 -58.5 165c0 65.333 20 121.333 60 168
s89.667 70 149 70c58.667 0 108.167 -23.667 148.5 -71s60.5 -103 60.5 -167v-512c0 -48.667 -9.66699 -88.334 -29 -119.001c-24.667 -24.667 -51.667 -37 -81 -37h-29l-201 242l-135 -242h-86l-123 148c-14.667 -28 -43.667 -63 -87 -105s-100.333 -63 -171 -63
c-62 0 -115.667 23 -161 69s-68 109 -68 189c0 72 22 131 66 177s98.333 69 163 69c56.667 0 104.667 -15.333 144 -46s66.333 -56.334 81 -77.001c9.33301 0 21.666 36.667 36.999 110c3.33301 33.333 7.66602 68.166 12.999 104.499l12 80.5h123
c-2 0 -14.333 -78 -37 -234c-9.33301 -39.333 -20 -73.333 -32 -102s-20.667 -48 -26 -58l107 -122l139 245h53l205 -237h21v237zM131.003 -650.997c-36.667 0 -65.666 -13.333 -86.999 -40s-32 -54.334 -32 -83.001c0 -37.333 10 -69.166 30 -95.499s49.667 -39.5 89 -39.5
c49.333 0 88.166 17.833 116.499 53.5s46.833 65.5 55.5 89.5c-10 19.333 -29.5 43.333 -58.5 72s-66.833 43 -113.5 43zM406.004 877.003c-37.333 0 -66.5 -13.833 -87.5 -41.5s-31.5 -60.5 -31.5 -98.5c0 -38.667 10.667 -72.167 32 -100.5s50.333 -42.5 87 -42.5
c40.667 0 72.667 14 96 42s35 61.667 35 101c0 38 -11.5 70.833 -34.5 98.5s-55.167 41.5 -96.5 41.5zM864.004 -220.997c-33.333 0 -59.333 -12.167 -78 -36.5s-28 -53.166 -28 -86.499c0 -30.667 9.66699 -58.167 29 -82.5s45 -36.5 77 -36.5c36 0 64.167 12 84.5 36
s30.5 51.667 30.5 83c0 33.333 -9.83301 62.166 -29.5 86.499s-48.167 36.5 -85.5 36.5z" />
    <glyph glyph-name="uni0E11" unicode="&#xe11;" horiz-adv-x="1847" 
d="M647 1057c20 10.667 45.1689 33.1689 75.502 67.502s46.166 80.166 47.499 137.499c0 73.333 -20.5 126.166 -61.5 158.499s-75.167 51.833 -102.5 58.5l-139 -99l-139 99c-11.333 -6 -28.833 -18.167 -52.5 -36.5s-48.5 -45.833 -74.5 -82.5
c-24.667 -32.667 -43.167 -63.167 -55.5 -91.5s-19.833 -48.5 -22.5 -60.5c8 10 23.5 22.333 46.5 37s53.833 23 92.5 25c66 0 120.833 -24.333 164.5 -73s65.5 -106.334 65.5 -173.001c0 -80 -22.167 -143 -66.5 -189s-98.833 -69 -163.5 -69
c-60.667 0 -119.5 28.333 -176.5 85s-85.5 140.334 -85.5 251.001c0 156 41 275.5 123 358.5s150.333 136.833 205 161.5l139 -106l139 106c44 -9.33301 100.333 -39 169 -89s108 -135 118 -255c0 -70 -15.333 -130.333 -46 -181s-56.334 -86 -77.001 -106v-225l-25 -225
l82 217l263 549c54 112.667 106.667 194.667 158 246s110.333 77 177 77c64.667 0 117 -22.167 157 -66.5s60 -113.5 60 -207.5v-1356h-126v1356c0 46 -9.33301 80.667 -28 104s-39.667 35 -63 35c-45.333 0 -88.833 -28.5 -130.5 -85.5s-96.5 -152.833 -164.5 -287.5
l-258 -565c-43.333 -93.333 -76 -189 -98 -287c-2.66699 -18.667 -4 -41.667 -4 -69v-201h-123v1057zM262.002 1159c-40 0 -71.167 -13.834 -93.5 -41.501s-33.5 -61.5 -33.5 -101.5c0 -38 11.5 -71.5 34.5 -100.5s53.833 -43.5 92.5 -43.5c40 0 71.167 14.333 93.5 43
s33.5 62.334 33.5 101.001c0 40.667 -10.833 74.667 -32.5 102s-53.167 41 -94.5 41z" />
    <glyph glyph-name="uni0E12" unicode="&#xe12;" horiz-adv-x="2154" 
d="M1380 606c20.667 -5.33301 54.498 -20.0029 101.498 -44.0029s96.5 -62.667 148.5 -116c55.333 -56 101 -109 137 -159s60 -85.667 72 -107l-12 156v1286h119v-1622h-119c-16 25.333 -45 66.333 -87 123s-96.333 120.667 -163 192
c-52 54.667 -94.833 92.334 -128.5 113.001s-56.5 32.334 -68.5 35.001v-217c0 -174.667 -75 -262 -225 -262c-67.333 0 -127.833 28.833 -181.5 86.5s-80.5 131.167 -80.5 220.5c0.666992 60 17.667 115.667 51 167s76.666 91.666 129.999 120.999s109 44 167 44h16v594
c0 98 -18.833 168.167 -56.5 210.5s-80.167 63.5 -127.5 63.5c-73.333 0 -126.666 -29.167 -159.999 -87.5s-53.666 -107.166 -60.999 -146.499h-82c-6.66699 39.333 -28 88.166 -64 146.499s-98 87.5 -186 87.5c-85.333 0 -156.5 -42 -213.5 -126s-85.5 -184 -85.5 -300
c6.66699 -106.667 26.667 -201.5 60 -284.5s77.5 -175.667 132.5 -278s85.167 -172.833 90.5 -211.5l12 -90v0c0 2.66699 4 23 12 61c2.66699 12.667 12.334 36 29.001 70l115 184c3.33301 12 12.666 26.167 27.999 42.5s26.333 25.5 33 27.5
c4.66699 4.66699 11 9.83398 19 15.501l18 12.5c-6 -2 -15 -4.5 -27 -7.5s-22 -4.5 -30 -4.5c-70 0 -129.167 25.5 -177.5 76.5s-72.5 115.5 -72.5 193.5c0 79.333 24.167 145 72.5 197s107.5 78 177.5 78c68 0 125.167 -26.167 171.5 -78.5s69.5 -117.833 69.5 -196.5
c0 -70 -12.333 -131.5 -37 -184.5s-65 -119.333 -121 -199s-101.667 -152.5 -137 -218.5c-62.667 -108 -94 -183 -94 -225v-45h-123v45c0 76.667 -12.167 144.334 -36.5 203.001s-65.833 142.167 -124.5 250.5s-102.667 204 -132 287s-46.333 180.167 -51 291.5
c0 98.667 18.167 189.5 54.5 272.5s87.333 149.167 153 198.5s138.5 74 218.5 74c90.667 0 158.834 -25.667 204.501 -77s74.5 -94 86.5 -128c12.667 34 39.667 76.667 81 128s100.333 77 177 77c112.667 0 192 -41.167 238 -123.5s69 -170.833 69 -265.5v-627z
M1016 290.997c0 -66.667 16.333 -115.5 49 -146.5s62.667 -46.5 90 -46.5c68 0 102 52 102 156v242c-38 0 -86.333 -12.667 -145 -38s-90.667 -81 -96 -167zM712.998 1020c-40 0 -71.1689 -14.001 -93.502 -42.001s-33.5 -61.667 -33.5 -101c0 -38 11.5 -71.5 34.5 -100.5
s53.833 -43.5 92.5 -43.5s68.834 14.333 90.501 43s32.5 62.334 32.5 101.001c0 39.333 -10.667 73 -32 101s-51.666 42 -90.999 42z" />
    <glyph glyph-name="uni0E13" unicode="&#xe13;" horiz-adv-x="2138" 
d="M1212 311l-8.00293 -109.998c13.333 21.333 38 56.5 74 105.5s83.667 103.833 143 164.5c57.333 60.667 110 104.334 158 131.001s82.667 43 104 49v971h123v-954c48.667 -4 112 -28.167 190 -72.5s125.333 -130.833 142 -259.5c0 -112.667 -28.333 -199.5 -85 -260.5
s-118.334 -91.5 -185.001 -91.5c-58 0 -103.333 21.833 -136 65.5s-49 100.834 -49 171.501v291c-18 -4.66699 -48.833 -20.334 -92.5 -47.001s-93.167 -73.667 -148.5 -141c-62.667 -74.667 -116.167 -147.334 -160.5 -218.001s-67.5 -106 -69.5 -106h-114v1102
c0 92.667 -21.167 169.5 -63.5 230.5s-96 105.333 -161 133s-132.167 41.5 -201.5 41.5c-114 0 -211.833 -16.833 -293.5 -50.5s-138.167 -61.834 -169.5 -84.501v0l139 -53c50 -18 94.167 -37.333 132.5 -58s63.833 -35.334 76.5 -44.001v-95
c-14.667 -4.66699 -36.667 -14.334 -66 -29.001s-57.666 -37.667 -84.999 -69c-30.667 -47.333 -46 -113 -46 -197v-340c10 4.66699 25.833 10.667 47.5 18s46.834 11 75.501 11c75.333 0 136.5 -24.5 183.5 -73.5s70.5 -114.5 70.5 -196.5
c0 -73.333 -25.333 -135.333 -76 -186s-110 -76 -178 -76c-67.333 0 -123.666 25.333 -168.999 76s-68 112.667 -68 186v655c0 90 19.333 153.333 58 190s71 58 97 64c-34 26 -85.833 52.5 -155.5 79.5s-124.167 46.833 -163.5 59.5v136c41.333 34.667 114.333 78 219 130
s228.334 78 371.001 78c88 0 173.167 -18.167 255.5 -54.5s150.333 -94.666 204 -174.999s80.5 -182.5 80.5 -306.5v-791zM1806 541.002v-319.998c0 -74.667 23.333 -114.334 70 -119.001c38.667 0 72.167 22 100.5 66s42.5 100 42.5 168
c-14.667 83.333 -46.5 138.166 -95.5 164.499s-88.167 39.833 -117.5 40.5zM482.997 102.004c40.667 0 72.665 14.333 95.998 43s35 62.334 35 101.001s-11.5 72.167 -34.5 100.5s-55.167 42.5 -96.5 42.5c-39.333 0 -69.666 -14 -90.999 -42s-32 -61.667 -32 -101
c0 -38.667 10.833 -72.334 32.5 -101.001s51.834 -43 90.501 -43z" />
    <glyph glyph-name="uni0E14" unicode="&#xe14;" horiz-adv-x="1602" 
d="M745 692c-69.333 0 -126.834 26.0029 -172.501 78.0029s-68.5 117.667 -68.5 197c0 73.333 24 136 72 188s104.333 78 169 78c72.667 0 131.834 -25.5 177.501 -76.5s68.5 -114.167 68.5 -189.5c0 -78 -14 -142.167 -42 -192.5s-77.833 -118.833 -149.5 -205.5
s-127.834 -164.334 -168.501 -233.001l-59.5 -95.5c-19 -31 -35 -62.833 -48 -95.5s-19.5 -66 -19.5 -100v-45h-119v45c0 68.667 -10.5 132.5 -31.5 191.5s-53.667 137 -98 234s-78.166 186.5 -101.499 268.5s-35 173 -35 273c4.66699 134.667 37.834 249.5 99.501 344.5
s141.167 166.333 238.5 214s201.666 71.5 312.999 71.5c122 0 231.333 -25.833 328 -77.5s172 -123.834 226 -216.501s81 -198 81 -316v-1032h-123v1012c0 99.333 -21.5 187.166 -64.5 263.499s-103.333 135.5 -181 177.5s-166.5 63 -266.5 63
c-163.333 0 -291.5 -51 -384.5 -153s-139.5 -226 -139.5 -372c0 -92.667 11.5 -177 34.5 -253s54.167 -157.667 93.5 -245s62 -148 68 -182l21 -65c-0.666992 0 -1 1.66699 -1 5c0 6 1.66699 18 5 36c5.33301 31.333 17.666 61.333 36.999 90l168 237
c3.33301 0 18.333 16.667 45 50c32.667 21.333 50.334 32 53.001 32v0c-2.66699 -0.666992 -6.5 -1.5 -11.5 -2.5s-9.5 -1.5 -13.5 -1.5zM744.999 1110c-38.667 0 -68.667 -14 -90 -42s-32 -61.667 -32 -101c0 -38.667 10.833 -72.334 32.5 -101.001s51.5 -43 89.5 -43
c40 0 71.167 14.333 93.5 43s33.5 62.334 33.5 101.001c0 39.333 -10.833 73 -32.5 101s-53.167 42 -94.5 42z" />
    <glyph glyph-name="uni0E15" unicode="&#xe15;" horiz-adv-x="1585" 
d="M770 1257c-6.66699 39.333 -28.0029 88.1641 -64.0029 146.497s-98 87.5 -186 87.5c-85.333 0 -156.5 -42 -213.5 -126s-85.5 -184 -85.5 -300c6.66699 -106.667 26.667 -201.5 60 -284.5s77.5 -175.667 132.5 -278s85.167 -172.833 90.5 -211.5l12 -90v0
c0 2.66699 4 23 12 61c2.66699 12.667 12.334 36 29.001 70l115 184c3.33301 12 12.666 26.167 27.999 42.5s26.333 25.5 33 27.5c4.66699 4.66699 11 9.83398 19 15.501l18 12.5c-6 -2 -15 -4.5 -27 -7.5s-22 -4.5 -30 -4.5c-70 0 -129.167 25.5 -177.5 76.5
s-72.5 115.5 -72.5 193.5c0 79.333 24.167 145 72.5 197s107.5 78 177.5 78c68 0 125.167 -26.167 171.5 -78.5s69.5 -117.833 69.5 -196.5c0 -70 -12.333 -131.5 -37 -184.5s-65 -119.333 -121 -199s-101.667 -152.5 -137 -218.5c-62.667 -108 -94 -183 -94 -225v-45h-123
v45c0 76.667 -12.167 144.334 -36.5 203.001s-65.833 142.167 -124.5 250.5s-102.667 204 -132 287s-46.333 180.167 -51 291.5c0 98.667 18.167 189.5 54.5 272.5s87.333 149.167 153 198.5s138.5 74 218.5 74c90.667 0 158.834 -25.667 204.501 -77s74.5 -94 86.5 -128
c12.667 34 39.667 76.667 81 128s100.333 77 177 77c112.667 0 192 -41.167 238 -123.5s69 -170.833 69 -265.5v-1233h-123v1217c0 98 -18.833 168.167 -56.5 210.5s-80.167 63.5 -127.5 63.5c-73.333 0 -126.666 -29.167 -159.999 -87.5s-53.666 -107.166 -60.999 -146.499
h-82zM712.997 1020c-40 0 -71.1689 -14.001 -93.502 -42.001s-33.5 -61.667 -33.5 -101c0 -38 11.5 -71.5 34.5 -100.5s53.833 -43.5 92.5 -43.5s68.834 14.333 90.501 43s32.5 62.334 32.5 101.001c0 39.333 -10.667 73 -32 101s-51.666 42 -90.999 42z" />
    <glyph glyph-name="uni0E16" unicode="&#xe16;" horiz-adv-x="1516" 
d="M360 487c10 4.66699 25.8311 10.6689 47.498 18.002s46.834 11 75.501 11c75.333 0 136.5 -24.5 183.5 -73.5s70.5 -114.5 70.5 -196.5c0 -73.333 -25.333 -135.333 -76 -186s-110 -76 -178 -76c-67.333 0 -123.666 25.333 -168.999 76s-68 112.667 -68 186v655
c0 90 19.333 153.333 58 190s71 58 97 64c-34 26 -85.833 52.5 -155.5 79.5s-124.167 46.833 -163.5 59.5v136c37.333 34.667 108.666 78 213.999 130s240 78 404 78c147.333 0 288 -40 422 -120s201 -218.667 201 -416v-1102h-119v1102c0 99.333 -27.833 179.333 -83.5 240
s-122 103.334 -199 128.001s-150.833 37 -221.5 37c-126 0 -231.5 -16.833 -316.5 -50.5s-143.167 -61.834 -174.5 -84.501v0l139 -53c50 -18 94.167 -37.333 132.5 -58s63.833 -35.334 76.5 -44.001v-95c-14.667 -4.66699 -36.667 -14.334 -66 -29.001
s-57.666 -37.667 -84.999 -69c-30.667 -47.333 -46 -113 -46 -197v-340zM482.998 102.002c40.667 0 72.665 14.333 95.998 43s35 62.334 35 101.001s-11.5 72.167 -34.5 100.5s-55.167 42.5 -96.5 42.5c-39.333 0 -69.666 -14 -90.999 -42s-32 -61.667 -32 -101
c0 -38.667 10.833 -72.334 32.5 -101.001s51.834 -43 90.501 -43z" />
    <glyph glyph-name="uni0E17" unicode="&#xe17;" horiz-adv-x="1585" 
d="M1155 1630c150 0 225 -91.333 225 -274v-1356h-123v1356c0 48 -10 83.167 -30 105.5s-44 33.5 -72 33.5c-45.333 0 -88 -28.5 -128 -85.5s-91.667 -152.833 -155 -287.5l-266 -565c-50 -104 -81.333 -199.667 -94 -287c-5.33301 -37.333 -8 -60.333 -8 -69v-201h-119
v1135c-8.66699 -6 -24 -13.667 -46 -23s-47.667 -14 -77 -14c-70.667 0 -129.334 26 -176.001 78s-70 117.333 -70 196c0 75.333 23.833 138.5 71.5 189.5s105.834 76.5 174.501 76.5c69.333 0 127 -25.667 173 -77s69 -114.333 69 -189v-606l-21 -225l82 217l258 549
c102 215.333 212.667 323 332 323zM262 1516c-40 0 -71.167 -14 -93.5 -42s-33.5 -62 -33.5 -102c0 -37.333 11.5 -70.5 34.5 -99.5s53.833 -43.5 92.5 -43.5c40 0 71.167 14.333 93.5 43s33.5 62 33.5 100c0 40 -10.833 74 -32.5 102s-53.167 42 -94.5 42z" />
    <glyph glyph-name="uni0E18" unicode="&#xe18;" horiz-adv-x="1339" 
d="M385 1184c-5.33301 0.666992 -13.668 1.5 -25.001 2.5s-22 1.5 -32 1.5c-56 0 -110 -1.5 -162 -4.5s-89.667 -5.5 -113 -7.5v102c22.667 57.333 74.334 129 155.001 215s198.334 129 353.001 129c91.333 0 187 -20.333 287 -61c104.667 -41.333 198.667 -62 282 -62
c31.333 0 56.166 2.16699 74.499 6.5s30.5 7.83301 36.5 10.5l37 -127c-6.66699 -4 -21.167 -9.16699 -43.5 -15.5s-54.166 -9.5 -95.499 -9.5c-98.667 0 -210.667 24.667 -336 74c-82.667 32.667 -163.334 49 -242.001 49c-104 0 -184.833 -22.5 -242.5 -67.5
s-95.5 -82.5 -113.5 -112.5c8 0.666992 23 1.66699 45 3c22 0.666992 49.333 1 82 1c302 0 520.333 -64.333 655 -193c74 -64.667 111 -168.334 111 -311.001v-545c0 -109.333 -19.333 -181.666 -58 -216.999c-38 -30 -96.667 -45 -176 -45h-602v135h123v1049zM503.998 135
l352 -0.000976562c46.667 0 76.667 5.66699 90 17c19.333 18.667 29 55.334 29 110.001v520c0 112 -26 195.333 -78 250c-57.333 53.333 -126.5 90 -207.5 110s-142.833 31.333 -185.5 34v-1041z" />
    <glyph glyph-name="uni0E19" unicode="&#xe19;" horiz-adv-x="1602" 
d="M1602 311c0 -97.333 -26.999 -176.167 -80.999 -236.5s-114.667 -90.5 -182 -90.5c-58.667 0 -104 21.667 -136 65s-48 100.666 -48 171.999v365c-76 0 -186.667 -63 -332 -189c-58 -50.667 -109.333 -104.667 -154 -162s-82.834 -110.833 -114.501 -160.5
s-48.5 -74.5 -50.5 -74.5h-119v1135c-8.66699 -6 -24 -13.667 -46 -23s-47.667 -14 -77 -14c-70.667 0 -129.334 26 -176.001 78s-70 117.333 -70 196c0 75.333 23.833 138.5 71.5 189.5s105.834 76.5 174.501 76.5c69.333 0 127 -25.667 173 -77s69 -114.333 69 -189v-1061
l-12 -110c17.333 30 50.833 77.833 100.5 143.5s111.5 129.834 185.5 192.501c84 70 160.5 117 229.5 141s118.167 37 147.5 39v905h127v-905c23.333 -2 59 -12 107 -30s95.5 -57 142.5 -117s70.5 -146.333 70.5 -259zM262.001 1516c-40 0 -71.167 -14 -93.5 -42
s-33.5 -62 -33.5 -102c0 -37.333 11.5 -70.5 34.5 -99.5s53.833 -43.5 92.5 -43.5c40 0 71.167 14.333 93.5 43s33.5 62 33.5 100c0 40 -10.833 74 -32.5 102s-53.167 42 -94.5 42zM1282 585.999v-365c0 -74.667 24.667 -114.334 74 -119.001c28 0 58.167 19.667 90.5 59
s48.5 89.333 48.5 150c-1.33301 110.667 -28.5 183.834 -81.5 219.501s-96.833 54.167 -131.5 55.5z" />
    <glyph glyph-name="uni0E1A" unicode="&#xe1a;" horiz-adv-x="1585" 
d="M385 135v999.999c-8.66699 -6 -24 -13.667 -46 -23s-47.667 -14 -77 -14c-70.667 0 -129.334 26 -176.001 78s-70 117.333 -70 196c0 75.333 23.833 138.5 71.5 189.5s105.834 76.5 174.501 76.5c69.333 0 127 -25.667 173 -77s69 -114.333 69 -189v-1237h635
c43.333 0 73.333 5.66699 90 17c18.667 22 28 58.667 28 110v1360h123v-1360c0 -103.333 -19 -175.666 -57 -216.999c-32.667 -30 -92.667 -45 -180 -45h-963v135h205zM262 1516c-40 0 -71.167 -14 -93.5 -42s-33.5 -62 -33.5 -102c0 -37.333 11.5 -70.5 34.5 -99.5
s53.833 -43.5 92.5 -43.5c40 0 71.167 14.333 93.5 43s33.5 62 33.5 100c0 40 -10.833 74 -32.5 102s-53.167 42 -94.5 42z" />
    <glyph glyph-name="uni0E1B" unicode="&#xe1b;" horiz-adv-x="1585" 
d="M385 135v999.999c-8.66699 -6 -24 -13.667 -46 -23s-47.667 -14 -77 -14c-70.667 0 -129.334 26 -176.001 78s-70 117.333 -70 196c0 75.333 23.833 138.5 71.5 189.5s105.834 76.5 174.501 76.5c69.333 0 127 -25.667 173 -77s69 -114.333 69 -189v-1237h635
c43.333 0 73.333 5.66699 90 17c18.667 22 28 58.667 28 110v2081h123v-2081c0 -103.333 -19 -175.666 -57 -216.999c-32.667 -30 -92.667 -45 -180 -45h-963v135h205zM262 1516c-40 0 -71.167 -14 -93.5 -42s-33.5 -62 -33.5 -102c0 -37.333 11.5 -70.5 34.5 -99.5
s53.833 -43.5 92.5 -43.5c40 0 71.167 14.333 93.5 43s33.5 62 33.5 100c0 40 -10.833 74 -32.5 102s-53.167 42 -94.5 42z" />
    <glyph glyph-name="uni0E1C" unicode="&#xe1c;" horiz-adv-x="1626" 
d="M1294 0l-454.001 696l-25 45l-29 -45l-458 -696h-127v1372c0 75.333 23 138.5 69 189.5s103.333 76.5 172 76.5c71.333 0 130.833 -25.167 178.5 -75.5s71.5 -113.833 71.5 -190.5c0 -80 -23.333 -145.667 -70 -197s-106.667 -77 -180 -77
c-27.333 0 -51.166 4.66699 -71.499 14s-34.5 17 -42.5 23v-799l-17 -156l90 156l377 565h74l365 -565l98 -156l-21 156v1286h131v-1622h-131zM441.999 1516c-40 0 -71.167 -13.999 -93.5 -41.999s-33.5 -62 -33.5 -102c0 -37.333 11.5 -70.5 34.5 -99.5
s53.833 -43.5 92.5 -43.5c40.667 0 72.667 14.333 96 43s35 62 35 100c0 39.333 -11.5 73.166 -34.5 101.499s-55.167 42.5 -96.5 42.5z" />
    <glyph glyph-name="uni0E1D" unicode="&#xe1d;" horiz-adv-x="1626" 
d="M1294 0l-454.001 696l-25 45l-29 -45l-458 -696h-127v1372c0 75.333 23 138.5 69 189.5s103.333 76.5 172 76.5c71.333 0 130.833 -25.167 178.5 -75.5s71.5 -113.833 71.5 -190.5c0 -80 -23.333 -145.667 -70 -197s-106.667 -77 -180 -77
c-27.333 0 -51.166 4.66699 -71.499 14s-34.5 17 -42.5 23v-799l-17 -156l90 156l377 565h74l365 -565l98 -156l-21 156v2007h131v-2343h-131zM441.999 1516c-40 0 -71.167 -13.999 -93.5 -41.999s-33.5 -62 -33.5 -102c0 -37.333 11.5 -70.5 34.5 -99.5
s53.833 -43.5 92.5 -43.5c40.667 0 72.667 14.333 96 43s35 62 35 100c0 39.333 -11.5 73.166 -34.5 101.499s-55.167 42.5 -96.5 42.5z" />
    <glyph glyph-name="uni0E1E" unicode="&#xe1e;" horiz-adv-x="1749" 
d="M1425 0l-413 1171l-54 181l-49 -181l-397 -1171h-127v1135c-8.66699 -6 -24 -13.667 -46 -23s-47.667 -14 -77 -14c-70.667 0 -129.334 26 -176.001 78s-70 117.333 -70 196c0 75.333 23.833 138.5 71.5 189.5s105.834 76.5 174.501 76.5c69.333 0 127 -25.667 173 -77
s69 -114.333 69 -189v-831l-21 -320l82 320l361 1081h57l377 -1081l82 -320l-17 320v1081h119v-1622h-119zM262 1516c-40 0 -71.167 -14 -93.5 -42s-33.5 -62 -33.5 -102c0 -37.333 11.5 -70.5 34.5 -99.5s53.833 -43.5 92.5 -43.5c40 0 71.167 14.333 93.5 43
s33.5 62 33.5 100c0 40 -10.833 74 -32.5 102s-53.167 42 -94.5 42z" />
    <glyph glyph-name="uni0E1F" unicode="&#xe1f;" horiz-adv-x="1749" 
d="M1425 0l-413 1171l-54 181l-49 -181l-397 -1171h-127v1135c-8.66699 -6 -24 -13.667 -46 -23s-47.667 -14 -77 -14c-70.667 0 -129.334 26 -176.001 78s-70 117.333 -70 196c0 75.333 23.833 138.5 71.5 189.5s105.834 76.5 174.501 76.5c69.333 0 127 -25.667 173 -77
s69 -114.333 69 -189v-831l-21 -320l82 320l361 1081h57l377 -1081l82 -320l-17 320v1802h119v-2343h-119zM262 1516c-40 0 -71.167 -14 -93.5 -42s-33.5 -62 -33.5 -102c0 -37.333 11.5 -70.5 34.5 -99.5s53.833 -43.5 92.5 -43.5c40 0 71.167 14.333 93.5 43
s33.5 62 33.5 100c0 40 -10.833 74 -32.5 102s-53.167 42 -94.5 42z" />
    <glyph glyph-name="uni0E20" unicode="&#xe20;" horiz-adv-x="1602" 
d="M385 901c0 88.667 20.499 151.502 61.499 188.502s75.167 58.833 102.5 65.5c-36 26 -89.5 52.5 -160.5 79.5s-126.833 46.833 -167.5 59.5v136c36 34.667 104.667 78 206 130s230.666 78 387.999 78c83.333 0 169.833 -15.5 259.5 -46.5s167.167 -86.5 232.5 -166.5
s98 -187.667 98 -323v-1102h-123v1102c0 144.667 -50.333 248.334 -151 311.001s-206 94 -316 94c-114.667 0 -213.167 -16.833 -295.5 -50.5s-139.5 -61.834 -171.5 -84.501c2.66699 0 49 -17.667 139 -53c49.333 -18 93.833 -37.333 133.5 -58
s66.167 -35.334 79.5 -44.001v-95c-15.333 -4.66699 -37.666 -14.5 -66.999 -29.5s-56 -37.833 -80 -68.5c-32.667 -45.333 -49 -111 -49 -197v-581c0 -74 -23.167 -136.167 -69.5 -186.5s-103.833 -75.5 -172.5 -75.5c-68 0 -126 25.167 -174 75.5s-72 112.5 -72 186.5
c0 81.333 22.833 146.666 68.5 195.999s104.834 74 177.501 74c31.333 0 57.5 -3.66699 78.5 -11s35.833 -13.333 44.5 -18v414zM261.999 102.002c40 0 71.167 14.332 93.5 42.999s33.5 62.334 33.5 101.001c0 39.333 -10.833 73 -32.5 101s-53.167 42 -94.5 42
c-40 0 -71.167 -14 -93.5 -42s-33.5 -61.667 -33.5 -101c0 -38 11.5 -71.5 34.5 -100.5s53.833 -43.5 92.5 -43.5z" />
    <glyph glyph-name="uni0E21" unicode="&#xe21;" horiz-adv-x="1602" 
d="M504 1135c-8 -6 -22.5 -13.667 -43.5 -23s-46.167 -14 -75.5 -14c-70 0 -129.833 26.167 -179.5 78.5s-74.5 117.5 -74.5 195.5c0 74.667 25 137.667 75 189s109.667 77 179 77c68.667 0 126.834 -25.5 174.501 -76.5s71.5 -114.167 71.5 -189.5v-688
c26 -3.33301 70 -16 132 -38s131.333 -61.333 208 -118c86 -64.667 155.167 -130.667 207.5 -198s88.166 -117.333 107.499 -150l-4 111v1331h123v-1622h-123c-26 37.333 -68.333 92.833 -127 166.5s-118.667 136.834 -180 189.501
c-84.667 71.333 -157.334 120 -218.001 146s-102.667 40.333 -126 43v-254c0 -204.667 -90.333 -307 -271 -307c-76.667 0 -142.167 29.5 -196.5 88.5s-81.5 146.833 -81.5 263.5c14.667 125.333 68.834 216.666 162.501 273.999s173.167 86 238.5 86h21v439zM201 336
c0 -68 14 -123.333 42 -166s67 -64 117 -64c96 0 144 64.333 144 193v258c-41.333 0 -96.5 -13.667 -165.5 -41s-114.833 -87.333 -137.5 -180zM385 1516c-41.333 0 -72.833 -14 -94.5 -42s-32.5 -62 -32.5 -102c0 -38 11.167 -71.333 33.5 -100s53.5 -43 93.5 -43
s71.167 14.333 93.5 43s33.5 62 33.5 100c0 40 -10.833 74 -32.5 102s-53.167 42 -94.5 42z" />
    <glyph glyph-name="uni0E22" unicode="&#xe22;" horiz-adv-x="1516" 
d="M770 717l-122.999 0.00195312c-134.667 0 -227.334 -31.333 -278.001 -94c-27.333 -34 -41 -88.667 -41 -164v-197c0 -54.667 6.66699 -91.334 20 -110.001c16.667 -11.333 46.667 -17 90 -17h639c46.667 0 78 5.66699 94 17c22 21.333 33 58 33 110v1360h119v-1360
c0 -107.333 -22 -179.666 -66 -216.999c-35.333 -30 -94 -45 -176 -45h-643c-82 0 -140.667 15 -176 45c-40.667 38 -61 110.333 -61 217v201c0 93.333 16.333 161.666 49 204.999c24.667 40 55.167 68.667 91.5 86s64.5 28 84.5 32
c-18.667 5.33301 -45.167 16.666 -79.5 33.999s-63.833 41.666 -88.5 72.999c-38 44 -57 112.333 -57 205v274c0 75.333 23 138.5 69 189.5s103.333 76.5 172 76.5c71.333 0 130.833 -25.167 178.5 -75.5s71.5 -113.833 71.5 -190.5c0 -80 -23.333 -145.667 -70 -197
s-106.667 -77 -180 -77c-27.333 0 -51.166 5.16699 -71.499 15.5s-34.5 18.833 -42.5 25.5v-49c0 -41.333 8 -86.666 24 -135.999c18.667 -26.667 54.667 -49.667 108 -69s115.666 -29 186.999 -29h123v-139zM442.001 1516c-40 0 -71.167 -13.999 -93.5 -41.999
s-33.5 -62 -33.5 -102c0 -37.333 11.5 -70.5 34.5 -99.5s53.833 -43.5 92.5 -43.5c40.667 0 72.667 14.333 96 43s35 62 35 100c0 39.333 -11.5 73.166 -34.5 101.499s-55.167 42.5 -96.5 42.5z" />
    <glyph glyph-name="uni0E23" unicode="&#xe23;" horiz-adv-x="1212" 
d="M975 807v-561.001c0 -72.667 -23.833 -134.5 -71.5 -185.5s-104.5 -76.5 -170.5 -76.5c-70 0 -129.833 25.167 -179.5 75.5s-74.5 112.5 -74.5 186.5c0 80.667 24 145.834 72 195.501s108.667 74.5 182 74.5c31.333 0 57 -3.66699 77 -11s34 -13.333 42 -18v295
c0 114.667 -26 198 -78 250c-96 90 -279 135 -549 135c-48.667 0 -99.334 -1.33301 -152.001 -4l-73 -4v0v74c20.667 64.667 69.834 145.667 147.501 243s195.167 146 352.5 146c71.333 0 139.666 -11 204.999 -33c130 -43.333 237.667 -65 323 -65c30 0 51.667 2 65 6
s21.666 7.33301 24.999 10l49 -123c-6 -4.66699 -20.167 -10.5 -42.5 -17.5s-55.833 -10.5 -100.5 -10.5c-88 0 -202.667 21.667 -344 65c-61.333 22 -124 33 -188 33c-112 0 -195.667 -27.167 -251 -81.5s-90.666 -99.5 -105.999 -135.5c12 1.33301 33 3 63 5
s66.333 3 109 3c258.667 0 444.334 -53.333 557.001 -160c74 -64 111 -167.667 111 -311zM733 101.999c40 0 71.167 14.333 93.5 43s33.5 62.334 33.5 101.001c0 39.333 -10.833 73 -32.5 101s-53.167 42 -94.5 42s-72.833 -14 -94.5 -42s-32.5 -61.667 -32.5 -101
c0 -38.667 11.167 -72.334 33.5 -101.001s53.5 -43 93.5 -43z" />
    <glyph glyph-name="uni0E24" unicode="&#xe24;" horiz-adv-x="1516" 
d="M360 487c10 4.66699 25.8311 10.6689 47.498 18.002s46.834 11 75.501 11c75.333 0 136.5 -24.5 183.5 -73.5s70.5 -114.5 70.5 -196.5c0 -73.333 -25.333 -135.333 -76 -186s-110 -76 -178 -76c-67.333 0 -123.666 25.333 -168.999 76s-68 112.667 -68 186v655
c0 90 19.333 153.333 58 190s71 58 97 64c-34 26 -85.833 52.5 -155.5 79.5s-124.167 46.833 -163.5 59.5v136c37.333 34.667 108.666 78 213.999 130s240 78 404 78c147.333 0 288 -40 422 -120s201 -218.667 201 -416v-1819h-119v1819c0 99.333 -27.833 179.333 -83.5 240
s-122 103.334 -199 128.001s-150.833 37 -221.5 37c-126 0 -231.5 -16.833 -316.5 -50.5s-143.167 -61.834 -174.5 -84.501v0l139 -53c50 -18 94.167 -37.333 132.5 -58s63.833 -35.334 76.5 -44.001v-95c-14.667 -4.66699 -36.667 -14.334 -66 -29.001
s-57.666 -37.667 -84.999 -69c-30.667 -47.333 -46 -113 -46 -197v-340zM482.998 102.002c40.667 0 72.665 14.333 95.998 43s35 62.334 35 101.001s-11.5 72.167 -34.5 100.5s-55.167 42.5 -96.5 42.5c-39.333 0 -69.666 -14 -90.999 -42s-32 -61.667 -32 -101
c0 -38.667 10.833 -72.334 32.5 -101.001s51.834 -43 90.501 -43z" />
    <glyph glyph-name="uni0E25" unicode="&#xe25;" horiz-adv-x="1483" 
d="M201 696c0 74 15.833 144.667 47.5 212s78.167 122 139.5 164s134 63 218 63c112 0 210.333 -33.333 295 -100s148.167 -133.5 190.5 -200.5s70.5 -117.167 84.5 -150.5l-21 172v184c0 148.667 -45.5 263.667 -136.5 345s-202.5 122 -334.5 122
c-156.667 0 -274.5 -41.333 -353.5 -124s-129.167 -151.667 -150.5 -207l-123 57c28 67.333 92.167 151.666 192.5 252.999s247.833 152 442.5 152c155.333 0 292.5 -48.833 411.5 -146.5s178.5 -242.5 178.5 -434.5v-1057h-127v451c0 16 -24.667 71.5 -74 166.5
s-114.666 182.333 -195.999 262s-174.333 119.5 -279 119.5c-96 0 -166.333 -31.167 -211 -93.5s-67 -125.166 -67 -188.499v-230c8 4.66699 21.667 10.667 41 18s43.666 11 72.999 11c75.333 0 135.833 -24.5 181.5 -73.5s68.5 -114.5 68.5 -196.5
c0 -75.333 -24 -137.833 -72 -187.5s-107.333 -74.5 -178 -74.5c-67.333 0 -124.333 25.5 -171 76.5s-70 112.833 -70 185.5v450zM442 102c40.667 0 72.667 14.332 96 42.999s35 62.334 35 101.001s-11.5 72.167 -34.5 100.5s-55.167 42.5 -96.5 42.5
c-40 0 -71.167 -14 -93.5 -42s-33.5 -61.667 -33.5 -101c0 -38 11.5 -71.5 34.5 -100.5s53.833 -43.5 92.5 -43.5z" />
    <glyph glyph-name="uni0E26" unicode="&#xe26;" horiz-adv-x="1602" 
d="M385 901c0 88.667 20.499 151.502 61.499 188.502s75.167 58.833 102.5 65.5c-36 26 -89.5 52.5 -160.5 79.5s-126.833 46.833 -167.5 59.5v136c36 34.667 104.667 78 206 130s230.666 78 387.999 78c83.333 0 169.833 -15.5 259.5 -46.5s167.167 -86.5 232.5 -166.5
s98 -187.667 98 -323v-1819h-123v1819c0 144.667 -50.333 248.334 -151 311.001s-206 94 -316 94c-114.667 0 -213.167 -16.833 -295.5 -50.5s-139.5 -61.834 -171.5 -84.501c2.66699 0 49 -17.667 139 -53c49.333 -18 93.833 -37.333 133.5 -58
s66.167 -35.334 79.5 -44.001v-95c-15.333 -4.66699 -37.666 -14.5 -66.999 -29.5s-56 -37.833 -80 -68.5c-32.667 -45.333 -49 -111 -49 -197v-581c0 -74 -23.167 -136.167 -69.5 -186.5s-103.833 -75.5 -172.5 -75.5c-68 0 -126 25.167 -174 75.5s-72 112.5 -72 186.5
c0 81.333 22.833 146.666 68.5 195.999s104.834 74 177.501 74c31.333 0 57.5 -3.66699 78.5 -11s35.833 -13.333 44.5 -18v414zM261.999 102.002c40 0 71.167 14.332 93.5 42.999s33.5 62.334 33.5 101.001c0 39.333 -10.833 73 -32.5 101s-53.167 42 -94.5 42
c-40 0 -71.167 -14 -93.5 -42s-33.5 -61.667 -33.5 -101c0 -38 11.5 -71.5 34.5 -100.5s53.833 -43.5 92.5 -43.5z" />
    <glyph glyph-name="uni0E27" unicode="&#xe27;" horiz-adv-x="1282" 
d="M954 1077c0 103.333 -20.332 187.334 -60.999 252.001s-88.834 110.5 -144.501 137.5s-108.5 40.5 -158.5 40.5c-146 0 -257.5 -51.167 -334.5 -153.5s-126.833 -187.5 -149.5 -255.5l-106 61c10 35.333 33.5 88.666 70.5 159.999s99.333 142.333 187 213
s198.5 106 332.5 106c140 0 255.5 -49.333 346.5 -148s136.5 -228 136.5 -388v-856c0 -74.667 -23.167 -137 -69.5 -187s-105.166 -75 -176.499 -75c-66 0 -122.667 25.333 -170 76s-71 112.667 -71 186c0 80 22.833 145 68.5 195s103.167 75 172.5 75
c33.333 0 60.666 -3.66699 81.999 -11s36.333 -13.333 45 -18v590zM827.001 102.001c40 0 71.167 14.332 93.5 42.999s33.5 62.334 33.5 101.001c0 39.333 -10.833 73 -32.5 101s-53.167 42 -94.5 42c-40 0 -71.167 -14 -93.5 -42s-33.5 -61.667 -33.5 -101
c0 -38 11.5 -71.5 34.5 -100.5s53.833 -43.5 92.5 -43.5z" />
    <glyph glyph-name="uni0E28" unicode="&#xe28;" horiz-adv-x="1602" 
d="M1262 1434c12.667 -16.667 30.332 -41.998 52.999 -75.998s39 -66 49 -96c27.333 -99.333 41 -176 41 -230v-1032h-123v1012c0 99.333 -21.5 187.166 -64.5 263.499s-103.333 135.5 -181 177.5s-166.5 63 -266.5 63c-163.333 0 -291.5 -51 -384.5 -153
s-139.5 -226 -139.5 -372c0 -61.333 6.16699 -115.833 18.5 -163.5s29 -95.334 50 -143.001s32.167 -73.834 33.5 -78.501l78 -184l-25 184v295c0 74 24.333 138.333 73 193s106.334 82 173.001 82c68 0 126.667 -26.333 176 -79s74 -116.667 74 -192
c0 -80.667 -24.167 -147.167 -72.5 -199.5s-107.5 -78.5 -177.5 -78.5c-38.667 2 -70 11.333 -94 28s-40.333 30.334 -49 41.001l20 -69v-627h-123v106c0 67.333 -11.667 130.833 -35 190.5s-58 134.5 -104 224.5s-81.333 172.333 -106 247s-37 156 -37 244
c4.66699 134.667 37.834 249.5 99.501 344.5s141.167 166.333 238.5 214s201.666 71.5 312.999 71.5c103.333 0 188.5 -14.667 255.5 -44s112.833 -54 137.5 -74h-1c0 4 29 28.333 87 73c61.333 51.333 102.333 100 123 146s31.667 79.333 33 100h139
c0 -31.333 -14.167 -81.5 -42.5 -150.5s-90.5 -140.167 -186.5 -213.5c-14 -14 -25.5 -24.5 -34.5 -31.5s-15.167 -11.5 -18.5 -13.5zM646.998 1040c-39.333 0 -70.333 -13.667 -93 -41s-34 -60 -34 -98c0 -40 11.167 -73.833 33.5 -101.5s53.5 -41.5 93.5 -41.5
c41.333 0 72.833 13.667 94.5 41s32.5 61.333 32.5 102c0 38.667 -11 71.5 -33 98.5s-53.333 40.5 -94 40.5z" />
    <glyph glyph-name="uni0E29" unicode="&#xe29;" horiz-adv-x="1642" 
d="M1380 262c0 -106.667 -18.9961 -178.997 -56.9961 -216.997c-32.667 -30 -92.667 -45 -180 -45h-963v135h205v1000c-8.66699 -6 -24 -13.667 -46 -23s-47.667 -14 -77 -14c-70.667 0 -129.334 26 -176.001 78s-70 117.333 -70 196c0 75.333 23.833 138.5 71.5 189.5
s105.834 76.5 174.501 76.5c69.333 0 127 -25.667 173 -77s69 -114.333 69 -189v-1237h635c43.333 0 73.333 5.66699 90 17c18.667 22 28 58.667 28 110v447c-10.667 -5.33301 -30.667 -12.333 -60 -21s-68 -14 -116 -16c-122.667 0 -217.5 30 -284.5 90
s-100.5 132.333 -100.5 217c0 62 19.167 117.167 57.5 165.5s90.166 72.5 155.499 72.5c64.667 0 117.667 -22.5 159 -67.5s62 -101.833 62 -170.5c0 -54.667 -12.167 -96.834 -36.5 -126.501s-44.833 -48.834 -61.5 -57.501h70c36 0 68 4 96 12s47.667 14.667 59 20v795
h123v-729c8.66699 4.66699 21.5 13 38.5 25s32.833 25.333 47.5 40c51.333 54.667 88.666 101.334 111.999 140.001s38 66 44 82l102 -58c-8.66699 -20.667 -26.334 -52.834 -53.001 -96.501s-63.334 -87.834 -110.001 -132.501c-40 -42 -76.833 -74.833 -110.5 -98.5
s-57.167 -38.5 -70.5 -44.5v-488zM909.004 864.003c34.667 0 61.167 11.332 79.5 33.999s27.5 49.667 27.5 81c0 30 -9 56 -27 78s-44.667 33 -80 33c-31.333 0 -55.5 -11.167 -72.5 -33.5s-25.5 -48.166 -25.5 -77.499c0 -31.333 8.66699 -58.333 26 -81s41.333 -34 72 -34
zM262.004 1516c-40 0 -71.167 -14 -93.5 -42s-33.5 -62 -33.5 -102c0 -37.333 11.5 -70.5 34.5 -99.5s53.833 -43.5 92.5 -43.5c40 0 71.167 14.333 93.5 43s33.5 62 33.5 100c0 40 -10.833 74 -32.5 102s-53.167 42 -94.5 42z" />
    <glyph glyph-name="uni0E2A" unicode="&#xe2a;" horiz-adv-x="1483" 
d="M1282 1057l0.00195312 -1057h-127v451c0 16 -24.667 71.5 -74 166.5s-114.666 182.333 -195.999 262s-174.333 119.5 -279 119.5c-96 0 -166.333 -31.167 -211 -93.5s-67 -125.166 -67 -188.499v-230c8 4.66699 21.667 10.667 41 18s43.666 11 72.999 11
c75.333 0 135.833 -24.5 181.5 -73.5s68.5 -114.5 68.5 -196.5c0 -75.333 -24 -137.833 -72 -187.5s-107.333 -74.5 -178 -74.5c-67.333 0 -124.333 25.5 -171 76.5s-70 112.833 -70 185.5v450c0 74 15.833 144.667 47.5 212s78.167 122 139.5 164s134 63 218 63
c112 0 210.333 -33.333 295 -100s148.167 -133.5 190.5 -200.5s70.5 -117.167 84.5 -150.5l-21 172v184c0 148.667 -45.5 263.667 -136.5 345s-202.5 122 -334.5 122c-156.667 0 -274.5 -41.333 -353.5 -124s-129.167 -151.667 -150.5 -207l-123 57
c28 67.333 92.167 151.666 192.5 252.999s247.833 152 442.5 152c92 0 169.667 -13.167 233 -39.5s107.333 -48.5 132 -66.5c5.33301 0 29.666 21.667 72.999 65c60 52 100 100.833 120 146.5s30.667 78.834 32 99.501h143c-0.666992 -31.333 -15.667 -81.5 -45 -150.5
s-92 -140.167 -188 -213.5c-8.66699 -3.33301 -17.334 -9.66602 -26.001 -18.999s-15 -16.666 -19 -21.999c10 -10.667 25.5 -31.167 46.5 -61.5s39.5 -65.833 55.5 -106.5c22 -61.333 33 -132.333 33 -213zM442.002 101.997c40.667 0 72.667 14.332 96 42.999
s35 62.334 35 101.001s-11.5 72.167 -34.5 100.5s-55.167 42.5 -96.5 42.5c-40 0 -71.167 -14 -93.5 -42s-33.5 -61.667 -33.5 -101c0 -38 11.5 -71.5 34.5 -100.5s53.833 -43.5 92.5 -43.5z" />
    <glyph glyph-name="uni0E2B" unicode="&#xe2b;" horiz-adv-x="1585" 
d="M1217 1049c-11.333 17.333 -26.167 29.5029 -44.5 36.5029s-32.5 11.167 -42.5 12.5c-62.667 0 -115.667 -38.333 -159 -115c-16.667 -22.667 -29 -44.334 -37 -65.001l-430 -918h-119v1135c-8.66699 -6 -24 -13.667 -46 -23s-47.667 -14 -77 -14
c-70.667 0 -129.334 26 -176.001 78s-70 117.333 -70 196c0 75.333 23.833 138.5 71.5 189.5s105.834 76.5 174.501 76.5c69.333 0 127 -25.667 173 -77s69 -114.333 69 -189v-966l-21 -226l78 226l266 585l37.5 54.5c22.333 32.333 34.5 49.833 36.5 52.5
c21.333 20 40 34 56 42s27.333 13 34 15c-16 12 -36.333 36 -61 72s-37 84.333 -37 145c0 80 23.5 144.333 70.5 193s105.5 73 175.5 73c73.333 0 133.333 -24.167 180 -72.5s70 -112.833 70 -193.5c0 -63.333 -12.833 -113.5 -38.5 -150.5s-47.167 -61.833 -64.5 -74.5
c8.66699 -4 21.167 -12.167 37.5 -24.5s28.5 -27.5 36.5 -45.5c13.333 -32.667 20 -95.334 20 -188.001v-889h-123v889c0 79.333 -13.333 132.666 -40 159.999zM261.999 1516c-40 0 -71.167 -14 -93.5 -42s-33.5 -62 -33.5 -102c0 -37.333 11.5 -70.5 34.5 -99.5
s53.833 -43.5 92.5 -43.5c40 0 71.167 14.333 93.5 43s33.5 62 33.5 100c0 40 -10.833 74 -32.5 102s-53.167 42 -94.5 42zM1139 1516c-39.333 0 -69.668 -13.999 -91.001 -41.999s-32 -62 -32 -102c0 -38 10.833 -71.333 32.5 -100s51.834 -43 90.501 -43
c40.667 0 72.667 14.333 96 43s35 62 35 100c0 39.333 -11.5 73.166 -34.5 101.499s-55.167 42.5 -96.5 42.5z" />
    <glyph glyph-name="uni0E2C" unicode="&#xe2c;" horiz-adv-x="1749" 
d="M1544 0h-119.002l-413 1171l-54 181l-49 -181l-397 -1171h-127v1135c-8.66699 -6 -24 -13.667 -46 -23s-47.667 -14 -77 -14c-70.667 0 -129.334 26 -176.001 78s-70 117.333 -70 196c0 75.333 23.833 138.5 71.5 189.5s105.834 76.5 174.501 76.5
c69.333 0 127 -25.667 173 -77s69 -114.333 69 -189v-831l-21 -320l82 320l361 1081h57l377 -1081l82 -320l-17 320v1081l17 61c-11.333 -10 -31.5 -22.667 -60.5 -38s-62.167 -23 -99.5 -23c-70.667 0 -130 25.667 -178 77s-72 117 -72 197c0 74.667 24.333 138.5 73 191.5
s107.667 79.5 177 79.5c78 -1.33301 134 -26 168 -74s54.333 -87.667 61 -119c8 0 17.667 30 29 90c6.66699 29.333 12.667 65.666 18 109c5.33301 43.333 9 76.666 11 100h114c-0.666992 -33.333 -5.66699 -86 -15 -158s-28.666 -146.333 -57.999 -223
c-11.333 -28.667 -23.666 -54.167 -36.999 -76.5s-23 -37.833 -29 -46.5v-1769zM1282 2036c-40 0 -71.1689 -13.833 -93.502 -41.5s-33.5 -60.5 -33.5 -98.5c0 -38.667 11.5 -72.167 34.5 -100.5s53.833 -42.5 92.5 -42.5s68.834 14 90.501 42s32.5 61.667 32.5 101
c0 38.667 -10.667 71.667 -32 99s-51.666 41 -90.999 41zM261.996 1516c-40 0 -71.167 -14 -93.5 -42s-33.5 -62 -33.5 -102c0 -37.333 11.5 -70.5 34.5 -99.5s53.833 -43.5 92.5 -43.5c40 0 71.167 14.333 93.5 43s33.5 62 33.5 100c0 40 -10.833 74 -32.5 102
s-53.167 42 -94.5 42z" />
    <glyph glyph-name="uni0E2D" unicode="&#xe2d;" horiz-adv-x="1442" 
d="M1241 262c0 -107.333 -21.668 -179.666 -65.001 -216.999c-33.333 -30 -92.333 -45 -177 -45h-561c-82 0 -140.667 15 -176 45c-40.667 38 -61 110.333 -61 217v549c0 73.333 23.333 136 70 188s103.667 78 171 78c70 0 129.167 -25.833 177.5 -77.5
s72.5 -114.5 72.5 -188.5c0 -82 -23.167 -148.167 -69.5 -198.5s-106.5 -75.5 -180.5 -75.5c-27.333 0 -51.166 4.5 -71.499 13.5s-34.5 16.5 -42.5 22.5v-311c0 -54.667 6.66699 -91.334 20 -110.001c16.667 -11.333 46.667 -17 90 -17h557
c46.667 0 78.334 5.66699 95.001 17c18.667 18.667 28 55.334 28 110.001v828c0 115.333 -41.333 213.666 -124 294.999s-194.334 122 -335.001 122c-104.667 0 -191.834 -22.333 -261.501 -67s-119.167 -89 -148.5 -133s-48 -77 -56 -99l-111 54
c21.333 62.667 76 141 164 235s225.667 141 413 141c107.333 0 205.333 -22.667 294 -68s158.834 -108.833 210.501 -190.5s77.5 -174.167 77.5 -277.5v-840zM441.999 950c-39.333 0 -70.333 -13.667 -93 -41s-34 -60 -34 -98c0 -40 11.167 -73.833 33.5 -101.5
s53.5 -41.5 93.5 -41.5c41.333 0 73.5 13.833 96.5 41.5s34.5 61.5 34.5 101.5c0 38 -11.5 70.667 -34.5 98s-55.167 41 -96.5 41z" />
    <glyph glyph-name="uni0E2E" unicode="&#xe2e;" horiz-adv-x="1442" 
d="M1057 1307c-159.333 -144.667 -338.336 -217.001 -537.003 -217.001c-103.333 0 -191.833 20.667 -265.5 62s-113.5 93 -119.5 155c0 46.667 19 94.5 57 143.5s93.333 89.833 166 122.5s159.334 49 260.001 49c114 0 208.833 -17.833 284.5 -53.5
s127.167 -65.5 154.5 -89.5c38 48 66.167 99.5 84.5 154.5s29.833 96.167 34.5 123.5h135c-4.66699 -34.667 -19.167 -87.834 -43.5 -159.501s-65.833 -141.167 -124.5 -208.5c16.667 -19.333 37.167 -53.666 61.5 -102.999s36.5 -110.666 36.5 -183.999v-840
c0 -107.333 -21.667 -179.666 -65 -216.999c-33.333 -30 -92.333 -45 -177 -45h-561c-82 0 -140.667 15 -176 45c-40.667 38 -61 110.333 -61 217v455c0 74 23.5 138.167 70.5 192.5s103.833 81.5 170.5 81.5c70 0 129.167 -26.667 177.5 -80s72.5 -118 72.5 -194
c0 -82 -23 -147.667 -69 -197s-106.333 -74 -181 -74c-27.333 0 -51.166 4.16699 -71.499 12.5s-34.5 15.166 -42.5 20.499v-217c0 -54.667 6.66699 -91.334 20 -110.001c16.667 -11.333 46.667 -17 90 -17h557c46.667 0 78.334 5.66699 95.001 17
c18.667 18.667 28 55.334 28 110.001v828c0 68 -7.66699 118.833 -23 152.5s-28 55.167 -38 64.5zM441.997 859.999c-39.333 0 -70.333 -13.667 -93 -41s-34 -60 -34 -98c0 -40 11.167 -73.833 33.5 -101.5s53.5 -41.5 93.5 -41.5c41.333 0 73.5 13.833 96.5 41.5
s34.5 61.5 34.5 101.5c0 38 -11.5 70.667 -34.5 98s-55.167 41 -96.5 41zM605.997 1495c-109.333 0 -194.001 -20.499 -254.001 -61.499s-90 -80.5 -90 -118.5c4 -30 34.333 -53.833 91 -71.5s127.334 -26.5 212.001 -26.5c105.333 5.33301 192.833 28.666 262.5 69.999
s117.5 75.333 143.5 102c-22 18 -63.667 40.167 -125 66.5s-141.333 39.5 -240 39.5z" />
    <glyph glyph-name="uni0E2F" unicode="&#xe2f;" horiz-adv-x="1425" 
d="M426 1032c-122.667 0 -224.329 32.168 -304.996 96.501s-121 145.5 -121 243.5c0 67.333 20.167 125.833 60.5 175.5s89.833 74.5 148.5 74.5c66.667 0 119.5 -22 158.5 -66s58.5 -101.333 58.5 -172c0 -67.333 -16.333 -117 -49 -149s-60 -51.667 -82 -59
c9.33301 -3.33301 25.666 -7.66602 48.999 -12.999s50.666 -8 81.999 -8c109.333 16 188.666 49.167 237.999 99.5s108.666 124.166 177.999 221.499s127.333 146 174 146h20c40.667 0 77.667 -15 111 -45c43.333 -38 65 -128 65 -270v-1307h-114v1393
c0 24 -6.66699 45 -20 63s-30 27 -50 27c-14 0 -45 -32.5 -93 -97.5s-88 -116.833 -120 -155.5s-82.167 -79.334 -150.5 -122.001s-147.833 -68 -238.5 -76zM209.005 1270c34 0 60.167 11.1699 78.5 33.5029s27.5 49.166 27.5 80.499c0 29.333 -9.16699 55.166 -27.5 77.499
s-44.5 33.5 -78.5 33.5c-30.667 0 -54.667 -11 -72 -33s-26 -48 -26 -78c0 -30.667 8.66699 -57.334 26 -80.001s41.333 -34 72 -34z" />
    <glyph glyph-name="uni0E30" unicode="&#xe30;" horiz-adv-x="1212" 
d="M328 188c11.333 -10.667 35.333 -24.168 72 -40.501s86.334 -24.5 149.001 -24.5c112.667 0 210.5 41.833 293.5 125.5s129.833 182.5 140.5 296.5l8 61h127l-4 -49c-8.66699 -143.333 -64 -272 -166 -386s-235 -171 -399 -171c-137.333 0 -246.833 39.667 -328.5 119
s-122.5 170.666 -122.5 273.999c0 70.667 20.167 131.334 60.5 182.001s92.5 76 156.5 76c63.333 0 114.666 -22.667 153.999 -68s59 -101.666 59 -168.999s-19.833 -121.833 -59.5 -163.5s-85.167 -62.5 -136.5 -62.5h-4zM328 1159
c11.333 -11.333 35.333 -25.668 72 -43.001s86.334 -26 149.001 -26c74 0 143 19.5 207 58.5s116 91.333 156 157s63.667 137.167 71 214.5l8 57h127l-4 -45c-13.333 -148.667 -69.833 -280 -169.5 -394s-231.5 -171 -395.5 -171c-93.333 0 -173.833 19 -241.5 57
s-119.5 87.5 -155.5 148.5s-54 123.5 -54 187.5c0 70.667 20.333 132 61 184s92.667 78 156 78s114.666 -22.167 153.999 -66.5s59 -101.5 59 -171.5c0 -65.333 -20.333 -119.166 -61 -161.499s-85.667 -63.5 -135 -63.5h-4zM315 302.997c32 0 56.499 11.167 73.499 33.5
s25.5 49.5 25.5 81.5c0 29.333 -8.66699 55 -26 77s-41.666 33 -72.999 33s-56.166 -11 -74.499 -33s-27.5 -47.667 -27.5 -77c0 -31.333 9.16699 -58.333 27.5 -81s43.166 -34 74.499 -34zM314.999 1270c32 0 56.499 11.1689 73.499 33.502s25.5 49.166 25.5 80.499
c0 30 -8.66699 56 -26 78s-41.666 33 -72.999 33s-56.166 -11 -74.499 -33s-27.5 -48 -27.5 -78c0 -30.667 9.16699 -57.334 27.5 -80.001s43.166 -34 74.499 -34z" />
    <glyph glyph-name="uni0E31" unicode="&#xe31;" 
d="M-696 2077c9.33301 -5.33301 29.832 -12.166 61.499 -20.5c31.667 -8.33301 75.167 -12.5 130.5 -12.5c162 6.66699 279.667 63.334 353 170c73.333 106.667 118.333 194.667 135 264l114 -45c-7.33301 -37.333 -28 -94 -62 -170s-95.833 -152.5 -185.5 -229.5
s-207.834 -117.167 -354.501 -120.5c-142 0 -258.667 34.333 -350 103s-137 154.334 -137 257c0 67.333 20.333 125.833 61 175.5s91.334 74.5 152.001 74.5c65.333 0 117.833 -22.167 157.5 -66.5s59.5 -101.166 59.5 -170.5
c-1.33301 -67.333 -18.666 -117.166 -51.999 -149.5c-33.333 -32.333 -61 -52.166 -83 -59.5zM-778.001 2167c31.333 0 56.166 11.167 74.499 33.5s27.5 49.166 27.5 80.5c0 31.333 -9.16699 58.333 -27.5 81s-43.166 34 -74.499 34c-32 0 -56.5 -11.167 -73.5 -33.5
s-25.5 -49.5 -25.5 -81.5c0 -31.333 8.5 -58.166 25.5 -80.5c17 -22.333 41.5 -33.5 73.5 -33.5z" />
    <glyph glyph-name="uni0E32" unicode="&#xe32;" horiz-adv-x="1016" 
d="M692 0v1171c0 110.667 -26.333 194.334 -79 251.001s-123.334 85 -212.001 85c-82 0 -148.5 -21.5 -199.5 -64.5s-85.5 -78.833 -103.5 -107.5l-90 66c20.667 39.333 63.167 88.666 127.5 147.999s152.833 89 265.5 89c120.667 0 219.834 -39.833 297.501 -119.5
s116.5 -192.5 116.5 -338.5v-1180h-123z" />
    <glyph glyph-name="uni0E33" unicode="&#xe33;" horiz-adv-x="1016" 
d="M692 0v1171c0 110.667 -26.333 194.334 -79 251.001s-123.334 85 -212.001 85c-82 0 -148.5 -21.5 -199.5 -64.5s-85.5 -78.833 -103.5 -107.5l-90 66c20.667 39.333 63.167 88.666 127.5 147.999s152.833 89 265.5 89c120.667 0 219.834 -39.833 297.501 -119.5
s116.5 -192.5 116.5 -338.5v-1180h-123zM-426 1913c-69.333 0 -123.501 24.832 -162.501 74.499s-58.5 108.167 -58.5 175.501c0 66 19.333 123.333 58 172s93 73 163 73s125 -24.167 165 -72.5s60 -105.833 60 -172.5c0 -68 -20.167 -126.667 -60.5 -176
s-95.166 -74 -164.499 -74zM-426.001 2294c-37.333 0 -66.5 -13 -87.5 -39s-31.5 -56.667 -31.5 -92c0 -36 10.5 -66.833 31.5 -92.5s50.167 -38.5 87.5 -38.5s66.5 12.833 87.5 38.5s31.5 56.5 31.5 92.5c0 34.667 -10.5 65.167 -31.5 91.5s-50.167 39.5 -87.5 39.5z" />
    <glyph glyph-name="uni0E34" unicode="&#xe34;" 
d="M-786 2028c-132.667 0 -248.333 -17 -347 -51s-167.334 -62.333 -206.001 -85v136c22.667 77.333 77.834 173.666 165.501 289c87.667 115.333 222.167 173 403.5 173c182 -1.33301 316.833 -59.5 404.5 -174.5s142.5 -210.833 164.5 -287.5v-136
c-42.667 22.667 -116.667 51 -222 85s-226.333 51 -363 51zM-769.999 2363c-132.667 0 -234.332 -39.833 -304.999 -119.5s-116.334 -146.167 -137.001 -199.5c26 18.667 74.833 41.667 146.5 69s164.834 41 279.501 41c128 0 232.5 -14.667 313.5 -44
s136.167 -54 165.5 -74c-10 23.333 -31.333 58.833 -64 106.5s-83.334 95.667 -152.001 144s-151 73.833 -247 76.5z" />
    <glyph glyph-name="uni0E35" unicode="&#xe35;" 
d="M-401 2388l0.000976562 315h118v-499c10 -16 23.833 -43.667 41.5 -83s31.167 -70.333 40.5 -93v-136c-42.667 22.667 -116.667 51 -222 85s-226.333 51 -363 51c-132.667 0 -248.334 -17 -347.001 -51s-167.334 -62.333 -206.001 -85v136
c22.667 77.333 77.834 173.666 165.501 289c87.667 115.333 222.167 173 403.5 173c104.667 -1.33301 189.5 -23.333 254.5 -66s108.5 -78 130.5 -106zM-769.999 2363c-132.667 0 -234.332 -39.833 -304.999 -119.5s-116.334 -146.167 -137.001 -199.5
c26 18.667 74.833 41.667 146.5 69s164.834 41 279.501 41c128 0 232.5 -14.667 313.5 -44s136.167 -54 165.5 -74c-10 23.333 -31.333 58.833 -64 106.5s-83.334 95.667 -152.001 144s-151 73.833 -247 76.5z" />
    <glyph glyph-name="uni0E36" unicode="&#xe36;" 
d="M-373 2314c8 0 34 -31.333 78 -94c28.667 -40.667 50.334 -78.667 65.001 -114s24.334 -61.333 29.001 -78v-136c-42.667 22.667 -116.667 51 -222 85s-226.333 51 -363 51c-132.667 0 -248.334 -17 -347.001 -51s-167.334 -62.333 -206.001 -85v136
c22.667 77.333 77.834 173.666 165.501 289c87.667 115.333 222.167 173 403.5 173c24 0 42.167 -1 54.5 -3s20.166 -3.66699 23.499 -5c-5.33301 0 -8 23.333 -8 70c0 56 13.667 106.333 41 151c47.333 74 114 111 200 111c66 -2 121.5 -27.5 166.5 -76.5
s67.5 -110.833 67.5 -185.5c0 -66 -18 -122 -54 -168c-17.333 -22.667 -35 -39.334 -53 -50c-18 -10.667 -31.667 -17.334 -41 -20zM-770 2363c-132.667 0 -234.332 -39.833 -304.999 -119.5s-116.334 -146.167 -137.001 -199.5c26 18.667 74.833 41.667 146.5 69
s164.834 41 279.501 41c128 0 232.5 -14.667 313.5 -44s136.167 -54 165.5 -74c-10 23.333 -31.333 58.833 -64 106.5s-83.334 95.667 -152.001 144s-151 73.833 -247 76.5zM-466.998 2703c-41.333 0 -73.502 -14.333 -96.502 -43s-34.5 -63.334 -34.5 -104
c0 -40 11.667 -74.667 35 -104s55.333 -44 96 -44c42.667 0 75.834 14.5 99.501 43.5s35.5 63.833 35.5 104.5s-11.667 75.334 -35 104c-23.333 28.667 -56.666 43 -99.999 43z" />
    <glyph glyph-name="uni0E37" unicode="&#xe37;" 
d="M-516 2425l57.002 -41c26 -16.667 54.667 -44 86 -82l-20 74v327h110v-499c10 -16 23.833 -43.667 41.5 -83s31.167 -70.333 40.5 -93v-136c-42.667 22.667 -116.667 51 -222 85s-226.333 51 -363 51c-132.667 0 -248.334 -17 -347.001 -51
s-167.334 -62.333 -206.001 -85v136c22.667 77.333 77.834 173.666 165.501 289c87.667 115.333 222.167 173 403.5 173c31.333 0 59.666 -2.5 84.999 -7.5s43.333 -9.16699 54 -12.5v233h115v-278zM-769.998 2363c-132.667 0 -234.332 -39.833 -304.999 -119.5
s-116.334 -146.167 -137.001 -199.5c26 18.667 74.833 41.667 146.5 69s164.834 41 279.501 41c128 0 232.5 -14.667 313.5 -44s136.167 -54 165.5 -74c-10 23.333 -31.333 58.833 -64 106.5s-83.334 95.667 -152.001 144s-151 73.833 -247 76.5z" />
    <glyph glyph-name="uni0E38" unicode="&#xe38;" 
d="M-328 -885v283c-8 -4 -21 -9.16699 -39 -15.5s-36.333 -9.5 -55 -9.5c-64.667 0 -117.667 22.5 -159 67.5s-62 104.5 -62 178.5c0 67.333 21 124.5 63 171.5s94.667 70.5 158 70.5s116 -22.833 158 -68.5s63 -103.5 63 -173.5v-504h-127zM-422 -258
c-37.333 0 -65.833 -12.167 -85.5 -36.5s-29.5 -54.5 -29.5 -90.5c0 -33.333 10 -62.166 30 -86.499s48.333 -36.5 85 -36.5s65 12.167 85 36.5s30 53.166 30 86.499c0 36 -9.83301 66.167 -29.5 90.5s-48.167 36.5 -85.5 36.5z" />
    <glyph glyph-name="uni0E39" unicode="&#xe39;" 
d="M-782 -778h101.998v184c-9.33301 -4.66699 -23.666 -10.667 -42.999 -18s-37.666 -11 -54.999 -11c-62.667 0 -115.167 23.333 -157.5 70s-63.5 106.667 -63.5 180c0 66.667 21.5 123.667 64.5 171s95.167 71 156.5 71s113.5 -23.333 156.5 -70s64.5 -104 64.5 -172v-405
h160c24.667 0 41 5.33301 49 16c13.333 6.66699 20 31.334 20 74.001v536h127v-495c0 -112.667 -20.333 -186.334 -61 -221.001c-35.333 -30 -94 -45 -176 -45h-344v135zM-778.002 -246c-37.333 0 -66.502 -12.833 -87.502 -38.5s-31.5 -56.5 -31.5 -92.5
c0 -33.333 10.667 -62.833 32 -88.5s50.333 -38.5 87 -38.5c34.667 0 62.334 12.833 83.001 38.5s31 55.167 31 88.5c0 36 -10.167 66.833 -30.5 92.5s-48.166 38.5 -83.499 38.5z" />
    <glyph glyph-name="uni0E3A" unicode="&#xe3a;" 
d="M-303 -467c-38.667 0 -68.8301 13 -90.4971 39s-32.5 56.667 -32.5 92c0 38 10.667 70 32 96s51.666 39 90.999 39s69.666 -13 90.999 -39s32 -58 32 -96c0 -35.333 -10.833 -66 -32.5 -92s-51.834 -39 -90.501 -39z" />
    <glyph glyph-name="uni0E3F" unicode="&#xe3f;" horiz-adv-x="1671" 
d="M741 913l-299 -73v-504c0 -98.667 20.667 -158.667 62 -180c35.333 -16.667 113 -25 233 -25zM897 139c83.333 0 169.332 23.333 257.999 70c62.667 29.333 112.5 70.666 149.5 123.999s55.5 114.333 55.5 183c0 124 -44.667 222.333 -134 295
s-197.666 120.334 -324.999 143.001zM740.999 1057v708.001c-128 0 -211 -10.667 -249 -32c-33.333 -22 -50 -82.333 -50 -181v-565c46 9.33301 145.667 32.666 299 69.999zM900.999 1761l0.000976562 -647.001c71.333 28.667 124.666 57.334 159.999 86.001
c112 82 168 177.667 168 287c0 182.667 -109.333 274 -328 274zM901 1896l70.001 0.000976562c147.333 0 258 -24.333 332 -73c55.333 -33.333 99.166 -78.666 131.499 -135.999s48.5 -120 48.5 -188c0 -107.333 -39 -200 -117 -278s-171.667 -138.333 -281 -181
c142.667 -24 266.5 -82.333 371.5 -175s157.5 -210.334 157.5 -353.001c0 -150 -72.333 -279.667 -217 -389c-114.667 -82 -269 -123 -463 -123h-37l4 -180h-160l-4 180h-573c-60 0 -90 19 -90 57c0 20 5.5 36 16.5 48s24.5 18 40.5 18c44.667 11.333 71.5 25.833 80.5 43.5
s13.5 53.5 13.5 107.5v1446c0 17.333 -8.66699 30.666 -26 39.999s-36 14 -56 14c-46 0 -69 23 -69 69c0 35.333 31.333 53 94 53h573v205h160v-205z" />
    <glyph glyph-name="uni0E40" unicode="&#xe40;" horiz-adv-x="713" 
d="M328 1622l0.000976562 -1135c8 4.66699 21.667 10.667 41 18s43.666 11 72.999 11c75.333 0 135.833 -24.5 181.5 -73.5s68.5 -114.5 68.5 -196.5c0 -75.333 -24 -137.833 -72 -187.5s-107.333 -74.5 -178 -74.5c-67.333 0 -124.333 25.5 -171 76.5
s-70 112.833 -70 185.5v1376h127zM442.001 102c40.667 0 72.667 14.332 96 42.999s35 62.334 35 101.001s-11.5 72.167 -34.5 100.5s-55.167 42.5 -96.5 42.5c-40 0 -71.167 -14 -93.5 -42s-33.5 -61.667 -33.5 -101c0 -38 11.5 -71.5 34.5 -100.5s53.833 -43.5 92.5 -43.5z
" />
    <glyph glyph-name="uni0E41" unicode="&#xe41;" horiz-adv-x="1425" 
d="M328 1622l0.000976562 -1135c8 4.66699 21.667 10.667 41 18s43.666 11 72.999 11c75.333 0 135.833 -24.5 181.5 -73.5s68.5 -114.5 68.5 -196.5c0 -75.333 -24 -137.833 -72 -187.5s-107.333 -74.5 -178 -74.5c-67.333 0 -124.333 25.5 -171 76.5
s-70 112.833 -70 185.5v1376h127zM1036 1622l-0.00195312 -1135c9.33301 4.66699 24.333 10.667 45 18s45.334 11 74.001 11c71.333 0 130.833 -24.833 178.5 -74.5s71.5 -114.834 71.5 -195.501c0 -73.333 -25 -135.333 -75 -186s-108.333 -76 -175 -76
c-67.333 0 -125.166 25.5 -173.499 76.5s-72.5 112.833 -72.5 185.5v1376h127zM1155 102.001c40.667 0 72.667 14.333 96 43s35 62.334 35 101.001s-11.5 72.167 -34.5 100.5s-55.167 42.5 -96.5 42.5s-72.833 -14 -94.5 -42s-32.5 -61.667 -32.5 -101
c0 -38.667 11.167 -72.334 33.5 -101.001s53.5 -43 93.5 -43zM441.999 102.001c40.667 0 72.667 14.332 96 42.999s35 62.334 35 101.001s-11.5 72.167 -34.5 100.5s-55.167 42.5 -96.5 42.5c-40 0 -71.167 -14 -93.5 -42s-33.5 -61.667 -33.5 -101
c0 -38 11.5 -71.5 34.5 -100.5s53.833 -43.5 92.5 -43.5z" />
    <glyph glyph-name="uni0E42" unicode="&#xe42;" horiz-adv-x="872" 
d="M483 487c10 4.66699 25.834 10.668 47.501 18.001s46.834 11 75.501 11c71.333 0 130.833 -24.833 178.5 -74.5s71.5 -114.834 71.5 -195.501c0 -74 -24.667 -136.167 -74 -186.5s-108 -75.5 -176 -75.5c-67.333 0 -125.166 25.5 -173.499 76.5
s-72.5 112.833 -72.5 185.5v2052c0 124 -36.667 215.333 -110 274c-63.333 44 -170 66 -320 66c-24 0 -44.167 -0.5 -60.5 -1.5s-27.5 -1.83301 -33.5 -2.5v135c23.333 46.667 72.666 104.667 147.999 174s181.666 104 318.999 104c82 0 164 -15 246 -45
c84.667 -30 157 -45 217 -45c36 0 64.5 3.66699 85.5 11s34.833 13.333 41.5 18l41 -135c-8.66699 -6 -26.5 -13.667 -53.5 -23s-63.833 -14 -110.5 -14c-70.667 0 -152.667 15 -246 45c-82 30 -159.667 45 -233 45c-92 0 -162.5 -18.333 -211.5 -55
s-80.833 -67.334 -95.5 -92c179.333 0 304.666 -35.667 375.999 -107c46 -43.333 78 -90.833 96 -142.5s27 -121.5 27 -209.5v-1811zM606.001 102.001c40 0 71.167 14.332 93.5 42.999s33.5 62.334 33.5 101.001c0 39.333 -10.833 73 -32.5 101s-53.167 42 -94.5 42
c-40 0 -71.167 -14 -93.5 -42s-33.5 -61.667 -33.5 -101c0 -38 11.5 -71.5 34.5 -100.5s53.833 -43.5 92.5 -43.5z" />
    <glyph glyph-name="uni0E43" unicode="&#xe43;" horiz-adv-x="991" 
d="M606 2658l0.00292969 -2171c8.66699 4.66699 23.667 10.667 45 18s48.666 11 81.999 11c71.333 0 130.166 -24.833 176.499 -74.5s69.5 -114.834 69.5 -195.501c0 -74 -24.333 -136.167 -73 -186.5s-106.334 -75.5 -173.001 -75.5c-68.667 0 -127.5 25.833 -176.5 77.5
s-73.5 113.167 -73.5 184.5v2412c0 88 -20.667 156.5 -62 205.5s-94.333 73.5 -159 73.5c-94.667 0 -160.5 -31.167 -197.5 -93.5s-58.5 -114.5 -64.5 -156.5c6.66699 7.33301 20 16.833 40 28.5s47.667 18.5 83 20.5c69.333 0 125.5 -23.333 168.5 -70
s64.5 -106.667 64.5 -180c0 -80.667 -22 -143.834 -66 -189.5c-44 -45.667 -98.333 -68.5 -163 -68.5c-64 0 -120.5 31.667 -169.5 95s-74.5 145 -76.5 245c0 94.667 16 179.667 48 255s77 134.333 135 177s124 64 198 64c86.667 0 165.667 -32.833 237 -98.5
s107 -168.167 107 -307.5zM127.003 2634c-39.333 0 -69.668 -13.667 -91.001 -41s-32 -60.333 -32 -99c0 -39.333 10.833 -73 32.5 -101s51.834 -42 90.501 -42c40 0 71.167 14 93.5 42s33.5 61.667 33.5 101c0 38.667 -10.833 71.667 -32.5 99s-53.167 41 -94.5 41z
M733.001 102.001c40 0 71.167 14.333 93.5 43s33.5 62.334 33.5 101.001c0 39.333 -10.833 73 -32.5 101s-53.167 42 -94.5 42s-72.833 -14 -94.5 -42s-32.5 -61.667 -32.5 -101c0 -38.667 11.167 -72.334 33.5 -101.001s53.5 -43 93.5 -43z" />
    <glyph glyph-name="uni0E44" unicode="&#xe44;" horiz-adv-x="991" 
d="M606 487c8.66699 4.66699 23.6719 10.668 45.0049 18.001s48.666 11 81.999 11c71.333 0 130.166 -24.833 176.499 -74.5s69.5 -114.834 69.5 -195.501c0 -74 -24.333 -136.167 -73 -186.5s-106.334 -75.5 -173.001 -75.5c-68.667 0 -127.5 25.833 -176.5 77.5
s-73.5 113.167 -73.5 184.5v2097l33 541l-78 -271l-192 -520h-127l-201 746c-3.33301 0 -7.33301 15 -12 45c-5.33301 19.333 -12.333 31.666 -21 37c-8.66699 5.33301 -15.334 8 -20.001 8h-45v135h86c27.333 0 47.666 -9.66699 60.999 -29
c7.33301 -4.66699 14.5 -14.5 21.5 -29.5s12.167 -26.833 15.5 -35.5l176 -664l13 -78l12 78l278 758h123v-2577zM733.005 102.001c40 0 71.167 14.333 93.5 43s33.5 62.334 33.5 101.001c0 39.333 -10.833 73 -32.5 101s-53.167 42 -94.5 42s-72.833 -14 -94.5 -42
s-32.5 -61.667 -32.5 -101c0 -38.667 11.167 -72.334 33.5 -101.001s53.5 -43 93.5 -43z" />
    <glyph glyph-name="uni0E45" unicode="&#xe45;" horiz-adv-x="1016" 
d="M692 -717v1888c0 110.667 -26.333 194.334 -79 251.001s-123.334 85 -212.001 85c-82 0 -148.5 -21.5 -199.5 -64.5s-85.5 -78.833 -103.5 -107.5l-90 66c20.667 39.333 63.167 88.666 127.5 147.999s152.833 89 265.5 89c120.667 0 219.834 -39.833 297.501 -119.5
s116.5 -192.5 116.5 -338.5v-1897h-123z" />
    <glyph glyph-name="uni0E46" unicode="&#xe46;" horiz-adv-x="1569" 
d="M82 1102c0 95.333 16.668 182.833 50.001 262.5s79.5 142.5 138.5 188.5s124.5 69 196.5 69c88 0 153.5 -25.667 196.5 -77s70.167 -94 81.5 -128c16.667 34 49.167 76.667 97.5 128s112.833 77 193.5 77c110.667 0 192.334 -42.5 245.001 -127.5s79 -172.167 79 -261.5
v-1950h-119v1934c0 96.667 -21.833 166.5 -65.5 209.5s-90.167 64.5 -139.5 64.5c-75.333 0 -132.833 -29.167 -172.5 -87.5s-65.5 -107.166 -77.5 -146.499h-73c-8.66699 39.333 -31.834 88.166 -69.501 146.499s-97.834 87.5 -180.501 87.5
c-66 0 -125.333 -31.5 -178 -94.5s-82 -133.833 -88 -212.5l-4 -41c9.33301 13.333 27 29.833 53 49.5s60 30.5 102 32.5c66 0 122.167 -24.5 168.5 -73.5s69.5 -106.5 69.5 -172.5c0 -79.333 -23.5 -142.833 -70.5 -190.5s-102.833 -71.5 -167.5 -71.5
c-60 0 -118.5 31.833 -175.5 95.5s-87.167 160.167 -90.5 289.5zM348.001 1114c-39.333 0 -69.668 -13.667 -91.001 -41s-32 -60 -32 -98c0 -40 10.833 -74 32.5 -102s51.834 -42 90.501 -42c40 0 71.167 14 93.5 42s33.5 62 33.5 102c0 38 -10.833 70.667 -32.5 98
s-53.167 41 -94.5 41z" />
    <glyph glyph-name="uni0E47" unicode="&#xe47;" 
d="M-618 2662c81.333 0 146.664 3.00195 195.997 9.00195c44.667 10 83.334 28.833 116.001 56.5s55.334 49.5 68.001 65.5l82 -86c-12.667 -18 -35.167 -42.667 -67.5 -74s-72.5 -54.333 -120.5 -69c-62.667 -16 -152.667 -24 -270 -24l-123 4c-78 0 -147.333 -23 -208 -69
s-91 -105 -91 -177c0 -61.333 9.83301 -112.166 29.5 -152.499s35.834 -67.5 48.501 -81.5l135 164l39 -45.5c16.667 -19 36.334 -39.167 59.001 -60.5c50 -40 87.667 -66.5 113 -79.5s41 -19.5 47 -19.5c-5.33301 7.33301 -12.166 20.666 -20.499 39.999s-12.5 43 -12.5 71
c0 62.667 18.5 114.5 55.5 155.5s86.833 61.5 149.5 61.5c48.667 0 93.5 -21.333 134.5 -64s61.5 -96.334 61.5 -161.001c0 -62.667 -24.167 -118.667 -72.5 -168s-115.5 -74 -201.5 -74c-81.333 3.33301 -152.833 28.166 -214.5 74.499s-104.834 84.5 -129.501 114.5
l-143 -181c-32.667 27.333 -73.667 76.833 -123 148.5s-74 157.5 -74 257.5c6.66699 84 30.667 153.333 72 208s92.666 95 153.999 121s125.333 39 192 39zM-397.002 2036c28 0 50 9.83301 66 29.5s24 43.834 24 72.5c0 26.667 -8 49.667 -24 69s-38 29 -66 29
c-60 0 -90 -32.667 -90 -98c0 -68 30 -102 90 -102z" />
    <glyph glyph-name="uni0E48" unicode="&#xe48;" 
d="M-328 1913v610h127v-610h-127z" />
    <glyph glyph-name="uni0E49" unicode="&#xe49;" 
d="M-954 1958l0.00292969 127l28 16c58.667 16 108.5 41.5 149.5 76.5s69.167 62.833 84.5 83.5h-21c-58 0 -110 22.167 -156 66.5s-69 105.5 -69 183.5c0 54 21.167 107 63.5 159s98.833 78 169.5 78c62 0 115.833 -24.833 161.5 -74.5s68.5 -112.167 68.5 -187.5
c0 -103.333 -29.667 -190 -89 -260s-109 -118.333 -149 -145c164 0 300.667 36.667 410 110c91.333 59.333 156.666 132 195.999 218s62.666 151.333 69.999 196l119 -41c-14 -100.667 -74.833 -226.834 -182.5 -378.5c-107.667 -151.667 -304.834 -227.5 -591.501 -227.5
h-262zM-712.997 2372c37.333 0 66.5 12.833 87.5 38.5s31.5 56.5 31.5 92.5c0 33.333 -10.5 62.833 -31.5 88.5s-50.167 38.5 -87.5 38.5c-36.667 0 -64.834 -12.667 -84.501 -38s-29.5 -55 -29.5 -89c0 -36.667 9.83301 -67.667 29.5 -93s47.834 -38 84.501 -38z" />
    <glyph glyph-name="uni0E4A" unicode="&#xe4a;" 
d="M-467 2060c16.667 19.333 37.1641 54.666 61.4971 106c24.333 51.333 36.5 117 36.5 197c-1.33301 73.333 -18.166 131.333 -50.499 174s-59.166 70.667 -80.499 84l-155 -122l-148 127c-8.66699 -4.66699 -22 -14.334 -40 -29c-18 -14.667 -37.333 -36.667 -58 -66
c-32.667 -46 -54.5 -92.333 -65.5 -139s-16.5 -80.667 -16.5 -102c7.33301 14.667 22.5 32.834 45.5 54.5c23 21.667 55.5 33.5 97.5 35.5c53.333 0 100.166 -19.5 140.499 -58.5s60.5 -91.833 60.5 -158.5c0 -61.333 -21.167 -112.833 -63.5 -154.5
s-92.166 -62.5 -149.499 -62.5c-53.333 0 -106.166 25.667 -158.499 77s-81.5 126.666 -87.5 226c0 154 36.333 273 109 357s133.334 138.333 182.001 163l152 -127l172 127c27.333 -17.333 64.666 -50.166 111.999 -98.5c47.333 -48.333 81 -109.833 101 -184.5
c10.667 -36.667 16 -76.334 16 -119c0 -60 -7.66699 -111.833 -23 -155.5s-28 -74.834 -38 -93.5c30 14.667 72.333 41.167 127 79.5s99.667 88.166 135 149.5c46 76.667 69 180.334 69 311h115c0 -174.667 -37 -311 -111 -409
c-60.667 -82.667 -136.167 -148.5 -226.5 -197.5s-159.5 -81.5 -207.5 -97.5zM-840.003 2265c-29.333 0 -51.667 -9.5 -67 -28.5s-23 -42.167 -23 -69.5c0 -66 30 -99 90 -99c27.333 0 48.5 9.83301 63.5 29.5s22.5 42.834 22.5 69.5c0 26.667 -7.33301 49.667 -22 69
s-36 29 -64 29z" />
    <glyph glyph-name="uni0E4B" unicode="&#xe4b;" 
d="M-401 2118v-226h-123v226h-209v131h209v229h123v-229h200v-131h-200z" />
    <glyph glyph-name="uni0E4C" unicode="&#xe4c;" 
d="M-549 2396c62 0 114.334 -23.167 157.001 -69.5s64 -103.833 64 -172.5c0 -83.333 -22.333 -147.333 -67 -192s-96 -68 -154 -70c-86.667 0 -154.667 32.5 -204 97.5s-74 147.167 -74 246.5c0 108.667 27.833 206.334 83.5 293c55.667 86.667 141.167 139.334 256.5 158
c174 24 270.667 81.333 290 172l4 25h132c0 -44.667 -21.667 -103.334 -65 -176c-43.333 -72.667 -136.666 -119.334 -279.999 -140c-118 -16.667 -195.167 -50.667 -231.5 -102s-54.5 -92.333 -54.5 -123c9.33301 8.66699 26.166 19.667 50.499 33s55.166 20 92.499 20z
M-683.999 2154c0 -43.333 12.002 -76.666 36.002 -100c24 -23.333 53 -35 87 -35c33.333 0 62.166 11.667 86.499 35s36.5 56.666 36.5 100c0 44 -12 77 -36 99s-53 33 -87 33c-34.667 0 -63.834 -11.167 -87.501 -33.5s-35.5 -55.166 -35.5 -98.5z" />
    <glyph glyph-name="uni0E4D" unicode="&#xe4d;" 
d="M-426 1913c-69.333 0 -123.501 24.832 -162.501 74.499s-58.5 108.167 -58.5 175.501c0 66 19.333 123.333 58 172s93 73 163 73s125 -24.167 165 -72.5s60 -105.833 60 -172.5c0 -68 -20.167 -126.667 -60.5 -176s-95.166 -74 -164.499 -74zM-426.001 2294
c-37.333 0 -66.5 -13 -87.5 -39s-31.5 -56.667 -31.5 -92c0 -36 10.5 -66.833 31.5 -92.5s50.167 -38.5 87.5 -38.5s66.5 12.833 87.5 38.5s31.5 56.5 31.5 92.5c0 34.667 -10.5 65.167 -31.5 91.5s-50.167 39.5 -87.5 39.5z" />
    <glyph glyph-name="uni0E4E" unicode="&#xe4e;" 
d="M-176 2056c-76.667 -62.667 -180.335 -94 -311.002 -94c-98.667 0 -169.667 22 -213 66c-38.667 38 -58 83 -58 135c0 55.333 22 107 66 155c80 90.667 183.667 136 311 136c-42 2.66699 -81.167 20 -117.5 52s-54.5 74.667 -54.5 128
c26.667 112 137.334 181.667 332.001 209c22 2.66699 53.333 4 94 4c86 0 151.667 -11 197 -33l-95 -61c-24 8 -56.667 12 -98 12c-43.333 0 -78.666 -4 -105.999 -12c-122 -34.667 -186.333 -81.334 -193 -140c0 -41.333 28.5 -74.166 85.5 -98.5
c57 -24.333 113.167 -36.5 168.5 -36.5l-45 -94c-144.667 0 -251 -27.333 -319 -82c-52 -37.333 -78 -85 -78 -143c0 -22 5.33301 -38.667 16 -50c30.667 -30 80 -45 148 -45c98.667 0 164 16.667 196 50z" />
    <glyph glyph-name="uni0E4F" unicode="&#xe4f;" horiz-adv-x="1143" 
d="M270 1114c-106 -102 -159.001 -223.333 -159.001 -364c0 -88 21.167 -171.333 63.5 -250s98.833 -142 169.5 -190s145.667 -72 225 -72c106.667 0 203.667 42.333 291 127c109.333 104.667 164 226 164 364c0 87.333 -21.167 170.5 -63.5 249.5
s-98.833 142.5 -169.5 190.5s-146 72 -226 72c-107.333 0 -205.666 -42.333 -294.999 -127zM822.999 410c-76.667 -76.667 -162.667 -114.999 -258 -114.999c-106.667 0 -200.167 45.667 -280.5 137s-120.5 195.666 -120.5 312.999c0 124.667 47.667 232.667 143 324
c78 74 162.667 111 254 111c69.333 0 135 -21.167 197 -63.5s111.667 -98.833 149 -169.5s56 -144.667 56 -222c0 -121.333 -46.667 -226.333 -140 -315zM691.999 573.001c-40 -35.333 -81 -53 -123 -53c-52 0 -98.333 23.667 -139 71s-61 100.333 -61 159
c0 57.333 21.667 107.666 65 150.999c39.333 35.333 80.333 53 123 53c55.333 0 103.333 -22.667 144 -68s61 -97.666 61 -156.999c0 -61.333 -23.333 -113.333 -70 -156z" />
    <glyph glyph-name="uni0E50" unicode="&#xe50;" horiz-adv-x="1585" 
d="M786 -16c-115.333 0 -220.5 24.8291 -315.5 74.4961s-169.833 120.334 -224.5 212.001s-82 196.834 -82 315.501c0 116.667 27.333 221.334 82 314.001s129.5 164.5 224.5 215.5s200.167 76.5 315.5 76.5c117.333 0 224.833 -25.667 322.5 -77
s174.834 -123.333 231.501 -216s85 -197 85 -313c0 -117.333 -28.333 -222.166 -85 -314.499s-133.834 -163.333 -231.501 -213s-205.167 -74.5 -322.5 -74.5zM786 1065c-134.667 0 -253.667 -45.5 -357 -136.5s-155 -205.167 -155 -342.5
c0 -140.667 51.5 -256.5 154.5 -347.5s222.167 -136.5 357.5 -136.5c88.667 0 172.5 20 251.5 60s142.167 97 189.5 171s71 158.333 71 253c0 139.333 -50.667 254 -152 344s-221.333 135 -360 135z" />
    <glyph glyph-name="uni0E51" unicode="&#xe51;" horiz-adv-x="1602" 
d="M893 225c-8.66699 -2 -21.168 -4.50293 -37.501 -7.50293s-29.833 -4.5 -40.5 -4.5c-66 0 -124.167 23.833 -174.5 71.5s-75.5 112.5 -75.5 194.5c0 72.667 24.833 134.5 74.5 185.5s108.167 76.5 175.5 76.5c72 0 131.667 -30.167 179 -90.5s71 -131.166 71 -212.499
c0 -127.333 -37.5 -232.166 -112.5 -314.499s-168.5 -123.5 -280.5 -123.5c-91.333 0 -176 24.5 -254 73.5s-139.833 116.167 -185.5 201.5s-68.5 179.333 -68.5 282c0 100.667 24.833 198.5 74.5 293.5s121.834 173 216.501 234s205 92.833 331 95.5
c124.667 0 237 -30.5 337 -91.5s178.167 -144.5 234.5 -250.5s84.5 -221.333 84.5 -346c0 -169.333 -39 -306.5 -117 -411.5s-143 -175.5 -195 -211.5l-73 86c45.333 32.667 101.666 94.834 168.999 186.501s101 208.5 101 350.5c-1.33301 97.333 -23.5 188.5 -66.5 273.5
s-105.333 153.5 -187 205.5s-177.5 78 -287.5 78c-97.333 0 -184.5 -23.5 -261.5 -70.5s-137.167 -108.5 -180.5 -184.5s-66.666 -155 -69.999 -237c0 -118 36.833 -218.667 110.5 -302s169.5 -126 287.5 -128c58.667 0 107 12.333 145 37s63.333 45 76 61zM814.999 626.997
c-47.333 0 -83.667 -15.333 -109 -46s-38 -67.334 -38 -110.001c0 -44.667 13 -82.5 39 -113.5s62 -46.5 108 -46.5c44 0 78.167 15.5 102.5 46.5s36.5 68.833 36.5 113.5c0 42.667 -12 79.334 -36 110.001s-58.333 46 -103 46z" />
    <glyph glyph-name="uni0E52" unicode="&#xe52;" horiz-adv-x="1892" 
d="M1712 328c0 -131.333 -25.9971 -221.665 -77.9971 -270.998c-40.667 -38 -114.334 -57 -221.001 -57h-921c-104 0 -178 19 -222 57c-46 49.333 -69 139.666 -69 270.999v749v70c0 126 -15.333 229.5 -46 310.5s-56.334 135.833 -77.001 164.5l98 61
c25.333 -31.333 57 -92.333 95 -183s57 -208.334 57 -353.001v-70v-786c0 -68.667 9.33301 -111 28 -127c25.333 -19.333 62.333 -29 111 -29h975c46 0 81.333 9.66699 106 29c24.667 18 37 60.333 37 127v495c0 89.333 -16 154 -48 194s-70.667 60 -116 60
c-72 0 -123.833 -29.167 -155.5 -87.5s-50.834 -106.833 -57.501 -145.5h-78c-8 37.333 -30.5 84.5 -67.5 141.5s-96.167 86.167 -177.5 87.5c-81.333 0 -142.666 -26.167 -183.999 -78.5s-69 -109.5 -83 -171.5l-8 -28c10 12 28.833 27.833 56.5 47.5
s62.167 31.167 103.5 34.5c64.667 0 119 -24.5 163 -73.5s66 -107.833 66 -176.5c0 -80 -22 -142.333 -66 -187s-98.333 -67 -163 -67c-64 0 -124.5 28.167 -181.5 84.5s-86.5 148.166 -88.5 275.499c0 80.667 15.5 157.5 46.5 230.5s76 132 135 177
s128.167 67.5 207.5 67.5c84 0 148.667 -25.5 194 -76.5s74.666 -93.5 87.999 -127.5c11.333 34 37 76.5 77 127.5s99 76.5 177 76.5c83.333 0 152 -36.167 206 -108.5s81 -156.166 81 -251.499v-483zM770.003 729.001c-39.333 0 -69.666 -13.5 -90.999 -40.5
s-32 -58.5 -32 -94.5c0 -38.667 10.667 -71.5 32 -98.5s51.666 -40.5 90.999 -40.5c40.667 0 72 13.5 94 40.5s33 59.833 33 98.5c0 36 -11 67.5 -33 94.5s-53.333 40.5 -94 40.5z" />
    <glyph glyph-name="uni0E53" unicode="&#xe53;" horiz-adv-x="1790" 
d="M180 291l0.00292969 20.002v414c0 129.333 36.333 236 109 320s164.667 126 276 126c108 0 188.833 -31.667 242.5 -95s87.5 -116 101.5 -158c14.667 41.333 48 93.333 100 156s129.333 95 232 97c66.667 0 127.667 -18 183 -54s98.833 -84.167 130.5 -144.5
s47.5 -126.5 47.5 -198.5v-774h-119v750c0 78.667 -22.833 146 -68.5 202s-103.5 84 -173.5 84c-72 0 -134.333 -31.333 -187 -94s-79 -137.667 -79 -225v-717h-123v717c0 80 -27.333 153.167 -82 219.5s-124.334 99.5 -209.001 99.5
c-75.333 0 -137.166 -29.833 -185.499 -89.5s-72.5 -130.834 -72.5 -213.501v-311c5.33301 8 18.166 18.667 38.499 32s52.5 21.666 96.5 24.999c65.333 0 120.666 -24.5 165.999 -73.5s68 -107.833 68 -176.5c0 -78 -22.833 -138.333 -68.5 -181s-100.834 -64 -165.501 -64
c-164.667 0 -250.667 102.333 -258 307zM438.003 369.002c-39.333 0 -70.335 -13.667 -93.002 -41s-34 -59 -34 -95c0 -37.333 11.5 -69.833 34.5 -97.5s53.833 -41.5 92.5 -41.5s68.834 13.667 90.501 41s32.5 60 32.5 98c0 36.667 -10.667 68.5 -32 95.5
s-51.666 40.5 -90.999 40.5z" />
    <glyph glyph-name="uni0E54" unicode="&#xe54;" horiz-adv-x="1667" 
d="M770 557c0 65.333 23.1709 126.663 69.5039 183.996s106.5 86 180.5 86c75.333 0 133 -26 173 -78s60 -112 60 -180c-2 -75.333 -27.333 -133.666 -76 -174.999s-102.334 -62 -161.001 -62l-41 4c22 -33.333 65.5 -75.166 130.5 -125.499s151.167 -75.5 258.5 -75.5h180
v-135h-729h-45c-179.333 0 -324.666 54.333 -435.999 163s-168 248.334 -170 419.001c0 158.667 49.167 296.5 147.5 413.5s251.166 175.5 458.499 175.5h45h361h36c146 0 243.167 42 291.5 126s74.166 154 77.499 210h131c-5.33301 -79.333 -41.333 -178.333 -108 -297
s-197.334 -178 -392.001 -178h-36h-361h-45c-112 0 -204.167 -20.333 -276.5 -61s-125.5 -94.667 -159.5 -162s-51 -143 -51 -227c0 -135.333 46.667 -243.666 140 -324.999s209 -122 347 -122h45h201c-40.667 22.667 -91.834 69 -153.501 139s-92.5 164.333 -92.5 283z
M1020 445.997c36.667 0 65 13 85 39s30 57 30 93c0 35.333 -9.83301 66 -29.5 92s-48.167 39 -85.5 39s-65.833 -13 -85.5 -39s-29.5 -56.667 -29.5 -92c0 -36 10 -67 30 -93s48.333 -39 85 -39z" />
    <glyph glyph-name="uni0E55" unicode="&#xe55;" horiz-adv-x="1626" 
d="M1585 1565l8 -45.001c14 -44 21 -87.667 21 -131c0 -96.667 -32.667 -180.334 -98 -251.001s-166.666 -106 -303.999 -106h-36h-361h-45c-112 0 -204.167 -20.333 -276.5 -61s-125.5 -94.667 -159.5 -162s-51 -143 -51 -227c0 -135.333 46.667 -243.666 140 -324.999
s209 -122 347 -122h45h201c-40.667 22.667 -91.834 69 -153.501 139s-92.5 164.333 -92.5 283c0 65.333 23.167 126.666 69.5 183.999s106.5 86 180.5 86c75.333 0 133 -26 173 -78s60 -112 60 -180c-2 -75.333 -27.333 -133.666 -76 -174.999s-102.334 -62 -161.001 -62
l-41 4c22 -33.333 65.5 -75.166 130.5 -125.499s151.167 -75.5 258.5 -75.5h180v-135h-729h-45c-179.333 -0 -324.666 54.333 -435.999 163s-168 248.334 -170 419.001c0 158.667 49.167 296.5 147.5 413.5s251.166 175.5 458.499 175.5h45h361h36
c191.333 0 287 87.667 287 263l-4 24c-22.667 -24 -62.834 -53.833 -120.501 -89.5s-125.5 -53.5 -203.5 -53.5c-94.667 2 -171.5 31.5 -230.5 88.5s-88.5 121.5 -88.5 193.5c2 69.333 32.667 127 92 173s135 69 227 69c89.333 -6.66699 162 -29.5 218 -68.5
s94 -70.833 114 -95.5c0.666992 0 14.334 31.333 41.001 94c10.667 30 18 60.167 22 90.5s6.33301 52.166 7 65.499h115c2 0 3 -3.66699 3 -11c0 -22 -9.33301 -78.333 -28 -169c-11.333 -43.333 -25.166 -81.333 -41.499 -114s-28.5 -54.667 -36.5 -66zM1020 445.999
c36.667 0 65 13 85 39s30 57 30 93c0 35.333 -9.83301 66 -29.5 92s-48.167 39 -85.5 39s-65.833 -13 -85.5 -39s-29.5 -56.667 -29.5 -92c0 -36 10 -67 30 -93s48.333 -39 85 -39zM1430 1573c-15.333 20.667 -44 47.3311 -86 79.998s-95.333 52.334 -160 59.001
c-60.667 0 -110.167 -10.5 -148.5 -31.5s-58.5 -48.833 -60.5 -83.5c0 -40 18 -76 54 -108s78 -49 126 -51c78 0 139.667 16.833 185 50.5s75.333 61.834 90 84.501z" />
    <glyph glyph-name="uni0E56" unicode="&#xe56;" horiz-adv-x="1516" 
d="M803 106c66 2 132.331 19.6621 198.998 52.9951s123 83.833 169 151.5s69.333 149.834 70 246.501c0 80.667 -17.667 157.667 -53 231s-88.666 132.333 -159.999 177s-157.333 67 -258 67c-92 -2 -170.333 -23.667 -235 -65s-109.334 -75.666 -134.001 -102.999h-98
c0.666992 0 1 1.33301 1 4c0 18.667 -26.333 109 -79 271c-35.333 106 -71.166 194.333 -107.499 265s-63.166 118.667 -80.499 144l106 74c14 -21.333 34.833 -57 62.5 -107s54.834 -107.333 81.501 -172c15.333 -42 34.333 -99.167 57 -171.5l49 -159.5
c27.333 26.667 75.666 59.834 144.999 99.501s152 59.5 248 59.5c111.333 0 210.833 -27 298.5 -81s155.5 -127.667 203.5 -221s72 -197.333 72 -312c0 -113.333 -25.333 -213.5 -76 -300.5s-119.834 -154.167 -207.501 -201.5s-184.5 -71 -290.5 -71
c-131.333 0 -241.166 34.333 -329.499 103s-138.166 154.334 -149.499 257.001c0 82.667 22.167 150.5 66.5 203.5s102.833 79.5 175.5 79.5c67.333 0 121.666 -25.167 162.999 -75.5s62 -107.166 62 -170.499c0 -84 -21.5 -143.167 -64.5 -177.5
s-78.833 -54.5 -107.5 -60.5c9.33301 -6 30.333 -13.667 63 -23s78.667 -14 138 -14zM548.998 245.995c35.333 0 62.5 12.833 81.5 38.5s28.5 56.5 28.5 92.5c0 33.333 -9.5 62.833 -28.5 88.5s-46.167 38.5 -81.5 38.5c-37.333 0 -65.833 -12.667 -85.5 -38
s-29.5 -55 -29.5 -89c0 -36.667 9.83301 -67.667 29.5 -93s48.167 -38 85.5 -38z" />
    <glyph glyph-name="uni0E57" unicode="&#xe57;" horiz-adv-x="1946" 
d="M1282 0v785.997c0 81.333 -17.5 143.333 -52.5 186s-78.833 64 -131.5 64c-61.333 -3.33301 -109.5 -33.166 -144.5 -89.499s-53.833 -113.833 -56.5 -172.5l-4 -57h-123l-4 57c0 34.667 -10.333 72.667 -31 114s-49.667 76.333 -87 105s-80 43 -128 43
c-62.667 -2 -114.5 -30.667 -155.5 -86s-61.5 -127.666 -61.5 -216.999v-311c5.33301 8 18.166 18.667 38.499 32s52.5 21.666 96.5 24.999c65.333 0 120.666 -24.5 165.999 -73.5s68 -107.833 68 -176.5c0 -78 -22.833 -138.333 -68.5 -181s-100.834 -64 -165.501 -64
c-164.667 0 -250.667 102.333 -258 307v20v414c0 130 33.667 236.833 101 320.5s148.333 125.5 243 125.5c103.333 0 177.333 -31.667 222 -95s71.667 -116 81 -158c10.667 41.333 37.334 93.333 80.001 156s109 95 199 97c88 0 159.833 -34.667 215.5 -104
s83.5 -154.666 83.5 -255.999v-676h102c46.667 0 75.334 5.66699 86.001 17c22 18.667 33 55.334 33 110.001v815v70c0 141.333 16.333 260.166 49 356.499s60 161.833 82 196.5l111 -66c-20 -30 -44.833 -87.333 -74.5 -172s-44.5 -189.667 -44.5 -315v-70v-815
c0 -109.333 -20.333 -181.666 -61 -216.999c-33.333 -30 -90.666 -45 -171.999 -45h-201h-33zM438 368.997c-39.333 0 -70.335 -13.667 -93.002 -41s-34 -59 -34 -95c0 -37.333 11.5 -69.833 34.5 -97.5s53.833 -41.5 92.5 -41.5s68.834 13.667 90.501 41s32.5 60 32.5 98
c0 36.667 -10.667 68.5 -32 95.5s-51.666 40.5 -90.999 40.5z" />
    <glyph glyph-name="uni0E58" unicode="&#xe58;" horiz-adv-x="1790" 
d="M631 0l-127 -0.000976562c-56 30 -126.167 90.833 -210.5 182.5s-127.5 216.5 -129.5 374.5c0 162.667 54.333 305.667 163 429s271.334 185 488.001 185c34 -1.33301 110.333 -11.166 229 -29.499s189.667 -27.5 213 -27.5c243.333 0 365 131 365 393h127
c0 -352 -164 -528 -492 -528c-22 1.33301 -92.667 10.5 -212 27.5s-196 25.5 -230 25.5c-190.667 0 -327 -48.5 -409 -145.5s-123 -206.833 -123 -329.5c0 -106.667 27.667 -196.334 83 -269.001s101.333 -122.334 138 -149.001v164c0 65.333 15 121.5 45 168.5
s71 71.5 123 73.5c47.333 0 87.833 -16.667 121.5 -50s78.667 -87.333 135 -162s106.666 -131.167 150.999 -169.5s98.166 -60.166 161.499 -65.499c67.333 0 119.666 15.333 156.999 46s61.333 56.334 72 77.001c-8 -6 -22 -13.667 -42 -23s-42.667 -14 -68 -14
c-64 0 -120.333 25 -169 75s-73 112.333 -73 187c0 70 22.5 131.333 67.5 184s104.5 79 178.5 79c80 0 143.667 -30.667 191 -92s71 -131.666 71 -210.999c0 -70 -14.5 -137.333 -43.5 -202s-75.167 -117.5 -138.5 -158.5s-140.666 -61.5 -231.999 -61.5
c-82.667 2.66699 -153.167 31.167 -211.5 85.5s-118.666 123.666 -180.999 207.999s-104.833 128.5 -127.5 132.5c-40.667 0 -61 -39.667 -61 -119v-291zM1364 302.999c40 0 71.165 14 93.498 42s33.5 61.667 33.5 101c0 38.667 -10.833 71.667 -32.5 99
s-53.167 41 -94.5 41c-39.333 0 -69.666 -13.667 -90.999 -41s-32 -60.333 -32 -99c0 -39.333 10.833 -73 32.5 -101s51.834 -42 90.501 -42z" />
    <glyph glyph-name="uni0E59" unicode="&#xe59;" horiz-adv-x="1683" 
d="M672 -16c-133.333 0 -249.836 55.166 -349.503 165.499s-152.5 255.833 -158.5 436.5c0 90 18.333 179.333 55 268s92.667 162.667 168 222s166 91 272 95c118 0 211.5 -25.5 280.5 -76.5s114.833 -93.5 137.5 -127.5c0 95.333 23.333 155.333 70 180
c18 10.667 38.333 16 61 16c34 0 81.333 -14.333 142 -43s105 -43 133 -43c36 16 65 69.167 87 159.5s36.667 164.166 44 221.499l110 -33c-8.66699 -70.667 -29.167 -163 -61.5 -277s-81.166 -184 -146.499 -210c-17.333 -5.33301 -31 -8 -41 -8
c-20 0 -38.5 3.33301 -55.5 10s-41.667 18.5 -74 35.5s-58.333 29.333 -78 37s-39.5 11.5 -59.5 11.5c-16 -10.667 -24 -38 -24 -82c0 -39.333 6.66699 -77.666 20 -114.999l258 -811l-106 -24l-189 565c-103.333 319.333 -272.666 479 -507.999 479
c-77.333 -0.666992 -145.333 -22.5 -204 -65.5s-103.5 -99.167 -134.5 -168.5s-46.5 -142.666 -46.5 -219.999c4.66699 -140.667 46 -255.834 124 -345.501s169.333 -134.5 274 -134.5c70 0 124.167 19 162.5 57s63.166 69.667 74.499 95
c-8.66699 -8.66699 -24 -19.667 -46 -33s-47.667 -20 -77 -20c-61.333 0 -116.166 22.833 -164.499 68.5s-72.5 107.5 -72.5 185.5c0 65.333 21.333 125.333 64 180s100.334 82 173.001 82c80.667 0 146 -31.333 196 -94s75 -129.667 75 -201
c0 -129.333 -38.833 -234.666 -116.5 -315.999s-167.167 -122 -268.5 -122zM785.997 314.999c38 0 67.333 13.499 88 40.499s31 58.833 31 95.5c0 38 -10 70 -30 96s-49.667 39 -89 39c-37.333 0 -66.333 -13.167 -87 -39.5s-31 -58.166 -31 -95.499
c0 -36 10.667 -67.667 32 -95s50 -41 86 -41z" />
    <glyph glyph-name="uni0E5A" unicode="&#xe5a;" horiz-adv-x="1573" 
d="M483 1032c-122.667 0 -224.332 32.167 -304.999 96.5s-121 145.5 -121 243.5c0 67.333 20.167 125.833 60.5 175.5s89.833 74.5 148.5 74.5c66.667 0 119.5 -22 158.5 -66s58.5 -101.333 58.5 -172c0 -67.333 -16.333 -117 -49 -149s-60 -51.667 -82 -59
c10 -3.33301 26.833 -7.66602 50.5 -12.999s50.5 -8 80.5 -8c87.333 13.333 155 42.5 203 87.5s84.167 94.167 108.5 147.5s49.666 105.333 75.999 156s58.5 76 96.5 76h20c40.667 0 77.667 -15 111 -45c43.333 -38 65 -128 65 -270v-1307h-114v1393
c0 24 -6.66699 45 -20 63s-30 27 -50 27c-15.333 0 -42 -41.333 -80 -124s-87.667 -155.334 -149 -218.001s-150.333 -99 -267 -109zM266.002 1270c34 0 60.333 11.168 79 33.501s28 49.166 28 80.499c0 29.333 -9.5 55.166 -28.5 77.499s-45.167 33.5 -78.5 33.5
c-30.667 0 -54.667 -11 -72 -33s-26 -48 -26 -78c0 -31.333 8.5 -58.166 25.5 -80.499s41.167 -33.5 72.5 -33.5zM1348 1614h110v-1614h-110v1614z" />
    <glyph glyph-name="uni0E5B" unicode="&#xe5b;" horiz-adv-x="3273" 
d="M831 16c-155.333 0 -301.334 46.6689 -438.001 140.002c-134 93.333 -213 201 -237 323c-14 102 -23.667 193.667 -29 275c0 196 49 359.667 147 491c98 130 200.667 205 308 225c76 12 147 21.667 213 29c90.667 0 169.667 -15 237 -45c71.333 -23.333 137 -52 197 -86
l-12 -180c-32.667 24 -88.667 54 -168 90c-70 31.333 -153.333 49 -250 53c-35.333 0 -90 -4 -164 -12c-64 -8 -136.333 -72.333 -217 -193c-74 -118 -111 -251.667 -111 -401c0 -150.667 41 -279 123 -385c80.667 -100 206.334 -152 377.001 -156c158 0 291.667 67 401 201
c108 203.333 188.667 350.666 242 441.999l139 -204c48.667 -66 84.334 -99 107.001 -99c16 0 54 50.667 114 152c56.667 99.333 99 151 127 155c21.333 0 51.666 -35.333 90.999 -106l118 -213c75.333 102 124.666 170.333 148 205c47.333 66.667 81.333 102 102 106
c18 0 67.333 -66.667 148 -200c82 -131.333 151.667 -197 209 -197c12.667 0 48 11 106 33c63.333 23.333 111 73.666 143 150.999c30 80.667 50.667 156 62 226h147c-12.667 -70.667 -29 -144.667 -49 -222c-16.667 -75.333 -48 -138 -94 -188
c-43.333 -47.333 -91 -84.333 -143 -111c-50 -24 -99.333 -36 -148 -36c-82 0 -166.667 42.333 -254 127c-83.333 83.333 -127 150 -131 200c-37.333 -57.333 -79.666 -116 -127 -176c-39.333 -54.667 -77.666 -90 -115 -106c-24 0 -44.333 8 -61 24l-164 262
c-50.667 -73.333 -98.334 -137.333 -143.001 -192c-45.333 -57.333 -78.333 -86 -99 -86c-29.333 8.66699 -66 46.667 -110 114c-36 58 -62 97.667 -78 119c-37.333 -129.333 -113.666 -253.333 -228.999 -372c-110 -114 -255 -173 -435 -177z" />
    <glyph glyph-name="uni200B" unicode="&#x200b;" 
 />
    <glyph glyph-name="uni2013" unicode="&#x2013;" horiz-adv-x="1303" 
d="M1212 782h-1106v209h1106v-209z" />
    <glyph glyph-name="uni2014" unicode="&#x2014;" horiz-adv-x="2417" 
d="M2331 782h-2204v209h2204v-209z" />
    <glyph glyph-name="uni2018" unicode="&#x2018;" horiz-adv-x="483" 
d="M250 1597c18 0 40.167 -7.00098 66.5 -21.001s39.5 -46.333 39.5 -97c0 -30 -10.167 -58 -30.5 -84s-46.833 -39 -79.5 -39c-40 0 -71.833 16.5 -95.5 49.5s-35.5 77.833 -35.5 134.5c6.66699 92.667 35.667 166 87 220s93.333 90 126 108l32 -37
c-18 -18 -40.833 -48.667 -68.5 -92s-41.5 -90.666 -41.5 -141.999z" />
    <glyph glyph-name="uni2019" unicode="&#x2019;" horiz-adv-x="483" 
d="M242 1622c-20 0 -44.834 7.99805 -74.501 23.998s-44.5 49 -44.5 99c0 30.667 11.5 58.834 34.5 84.501s52.5 38.5 88.5 38.5c82 0 123 -63 123 -189c-8 -88.667 -37 -160.167 -87 -214.5s-90.667 -90.5 -122 -108.5l-41 41c20.667 18.667 46.334 48.834 77.001 90.501
s46 86.5 46 134.5z" />
    <glyph glyph-name="quotesinglbase" unicode="&#x201a;" horiz-adv-x="483" 
d="M242 20c-20 0 -44.834 7.99805 -74.501 23.998s-44.5 49 -44.5 99c0 30.667 11.5 58.834 34.5 84.501s52.5 38.5 88.5 38.5c82 0 123 -63 123 -189c-8 -88.667 -37 -160.167 -87 -214.5s-90.667 -90.5 -122 -108.5l-41 41c20.667 18.667 46.334 48.834 77.001 90.501
s46 86.5 46 134.5z" />
    <glyph glyph-name="uni201C" unicode="&#x201c;" horiz-adv-x="823" 
d="M250 1597c18 0 40.167 -7.00098 66.5 -21.001s39.5 -46.333 39.5 -97c0 -30 -10.167 -58 -30.5 -84s-46.833 -39 -79.5 -39c-40 0 -71.833 16.5 -95.5 49.5s-35.5 77.833 -35.5 134.5c6.66699 92.667 35.667 166 87 220s93.333 90 126 108l32 -37
c-18 -18 -40.833 -48.667 -68.5 -92s-41.5 -90.666 -41.5 -141.999zM606 1597c19.333 0 43.335 -7.16699 72.002 -21.5s43 -46.5 43 -96.5c0 -30 -11 -58 -33 -84s-50.667 -39 -86 -39c-82 0 -123 61.333 -123 184c9.33301 92.667 39.166 166 89.499 220s91.5 90 123.5 108
l37 -37c-20.667 -19.333 -46.334 -51 -77.001 -95s-46 -90.333 -46 -139z" />
    <glyph glyph-name="uni201D" unicode="&#x201d;" horiz-adv-x="831" 
d="M168 1622c-20 0 -44.833 7.99805 -74.5 23.998s-44.5 49 -44.5 99c0 30.667 11.167 58.834 33.5 84.501s52.166 38.5 89.499 38.5c82 0 123 -63 123 -189c-8 -88.667 -37 -160.167 -87 -214.5s-90.667 -90.5 -122 -108.5l-41 41
c20.667 18.667 46.334 48.834 77.001 90.501s46 86.5 46 134.5zM524 1622c-18 0 -40.8301 8 -68.4971 24s-41.5 49 -41.5 99c0 30.667 10.667 58.834 32 84.501s48.666 38.5 81.999 38.5c87.333 0 131 -63 131 -189c-8.66699 -90.667 -38.834 -162.667 -90.501 -216
s-93.834 -89 -126.501 -107l-36 41c20 17.333 44.667 46.166 74 86.499s44 86.5 44 138.5z" />
    <glyph glyph-name="uni201E" unicode="&#x201e;" horiz-adv-x="831" 
d="M168 9c-20 0 -44.833 7.99805 -74.5 23.998s-44.5 49 -44.5 99c0 30.667 11.167 58.834 33.5 84.501s52.166 38.5 89.499 38.5c82 0 123 -63 123 -189c-8 -88.667 -37 -160.167 -87 -214.5s-90.667 -90.5 -122 -108.5l-41 41c20.667 18.667 46.334 48.834 77.001 90.501
s46 86.5 46 134.5zM524 8.99805c-18 0 -40.8301 8 -68.4971 24s-41.5 49 -41.5 99c0 30.667 10.667 58.834 32 84.501s48.666 38.5 81.999 38.5c87.333 0 131 -63 131 -189c-8.66699 -90.667 -38.834 -162.667 -90.501 -216s-93.834 -89 -126.501 -107l-36 41
c20 17.333 44.667 46.166 74 86.499s44 86.5 44 138.5z" />
    <glyph glyph-name="uni2020" unicode="&#x2020;" horiz-adv-x="1500" 
d="M1354 1141h-528v-1597h-172v1597h-524v143h524v536h172v-536h528v-143z" />
    <glyph glyph-name="uni2021" unicode="&#x2021;" horiz-adv-x="1500" 
d="M1360 31h-530v-487h-172v487h-528v147h528v1021h-528v145h528v493h172v-493h530v-145h-530v-1021h530v-147z" />
    <glyph glyph-name="uni2022" unicode="&#x2022;" horiz-adv-x="905" 
d="M98 811c0 110.667 36.333 205.998 109 285.998s159.334 120 260.001 120s185.834 -40 255.501 -120s104.5 -175.333 104.5 -286c0 -111.333 -34.833 -206.666 -104.5 -285.999s-154.834 -119 -255.501 -119s-187.334 39.833 -260.001 119.5s-109 174.834 -109 285.501z
" />
    <glyph glyph-name="uni2026" unicode="&#x2026;" horiz-adv-x="1946" 
d="M328 0c-38.667 0 -68.832 13.167 -90.499 39.5s-32.5 58.166 -32.5 95.499c0 36.667 10.667 67.667 32 93s51.666 38 90.999 38c37.333 0 65.666 -12.667 84.999 -38s29 -56.333 29 -93c0 -37.333 -9.66699 -69.166 -29 -95.499s-47.666 -39.5 -84.999 -39.5zM975.002 0
c-36.667 0 -65.667 13.1689 -87 39.502s-32 58.166 -32 95.499c0 36 10.5 66.833 31.5 92.5s50.167 38.5 87.5 38.5s66.5 -12.833 87.5 -38.5s31.5 -56.5 31.5 -92.5c0 -36.667 -10.667 -68.334 -32 -95.001s-50.333 -40 -87 -40zM1626 0.00195312
c-38.667 0 -68.8301 13.167 -90.4971 39.5s-32.5 58.166 -32.5 95.499c0 36.667 10.667 67.667 32 93s51.666 38 90.999 38s69.666 -12.667 90.999 -38s32 -56.333 32 -93c0 -37.333 -10.833 -69.166 -32.5 -95.499s-51.834 -39.5 -90.501 -39.5z" />
    <glyph glyph-name="uni2030" unicode="&#x2030;" horiz-adv-x="2697" 
d="M1339 1897l-767 -1969h-103l767 1969h103zM772 1420c0 -326 -114.333 -489 -343 -489c-232 0 -348 161 -348 483c0 312 114.667 468 344 468c231.333 0 347 -154 347 -462zM642 1406c0 252.667 -71 379 -213 379c-145.333 0 -218 -127.333 -218 -382
c0 -248.667 74 -373 222 -373c139.333 0 209 125.333 209 376zM2615 415c0 -324.667 -114.333 -487 -343 -487c-232 0 -348 160.333 -348 481c0 312 114.667 468 344 468c231.333 0 347 -154 347 -462zM2485 402c0 252 -71 378 -213 378c-145.333 0 -218 -126.667 -218 -380
c0 -248.667 74 -373 222 -373c139.333 0 209 125 209 375zM1727 415c0 -324.667 -114.667 -487 -344 -487c-230 0 -345 160.333 -345 481c0 312 113.667 468 341 468c232 0 348 -154 348 -462zM1599 402c0 252 -72 378 -216 378c-144.667 0 -217 -126.667 -217 -380
c0 -248.667 73.667 -373 221 -373c141.333 0 212 125 212 375z" />
    <glyph glyph-name="uni2039" unicode="&#x2039;" horiz-adv-x="898" 
d="M673 95h-120l-392 567l392 568h120l-328 -568z" />
    <glyph glyph-name="uni203A" unicode="&#x203a;" horiz-adv-x="898" 
d="M724 673l-379 -578h-120l330 570l-330 565h120z" />
    <glyph glyph-name="Euro" unicode="&#x20ac;" horiz-adv-x="1416" 
d="M1363 1774l0.00292969 -192.999c-31.333 24 -62.166 45.5 -92.499 64.5s-62.166 35.167 -95.499 48.5s-69.333 23.5 -108 30.5s-82 10.5 -130 10.5c-84 0 -163.167 -13.5 -237.5 -40.5s-141 -65.5 -200 -115.5s-109.5 -110.333 -151.5 -181
s-72.333 -149.334 -91 -236.001h595l-43 -119h-570c-6 -32.667 -9 -69.667 -9 -111c0 -32.667 1.33301 -62.167 4 -88.5s6 -46.166 10 -59.499h470l-44 -120h-410c20.667 -92 52 -173.333 94 -244s92.333 -130.167 151 -178.5s124.334 -85.333 197.001 -111
s149.667 -39.167 231 -40.5c58 -1.33301 107.333 2 148 10s77 19.167 109 33.5s61.333 31.666 88 51.999l85 66.5v-190c-33.333 -14.667 -65 -27.834 -95 -39.501s-61.667 -21.667 -95 -30s-70.5 -14.833 -111.5 -19.5s-89.167 -7 -144.5 -7
c-98.667 0 -191.334 15 -278.001 45s-165.334 74.333 -236.001 133s-131.667 131.5 -183 218.5s-91 187.5 -119 301.5h-149l43 120h97c-5.33301 52.667 -8 97.334 -8 134.001c0 42.667 2 84.334 6 125.001h-138l43 119h114c15.333 102 47.5 196.167 96.5 282.5
s109.833 160.666 182.5 222.999s154.667 111 246 146s187.666 52.5 288.999 52.5c51.333 0 95.666 -1.33301 132.999 -4s72.166 -7.5 104.499 -14.5s64.166 -16.5 95.499 -28.5s67 -27 107 -45z" />
    <glyph glyph-name="uni2122" unicode="&#x2122;" horiz-adv-x="2678" 
d="M537 812v90h157v880h-266v-238h-89v327h812v-327h-91v238h-268v-880h159v-90h-414zM2470 1871v-89h-143v-881h143v-89h-375v89h130v838l-315 -927h-89l-316 938v-849h128v-89h-370v89h143v881h-143v89h300l301 -893l305 893h301z" />
    </font>
</defs>
</svg>
